<svg width="553" height="389" viewBox="0 0 553 389" fill="none" xmlns="http://www.w3.org/2000/svg">
<g filter="url(#filter0_d_1202_420095)">
<rect width="192" height="337" transform="translate(8 26)" fill="#252526"/>
<path d="M24.8053 48.1875H27.1232C29.0274 48.1875 30.1441 49.362 30.1441 51.3819C30.1441 53.424 29.0363 54.6074 27.1232 54.6074H24.8053V48.1875ZM25.8019 49.0461V53.7488H27.012C28.3556 53.7488 29.1297 52.8901 29.1297 51.3952C29.1297 49.9137 28.3423 49.0461 27.012 49.0461H25.8019ZM35.3495 54.6074L34.7622 52.8723H32.3152L31.7235 54.6074H30.7002L33.0182 48.1875H34.0904L36.4084 54.6074H35.3495ZM33.5031 49.322L32.5688 52.0715H34.5086L33.5788 49.322H33.5031ZM39.4159 54.6074H38.4193V49.0461H36.3995V48.1875H41.4313V49.0461H39.4159V54.6074ZM46.0717 54.6074L45.4844 52.8723H43.0374L42.4457 54.6074H41.4224L43.7404 48.1875H44.8126L47.1305 54.6074H46.0717ZM44.2253 49.322L43.291 52.0715H45.2308L44.301 49.322H44.2253ZM54.3825 49.8069L53.0077 54.6074H52.0645L50.3338 48.1875H51.3705L52.5495 53.1793H52.6118L53.9509 48.1875H54.8763L56.2244 53.1793H56.2867L57.4612 48.1875H58.4978L56.7627 54.6074H55.824L54.4448 49.8069H54.3825ZM60.7001 52.1382V54.6074H59.7035V48.1875H62.2439C63.5386 48.1875 64.3706 48.9527 64.3706 50.1495C64.3706 51.017 63.9079 51.72 63.1248 51.9825L64.5663 54.6074H63.414L62.106 52.1382H60.7001ZM60.7001 49.0239V51.3196H62.1327C62.9024 51.3196 63.3473 50.9058 63.3473 50.1717C63.3473 49.4554 62.8757 49.0239 62.106 49.0239H60.7001ZM69.9452 54.6074L69.3579 52.8723H66.911L66.3192 54.6074H65.296L67.6139 48.1875H68.6861L71.0041 54.6074H69.9452ZM68.0988 49.322L67.1645 52.0715H69.1043L68.1745 49.322H68.0988ZM73.0951 54.6074H72.1252V48.1875H73.0239L76.3207 52.859H76.3918V48.1875H77.3617V54.6074H76.463L73.1663 49.9448H73.0951V54.6074ZM84.4535 52.0804C84.4535 53.7087 83.3635 54.7631 81.6818 54.7631C79.8621 54.7631 78.7142 53.464 78.7142 51.3952C78.7142 49.3531 79.8754 48.0317 81.6729 48.0317C83.1321 48.0317 84.191 48.8504 84.409 50.145H83.408C83.1588 49.3487 82.5493 48.9171 81.6729 48.9171C80.485 48.9171 79.7331 49.8736 79.7331 51.3908C79.7331 52.9301 80.4894 53.8778 81.6951 53.8778C82.7451 53.8778 83.4658 53.2149 83.4747 52.2316V52.0893H81.8197V51.284H84.4535V52.0804ZM89.8324 53.7399V54.6074H85.8283V48.1875H86.8248V53.7399H89.8324ZM95.1712 53.7488V54.6074H91.0959V48.1875H95.1712V49.0461H92.0925V50.9236H95.0066V51.7511H92.0925V53.7488H95.1712ZM97.6093 52.1382V54.6074H96.6127V48.1875H99.1531C100.448 48.1875 101.28 48.9527 101.28 50.1495C101.28 51.017 100.817 51.72 100.034 51.9825L101.476 54.6074H100.323L99.0152 52.1382H97.6093ZM97.6093 49.0239V51.3196H99.0419C99.8116 51.3196 100.256 50.9058 100.256 50.1717C100.256 49.4554 99.7849 49.0239 99.0152 49.0239H97.6093Z" fill="#CCCCCC"/>
<path d="M30 79.08L34.32 74.7067L34.96 75.3467L30.2667 79.9867H29.68L24.9867 75.3467L25.6267 74.7067L30 79.08Z" fill="#808080"/>
<path d="M49.542 73.4961C51.4097 73.4961 52.5918 74.7749 52.5918 76.8271C52.5918 78.8794 51.4141 80.1626 49.542 80.1626C47.6567 80.1626 46.4878 78.8794 46.4878 76.8271C46.4878 74.7705 47.6743 73.4961 49.542 73.4961ZM49.542 74.6211C48.5093 74.6211 47.8457 75.478 47.8457 76.8271C47.8457 78.1719 48.4961 79.0376 49.542 79.0376C50.5747 79.0376 51.2339 78.1719 51.2339 76.8271C51.2339 75.478 50.5703 74.6211 49.542 74.6211ZM53.853 73.6587H56.4985C57.8037 73.6587 58.6958 74.5288 58.6958 75.8384C58.6958 77.1304 57.7686 78.0005 56.4326 78.0005H55.1802V80H53.853V73.6587ZM55.1802 74.7134V76.959H56.1426C56.9028 76.959 57.3467 76.5635 57.3467 75.8428C57.3467 75.1045 56.9116 74.7134 56.147 74.7134H55.1802ZM64.1187 78.9058V80H59.9175V73.6587H64.1187V74.7529H61.2446V76.2822H63.9561V77.3018H61.2446V78.9058H64.1187ZM66.8433 77.6797V80H65.5161V73.6587H68.1792C69.5723 73.6587 70.4292 74.4277 70.4292 75.6802C70.4292 76.4932 70.0073 77.1963 69.2778 77.4819L70.6138 80H69.1108L67.9287 77.6797H66.8433ZM66.8433 74.6958V76.6909H68.0078C68.6758 76.6909 69.0669 76.3262 69.0669 75.6978C69.0669 75.0825 68.6538 74.6958 67.9946 74.6958H66.8433ZM75.8389 80L75.3599 78.4619H73.1318L72.644 80H71.3125L73.5142 73.6587H75.0742L77.2759 80H75.8389ZM74.2129 74.9463L73.4175 77.4688H75.0786L74.292 74.9463H74.2129ZM80.5366 80H79.2095V74.7529H77.3066V73.6587H82.4395V74.7529H80.5366V80ZM84.9399 80H83.6128V73.6587H84.9399V80ZM89.251 73.4961C91.1187 73.4961 92.3008 74.7749 92.3008 76.8271C92.3008 78.8794 91.123 80.1626 89.251 80.1626C87.3657 80.1626 86.1968 78.8794 86.1968 76.8271C86.1968 74.7705 87.3833 73.4961 89.251 73.4961ZM89.251 74.6211C88.2183 74.6211 87.5547 75.478 87.5547 76.8271C87.5547 78.1719 88.2051 79.0376 89.251 79.0376C90.2837 79.0376 90.9429 78.1719 90.9429 76.8271C90.9429 75.478 90.2793 74.6211 89.251 74.6211ZM94.832 80H93.562V73.6587H94.6694L97.5874 77.6973H97.6665V73.6587H98.9365V80H97.8379L94.9111 75.9438H94.832V80ZM100.193 78.2466H101.477C101.538 78.7739 102.057 79.1123 102.804 79.1123C103.494 79.1123 103.981 78.7651 103.981 78.2729C103.981 77.8555 103.665 77.6138 102.887 77.4424L102.061 77.2622C100.905 77.0161 100.338 76.4229 100.338 75.4604C100.338 74.2783 101.301 73.4961 102.764 73.4961C104.162 73.4961 105.15 74.2739 105.19 75.3945H103.942C103.88 74.876 103.415 74.5376 102.773 74.5376C102.109 74.5376 101.67 74.8584 101.67 75.355C101.67 75.7549 101.973 75.9878 102.716 76.1504L103.48 76.313C104.755 76.5854 105.304 77.1348 105.304 78.1147C105.304 79.3804 104.324 80.1626 102.733 80.1626C101.222 80.1626 100.242 79.4199 100.193 78.2466Z" fill="white"/>
<rect x="20" y="97.5" width="80" height="7" rx="3.5" fill="white" fill-opacity="0.16"/>
<rect x="20" y="121.5" width="98" height="7" rx="3.5" fill="white" fill-opacity="0.16"/>
<rect x="20" y="145.5" width="70" height="7" rx="3.5" fill="white" fill-opacity="0.16"/>
<path d="M30 175.08L34.32 170.707L34.96 171.347L30.2667 175.987H29.68L24.9867 171.347L25.6267 170.707L30 175.08Z" fill="#808080"/>
<path d="M46.4834 174.247H47.7666C47.8281 174.774 48.3467 175.112 49.0938 175.112C49.7837 175.112 50.2715 174.765 50.2715 174.273C50.2715 173.855 49.9551 173.614 49.1772 173.442L48.3511 173.262C47.1953 173.016 46.6284 172.423 46.6284 171.46C46.6284 170.278 47.5908 169.496 49.0542 169.496C50.4517 169.496 51.4404 170.274 51.48 171.395H50.2319C50.1704 170.876 49.7046 170.538 49.063 170.538C48.3994 170.538 47.96 170.858 47.96 171.355C47.96 171.755 48.2632 171.988 49.0059 172.15L49.7705 172.313C51.0449 172.585 51.5942 173.135 51.5942 174.115C51.5942 175.38 50.6143 176.163 49.0234 176.163C47.5117 176.163 46.5317 175.42 46.4834 174.247ZM54.1738 169.659V173.684C54.1738 174.497 54.6572 175.024 55.5054 175.024C56.3535 175.024 56.8325 174.497 56.8325 173.684V169.659H58.1597V173.812C58.1597 175.213 57.127 176.163 55.5054 176.163C53.8838 176.163 52.8467 175.213 52.8467 173.812V169.659H54.1738ZM66.4126 176H65.1821V171.707H65.1118L63.499 175.688H62.6157L60.9985 171.707H60.9282V176H59.6978V169.659H61.2622L63.0156 174.031H63.0947L64.8525 169.659H66.4126V176ZM74.6655 176H73.4351V171.707H73.3647L71.752 175.688H70.8687L69.2515 171.707H69.1812V176H67.9507V169.659H69.5151L71.2686 174.031H71.3477L73.1055 169.659H74.6655V176ZM80.2773 176L79.7983 174.462H77.5703L77.0825 176H75.751L77.9526 169.659H79.5127L81.7144 176H80.2773ZM78.6514 170.946L77.856 173.469H79.5171L78.7305 170.946H78.6514ZM84.1226 173.68V176H82.7954V169.659H85.4585C86.8516 169.659 87.7085 170.428 87.7085 171.68C87.7085 172.493 87.2866 173.196 86.5571 173.482L87.8931 176H86.3901L85.208 173.68H84.1226ZM84.1226 170.696V172.691H85.2871C85.9551 172.691 86.3462 172.326 86.3462 171.698C86.3462 171.083 85.9331 170.696 85.2739 170.696H84.1226ZM91.9272 176H90.6001V173.631L88.3896 169.659H89.8267L91.2241 172.326H91.3032L92.6963 169.659H94.1333L91.9272 173.631V176Z" fill="white"/>
<rect x="20" y="193.5" width="59" height="7" rx="3.5" fill="#484849"/>
<rect x="108" y="193.5" width="46" height="7" rx="3.5" fill="white" fill-opacity="0.16"/>
<rect x="20" y="217.5" width="52" height="7" rx="3.5" fill="#484849"/>
<rect x="93" y="217.5" width="61" height="7" rx="3.5" fill="white" fill-opacity="0.16"/>
<rect x="20" y="241.5" width="47" height="7" rx="3.5" fill="#484849"/>
<rect x="120" y="241.5" width="34" height="7" rx="3.5" fill="white" fill-opacity="0.16"/>
<path d="M32.08 269L27.7067 264.68L28.3467 264.04L32.9867 268.733V269.32L28.3467 274.013L27.7067 273.373L32.08 269Z" fill="#808080"/>
<path d="M49.4629 272.163C47.626 272.163 46.4878 270.888 46.4878 268.827C46.4878 266.766 47.6216 265.496 49.4629 265.496C50.9658 265.496 52.1172 266.48 52.2139 267.843H50.9219C50.7944 267.109 50.2188 266.625 49.4629 266.625C48.4653 266.625 47.8457 267.469 47.8457 268.827C47.8457 270.185 48.4653 271.029 49.4673 271.029C50.2275 271.029 50.7988 270.581 50.9263 269.882H52.2183C52.1084 271.235 50.9922 272.163 49.4629 272.163ZM57.5884 270.884V272H53.4399V265.659H54.7671V270.884H57.5884ZM62.9937 270.906V272H58.7925V265.659H62.9937V266.753H60.1196V268.282H62.8311V269.302H60.1196V270.906H62.9937ZM68.4648 272L67.9858 270.462H65.7578L65.27 272H63.9385L66.1401 265.659H67.7002L69.9019 272H68.4648ZM66.8389 266.946L66.0435 269.469H67.7046L66.918 266.946H66.8389ZM72.2529 272H70.9829V265.659H72.0903L75.0083 269.697H75.0874V265.659H76.3574V272H75.2588L72.332 267.944H72.2529V272ZM79.2271 272H77.8999V265.659H79.2271V272ZM82.0352 272H80.7651V265.659H81.8726L84.7905 269.697H84.8696V265.659H86.1396V272H85.041L82.1143 267.944H82.0352V272ZM93.2544 269.425C93.2544 271.108 92.1733 272.163 90.4419 272.163C88.5566 272.163 87.4009 270.893 87.4009 268.823C87.4009 266.784 88.5654 265.496 90.4111 265.496C91.9097 265.496 93.0127 266.353 93.1973 267.667H91.8789C91.6812 267.003 91.1494 266.625 90.4111 266.625C89.3872 266.625 88.7588 267.456 88.7588 268.81C88.7588 270.189 89.418 271.029 90.4639 271.029C91.334 271.029 91.936 270.497 91.9624 269.706L91.9668 269.587H90.5913V268.621H93.2544V269.425ZM96.5635 270.247H97.8467C97.9082 270.774 98.4268 271.112 99.1738 271.112C99.8638 271.112 100.352 270.765 100.352 270.273C100.352 269.855 100.035 269.614 99.2573 269.442L98.4312 269.262C97.2754 269.016 96.7085 268.423 96.7085 267.46C96.7085 266.278 97.6709 265.496 99.1343 265.496C100.532 265.496 101.521 266.274 101.56 267.395H100.312C100.25 266.876 99.7847 266.538 99.1431 266.538C98.4795 266.538 98.04 266.858 98.04 267.355C98.04 267.755 98.3433 267.988 99.0859 268.15L99.8506 268.313C101.125 268.585 101.674 269.135 101.674 270.115C101.674 271.38 100.694 272.163 99.1035 272.163C97.5918 272.163 96.6118 271.42 96.5635 270.247ZM105.796 272H104.469V266.753H102.566V265.659H107.699V266.753H105.796V272ZM113.074 270.906V272H108.873V265.659H113.074V266.753H110.2V268.282H112.911V269.302H110.2V270.906H113.074ZM114.471 265.659H117.117C118.422 265.659 119.314 266.529 119.314 267.838C119.314 269.13 118.387 270 117.051 270H115.798V272H114.471V265.659ZM115.798 266.713V268.959H116.761C117.521 268.959 117.965 268.563 117.965 267.843C117.965 267.104 117.53 266.713 116.765 266.713H115.798ZM120.25 270.247H121.533C121.595 270.774 122.113 271.112 122.86 271.112C123.55 271.112 124.038 270.765 124.038 270.273C124.038 269.855 123.722 269.614 122.944 269.442L122.118 269.262C120.962 269.016 120.395 268.423 120.395 267.46C120.395 266.278 121.357 265.496 122.821 265.496C124.218 265.496 125.207 266.274 125.247 267.395H123.999C123.937 266.876 123.471 266.538 122.83 266.538C122.166 266.538 121.727 266.858 121.727 267.355C121.727 267.755 122.03 267.988 122.772 268.15L123.537 268.313C124.812 268.585 125.361 269.135 125.361 270.115C125.361 271.38 124.381 272.163 122.79 272.163C121.278 272.163 120.298 271.42 120.25 270.247Z" fill="white"/>
<path d="M27 299.113C25.88 299.113 24.8533 298.849 23.92 298.32C22.9867 297.76 22.24 297.013 21.68 296.08C21.1511 295.147 20.8867 294.12 20.8867 293C20.8867 291.88 21.1511 290.853 21.68 289.92C22.24 288.987 22.9867 288.256 23.92 287.727C24.8533 287.167 25.88 286.887 27 286.887C28.12 286.887 29.1467 287.167 30.08 287.727C31.0133 288.256 31.7444 288.987 32.2733 289.92C32.8333 290.853 33.1133 291.88 33.1133 293C33.1133 294.12 32.8333 295.147 32.2733 296.08C31.7444 297.013 31.0133 297.76 30.08 298.32C29.1467 298.849 28.12 299.113 27 299.113ZM26.1133 295.52L30.08 291.507L29.4733 290.9L25.7867 294.587L24.1067 292.907L23.5 293.513L25.5067 295.52H26.1133Z" fill="#73C991"/>
<rect x="40" y="289.5" width="98" height="7" rx="3.5" fill="#484849"/>
<path d="M22.6133 344.887H32.2733L33.1133 345.727V350.393C32.8333 350.269 32.5378 350.176 32.2267 350.113V345.727H27.8867V355.247L26.9067 356.227H22.6133L21.7733 355.387V345.727L22.6133 344.887ZM22.6133 355.387H27V345.727H22.6133V355.387ZM31.7133 351C31.34 351 30.9978 351.109 30.6867 351.327H30.64C30.1111 351.638 29.7689 352.104 29.6133 352.727C29.4889 353.318 29.5978 353.878 29.94 354.407L27.8867 356.46L28.4933 357.067L30.5467 355.013C30.8267 355.2 31.1378 355.324 31.48 355.387C31.8533 355.418 32.1956 355.371 32.5067 355.247C32.8489 355.122 33.1289 354.936 33.3467 354.687C33.5956 354.438 33.7667 354.158 33.86 353.847C33.9844 353.504 34.0156 353.162 33.9533 352.82C33.8911 352.478 33.7511 352.167 33.5333 351.887C33.3467 351.607 33.0822 351.389 32.74 351.233C32.4289 351.078 32.0867 351 31.7133 351ZM31.9 354.5C31.5889 354.531 31.3089 354.469 31.06 354.313C30.8422 354.127 30.6711 353.924 30.5467 353.707C30.4533 353.458 30.4378 353.209 30.5 352.96C30.5622 352.68 30.6867 352.447 30.8733 352.26C31.06 352.073 31.2778 351.964 31.5267 351.933C31.7756 351.871 32.0244 351.887 32.2733 351.98C32.5222 352.073 32.7089 352.229 32.8333 352.447C32.9889 352.633 33.0667 352.851 33.0667 353.1C33.0978 353.318 33.0667 353.536 32.9733 353.753C32.88 353.971 32.74 354.142 32.5533 354.267C32.3667 354.391 32.1489 354.469 31.9 354.5Z" fill="#CCCCCC"/>
<path d="M43.4233 354.5H42.6411L40.3032 348.159H41.1338L42.9971 353.476H43.0674L44.9307 348.159H45.7612L43.4233 354.5ZM47.1719 348.849C46.8818 348.849 46.6445 348.611 46.6445 348.321C46.6445 348.031 46.8818 347.794 47.1719 347.794C47.4619 347.794 47.6992 348.031 47.6992 348.321C47.6992 348.611 47.4619 348.849 47.1719 348.849ZM46.7939 354.5V349.763H47.5498V354.5H46.7939ZM52.1289 353.274H52.8848C52.665 354.083 51.9268 354.583 50.8896 354.583C49.5757 354.583 48.7539 353.634 48.7539 352.136C48.7539 350.646 49.5889 349.679 50.8896 349.679C52.1685 349.679 52.9463 350.589 52.9463 352.061V352.351H49.5405V352.386C49.5801 353.322 50.103 353.916 50.9072 353.916C51.5181 353.916 51.9312 353.691 52.1289 353.274ZM50.8809 350.347C50.125 350.347 49.5977 350.901 49.5405 351.74H52.1509C52.1333 350.901 51.6323 350.347 50.8809 350.347ZM60.0918 349.763L58.7646 354.5H57.9956L56.9365 350.835H56.8662L55.8115 354.5H55.0469L53.7197 349.763H54.4844L55.416 353.551H55.4863L56.5454 349.763H57.2705L58.3296 353.551H58.3999L59.3315 349.763H60.0918ZM67.8613 354.5L67.2241 352.685H64.7017L64.0645 354.5H63.2339L65.5718 348.159H66.354L68.6919 354.5H67.8613ZM65.9277 349.183L64.9346 352.013H66.9912L65.998 349.183H65.9277ZM69.751 354.5V347.882H70.5068V354.5H69.751ZM72.0186 354.5V347.882H72.7744V354.5H72.0186ZM79.4321 354.649C77.7095 354.649 76.6328 353.375 76.6328 351.332C76.6328 349.284 77.7051 348.009 79.4277 348.009C80.7637 348.009 81.8052 348.849 81.9941 350.07H81.1899C80.979 349.253 80.3022 348.739 79.4277 348.739C78.2104 348.739 77.4458 349.741 77.4458 351.332C77.4458 352.922 78.2104 353.92 79.4321 353.92C80.3154 353.92 80.9878 353.467 81.1899 352.733H81.9941C81.7832 353.898 80.7812 354.649 79.4321 354.649ZM85.1714 354.583C83.8223 354.583 82.9873 353.652 82.9873 352.131C82.9873 350.606 83.8223 349.679 85.1714 349.679C86.5205 349.679 87.3555 350.606 87.3555 352.131C87.3555 353.652 86.5205 354.583 85.1714 354.583ZM85.1714 353.902C86.0679 353.902 86.5732 353.252 86.5732 352.131C86.5732 351.006 86.0679 350.36 85.1714 350.36C84.2749 350.36 83.7695 351.006 83.7695 352.131C83.7695 353.252 84.2749 353.902 85.1714 353.902ZM90.2954 354.583C89.0825 354.583 88.3047 353.621 88.3047 352.131C88.3047 350.646 89.0913 349.679 90.2954 349.679C90.9546 349.679 91.5127 349.991 91.7808 350.51H91.8467V347.882H92.6025V354.5H91.8818V353.744H91.8115C91.5127 354.271 90.9502 354.583 90.2954 354.583ZM90.4712 350.36C89.6099 350.36 89.0869 351.028 89.0869 352.131C89.0869 353.239 89.6055 353.902 90.4712 353.902C91.3325 353.902 91.8643 353.226 91.8643 352.131C91.8643 351.046 91.3281 350.36 90.4712 350.36ZM97.208 353.274H97.9639C97.7441 354.083 97.0059 354.583 95.9688 354.583C94.6548 354.583 93.833 353.634 93.833 352.136C93.833 350.646 94.668 349.679 95.9688 349.679C97.2476 349.679 98.0254 350.589 98.0254 352.061V352.351H94.6196V352.386C94.6592 353.322 95.1821 353.916 95.9863 353.916C96.5972 353.916 97.0103 353.691 97.208 353.274ZM95.96 350.347C95.2041 350.347 94.6768 350.901 94.6196 351.74H97.23C97.2124 350.901 96.7114 350.347 95.96 350.347Z" fill="#CCCCCC"/>
</g>
<g filter="url(#filter1_d_1202_420095)">
<rect width="379" height="318" transform="translate(152 14)" fill="#252526"/>
<rect width="379" height="35" transform="translate(152 14)" fill="#1E1E1E"/>
<g clip-path="url(#clip0_1202_420095)">
<g clip-path="url(#clip1_1202_420095)">
<rect width="87" height="35" transform="translate(152 14)" fill="#1E1E1E"/>
<path fill-rule="evenodd" clip-rule="evenodd" d="M166 25.5L167 24.5H176L177 25.5V37.5L176 38.5H167L166 37.5V25.5ZM167 25.5V37.5H176V25.5H167ZM168 27.5L169 26.5H174L175 27.5V28.5L174 29.5H169L168 28.5V27.5ZM169 27.5V28.5H174V27.5H169ZM179 28.5H178V30.5H179V28.5ZM178 31.5H179V33.5H178V31.5ZM179 34.5H178V36.5H179V34.5Z" fill="#393939"/>
<rect x="184" y="28" width="43" height="7" rx="3.5" fill="white" fill-opacity="0.12"/>
</g>
<rect width="122" height="35" transform="translate(240 14)" fill="#252526"/>
<g clip-path="url(#clip2_1202_420095)">
<g clip-path="url(#clip3_1202_420095)">
<path d="M265.5 39.4358C265.372 39.4358 265.244 39.3868 265.146 39.2898C264.951 39.0947 264.951 38.7778 265.146 38.5828L266.792 36.9368L265.146 35.2907C264.951 35.0957 264.951 34.7788 265.146 34.5837C265.341 34.3888 265.658 34.3888 265.853 34.5837L267.853 36.5838C268.048 36.7787 268.048 37.0957 267.853 37.2907L265.853 39.2907C265.755 39.3887 265.627 39.4367 265.499 39.4367L265.5 39.4358Z" fill="#0078D4"/>
<path d="M262.5 39.4358C262.372 39.4358 262.244 39.3868 262.146 39.2898C261.951 39.0947 261.951 38.7778 262.146 38.5828L263.792 36.9368L262.146 35.2907C261.951 35.0957 261.951 34.7788 262.146 34.5837C262.341 34.3888 262.658 34.3888 262.853 34.5837L264.853 36.5838C265.048 36.7787 265.048 37.0957 264.853 37.2907L262.853 39.2907C262.755 39.3887 262.627 39.4367 262.499 39.4367L262.5 39.4358Z" fill="#0078D4"/>
<path d="M259.5 39.4358C259.372 39.4358 259.244 39.3868 259.146 39.2898C258.951 39.0947 258.951 38.7778 259.146 38.5828L260.792 36.9368L259.146 35.2907C258.951 35.0957 258.951 34.7788 259.146 34.5837C259.341 34.3888 259.658 34.3888 259.853 34.5837L261.853 36.5838C262.048 36.7787 262.048 37.0957 261.853 37.2907L259.853 39.2907C259.755 39.3887 259.627 39.4367 259.499 39.4367L259.5 39.4358Z" fill="#0078D4"/>
<path d="M258 34.9355C258 34.7615 258.035 34.5945 258.091 34.4355H256.694L256.254 36.3955C256.254 36.4005 256.251 36.4085 256.249 36.4155C256.247 36.4235 256.244 36.4305 256.244 36.4355H258.878L258.439 35.9965C258.156 35.7135 258 35.3365 258 34.9355ZM253.204 31.4355L252.764 33.3955C252.764 33.4005 252.761 33.4085 252.759 33.4155C252.756 33.4235 252.754 33.4305 252.754 33.4355H255.894L256.344 31.4355H253.204ZM266.695 27.3705C266.218 26.7765 265.507 26.4355 264.746 26.4355H256.342C255.161 26.4355 254.157 27.2405 253.902 28.3925L253.447 30.4355H257.615L256.948 33.4355H265.5C265.772 33.4355 266.031 33.5125 266.259 33.6475L267.186 29.4775C267.351 28.7335 267.172 27.9655 266.695 27.3705ZM254.695 29.4355L254.879 28.6095C255.032 27.9185 255.634 27.4355 256.343 27.4355H258.282L257.837 29.4355H254.695ZM261.337 32.4355H258.194L258.639 30.4355H261.781L261.337 32.4355ZM262.005 29.4355H258.863L259.308 27.4355H262.449L262.005 29.4355ZM265.503 32.4355H262.361L262.806 30.4355H265.949L265.503 32.4355ZM266.208 29.2615L266.17 29.4355H263.027L263.471 27.4355H264.743C265.2 27.4355 265.627 27.6405 265.913 27.9965C266.199 28.3535 266.307 28.8145 266.207 29.2615H266.208ZM253.255 35.4955C253.735 36.0955 254.445 36.4355 255.205 36.4355H255.225L255.455 35.4355L255.675 34.4355H252.765C252.835 34.8255 253.005 35.1855 253.255 35.4955Z" fill="#0078D4"/>
</g>
</g>
<rect x="272" y="28" width="78" height="7" rx="3.5" fill="white" fill-opacity="0.12"/>
</g>
<rect x="201" y="108" width="24" height="8" rx="4" transform="rotate(-90 201 108)" fill="#007ACC"/>
<rect x="213" y="108" width="21" height="8" rx="4" transform="rotate(-90 213 108)" fill="#007ACC"/>
<rect x="225" y="108" width="18" height="8" rx="4" transform="rotate(-90 225 108)" fill="#007ACC"/>
<rect x="177" y="108" width="11" height="8" rx="4" transform="rotate(-90 177 108)" fill="#007ACC"/>
<rect x="189" y="108" width="16" height="8" rx="4" transform="rotate(-90 189 108)" fill="#007ACC"/>
<rect x="337" y="108" width="20" height="8" rx="4" transform="rotate(-90 337 108)" fill="#007ACC"/>
<rect x="349" y="108" width="24" height="8" rx="4" transform="rotate(-90 349 108)" fill="#007ACC"/>
<rect x="361" y="108" width="8" height="8" rx="4" transform="rotate(-90 361 108)" fill="#007ACC"/>
<rect x="313" y="108" width="8" height="8" rx="4" transform="rotate(-90 313 108)" fill="#007ACC"/>
<rect x="325" y="108" width="8" height="8" rx="4" transform="rotate(-90 325 108)" fill="#007ACC"/>
<rect x="405" y="108" width="18" height="8" rx="4" transform="rotate(-90 405 108)" fill="#007ACC"/>
<rect x="417" y="108" width="24" height="8" rx="4" transform="rotate(-90 417 108)" fill="#007ACC"/>
<rect x="429" y="108" width="10" height="8" rx="4" transform="rotate(-90 429 108)" fill="#007ACC"/>
<rect x="381" y="108" width="8" height="8" rx="4" transform="rotate(-90 381 108)" fill="#007ACC"/>
<rect x="393" y="108" width="10" height="8" rx="4" transform="rotate(-90 393 108)" fill="#007ACC"/>
<rect x="176" y="66" width="58" height="8" rx="4" fill="#606060"/>
<rect x="244" y="66" width="58" height="8" rx="4" fill="#606060"/>
<rect x="380" y="66" width="58" height="8" rx="4" fill="#73C991"/>
<rect x="312" y="66" width="58" height="8" rx="4" fill="#F14C4C"/>
<rect x="448" y="66" width="58" height="8" rx="4" fill="#606060"/>
<rect x="176" y="118" width="58" height="8" rx="4" fill="#393939"/>
<rect x="244" y="118" width="58" height="8" rx="4" fill="#393939"/>
<rect x="312" y="118" width="58" height="8" rx="4" fill="#393939"/>
<rect x="380" y="118" width="58" height="8" rx="4" fill="#393939"/>
<rect x="448" y="118" width="58" height="8" rx="4" fill="#393939"/>
<rect x="176" y="136" width="58" height="8" rx="4" fill="#393939"/>
<rect x="244" y="136" width="58" height="8" rx="4" fill="#393939"/>
<rect x="312" y="136" width="58" height="8" rx="4" fill="#393939"/>
<rect x="380" y="136" width="58" height="8" rx="4" fill="#393939"/>
<rect x="448" y="136" width="58" height="8" rx="4" fill="#393939"/>
<rect x="176" y="154" width="58" height="8" rx="4" fill="#393939"/>
<rect x="244" y="154" width="58" height="8" rx="4" fill="#393939"/>
<rect x="312" y="154" width="58" height="8" rx="4" fill="#393939"/>
<rect x="380" y="154" width="58" height="8" rx="4" fill="#393939"/>
<rect x="448" y="154" width="58" height="8" rx="4" fill="#393939"/>
<rect x="176" y="208" width="58" height="8" rx="4" fill="#393939"/>
<rect x="244" y="208" width="58" height="8" rx="4" fill="#393939"/>
<rect x="312" y="208" width="58" height="8" rx="4" fill="#393939"/>
<rect x="380" y="208" width="58" height="8" rx="4" fill="#393939"/>
<rect x="448" y="208" width="58" height="8" rx="4" fill="#393939"/>
<rect x="176" y="262" width="58" height="8" rx="4" fill="#393939"/>
<rect x="244" y="262" width="58" height="8" rx="4" fill="#393939"/>
<rect x="312" y="262" width="58" height="8" rx="4" fill="#393939"/>
<rect x="380" y="262" width="58" height="8" rx="4" fill="#393939"/>
<rect x="448" y="262" width="58" height="8" rx="4" fill="#393939"/>
<rect x="176" y="172" width="58" height="8" rx="4" fill="#393939"/>
<rect x="244" y="172" width="58" height="8" rx="4" fill="#393939"/>
<rect x="312" y="172" width="58" height="8" rx="4" fill="#393939"/>
<rect x="380" y="172" width="58" height="8" rx="4" fill="#393939"/>
<rect x="448" y="172" width="58" height="8" rx="4" fill="#393939"/>
<rect x="176" y="226" width="58" height="8" rx="4" fill="#393939"/>
<rect x="244" y="226" width="58" height="8" rx="4" fill="#393939"/>
<rect x="312" y="226" width="58" height="8" rx="4" fill="#393939"/>
<rect x="380" y="226" width="58" height="8" rx="4" fill="#393939"/>
<rect x="448" y="226" width="58" height="8" rx="4" fill="#393939"/>
<rect x="176" y="280" width="58" height="8" rx="4" fill="#393939"/>
<rect x="244" y="280" width="58" height="8" rx="4" fill="#393939"/>
<rect x="312" y="280" width="58" height="8" rx="4" fill="#393939"/>
<rect x="380" y="280" width="58" height="8" rx="4" fill="#393939"/>
<rect x="448" y="280" width="58" height="8" rx="4" fill="#393939"/>
<rect x="176" y="190" width="58" height="8" rx="4" fill="#393939"/>
<rect x="244" y="190" width="58" height="8" rx="4" fill="#393939"/>
<rect x="312" y="190" width="58" height="8" rx="4" fill="#393939"/>
<rect x="380" y="190" width="58" height="8" rx="4" fill="#393939"/>
<rect x="448" y="190" width="58" height="8" rx="4" fill="#393939"/>
<rect x="176" y="244" width="58" height="8" rx="4" fill="#393939"/>
<rect x="244" y="244" width="58" height="8" rx="4" fill="#393939"/>
<rect x="312" y="244" width="58" height="8" rx="4" fill="#393939"/>
<rect x="380" y="244" width="58" height="8" rx="4" fill="#393939"/>
<rect x="448" y="244" width="58" height="8" rx="4" fill="#393939"/>
<rect x="176" y="298" width="58" height="8" rx="4" fill="#393939"/>
<rect x="244" y="298" width="58" height="8" rx="4" fill="#393939"/>
<rect x="312" y="298" width="58" height="8" rx="4" fill="#393939"/>
<rect x="380" y="298" width="58" height="8" rx="4" fill="#393939"/>
<rect x="448" y="298" width="58" height="8" rx="4" fill="#393939"/>
<rect x="376.5" y="62.5" width="65" height="255" rx="7.5" stroke="#73C991"/>
<circle cx="273" cy="96" r="12" fill="#007ACC"/>
<rect x="308.5" y="62.5" width="65" height="255" rx="7.5" stroke="#F14C4C"/>
<rect x="465" y="92" width="24" height="8" rx="4" fill="#007ACC"/>
</g>
<rect x="181.5" y="324.5" width="371" height="64" rx="3.5" fill="#1E1E1E"/>
<rect x="181.5" y="324.5" width="371" height="64" rx="3.5" stroke="#303031"/>
<path d="M201.008 342.416L200.48 344.49H201.916L202.449 342.416H203.387L202.854 344.49H204.283V345.387H202.637L202.062 347.689H203.527V348.586H201.834L201.225 351H200.287L200.902 348.586H199.461L198.846 351H197.914L198.523 348.586H197.012V347.689H198.752L199.326 345.387H197.768V344.49H199.543L200.07 342.416H201.008ZM201.699 345.387H200.264L199.689 347.689H201.131L201.699 345.387ZM217.748 350.689C217.447 350.85 217.139 350.969 216.822 351.047C216.506 351.129 216.17 351.17 215.814 351.17C214.693 351.17 213.822 350.773 213.201 349.98C212.584 349.188 212.275 348.072 212.275 346.635C212.275 345.205 212.586 344.092 213.207 343.295C213.832 342.494 214.701 342.094 215.814 342.094C216.17 342.094 216.506 342.135 216.822 342.217C217.139 342.295 217.447 342.414 217.748 342.574V343.787C217.459 343.549 217.148 343.367 216.816 343.242C216.484 343.117 216.15 343.055 215.814 343.055C215.045 343.055 214.469 343.352 214.086 343.945C213.703 344.539 213.512 345.436 213.512 346.635C213.512 347.83 213.703 348.725 214.086 349.318C214.469 349.912 215.045 350.209 215.814 350.209C216.158 350.209 216.494 350.146 216.822 350.021C217.154 349.896 217.463 349.715 217.748 349.477V350.689ZM224.85 346.934V351H223.766V346.934C223.766 346.344 223.662 345.91 223.455 345.633C223.248 345.355 222.924 345.217 222.482 345.217C221.979 345.217 221.59 345.396 221.316 345.756C221.047 346.111 220.912 346.623 220.912 347.291V351H219.834V341.883H220.912V345.422C221.104 345.047 221.363 344.764 221.691 344.572C222.02 344.377 222.408 344.279 222.857 344.279C223.525 344.279 224.023 344.5 224.352 344.941C224.684 345.379 224.85 346.043 224.85 346.934ZM230.035 347.701H229.678C229.049 347.701 228.574 347.812 228.254 348.035C227.938 348.254 227.779 348.582 227.779 349.02C227.779 349.414 227.898 349.721 228.137 349.939C228.375 350.158 228.705 350.268 229.127 350.268C229.721 350.268 230.188 350.062 230.527 349.652C230.867 349.238 231.039 348.668 231.043 347.941V347.701H230.035ZM232.127 347.256V351H231.043V350.027C230.812 350.418 230.521 350.707 230.17 350.895C229.822 351.078 229.398 351.17 228.898 351.17C228.23 351.17 227.697 350.982 227.299 350.607C226.9 350.229 226.701 349.723 226.701 349.09C226.701 348.359 226.945 347.805 227.434 347.426C227.926 347.047 228.646 346.857 229.596 346.857H231.043V346.688C231.039 346.164 230.906 345.785 230.645 345.551C230.383 345.312 229.965 345.193 229.391 345.193C229.023 345.193 228.652 345.246 228.277 345.352C227.902 345.457 227.537 345.611 227.182 345.814V344.736C227.58 344.584 227.961 344.471 228.324 344.396C228.691 344.318 229.047 344.279 229.391 344.279C229.934 344.279 230.396 344.359 230.779 344.52C231.166 344.68 231.479 344.92 231.717 345.24C231.865 345.436 231.971 345.678 232.033 345.967C232.096 346.252 232.127 346.682 232.127 347.256ZM239.311 346.934V351H238.227V346.934C238.227 346.344 238.123 345.91 237.916 345.633C237.709 345.355 237.385 345.217 236.943 345.217C236.439 345.217 236.051 345.396 235.777 345.756C235.508 346.111 235.373 346.623 235.373 347.291V351H234.295V344.438H235.373V345.422C235.564 345.047 235.824 344.764 236.152 344.572C236.48 344.377 236.869 344.279 237.318 344.279C237.986 344.279 238.484 344.5 238.812 344.941C239.145 345.379 239.311 346.043 239.311 346.934ZM245.41 347.666C245.41 346.857 245.277 346.244 245.012 345.826C244.75 345.404 244.367 345.193 243.863 345.193C243.336 345.193 242.934 345.404 242.656 345.826C242.379 346.244 242.24 346.857 242.24 347.666C242.24 348.475 242.379 349.092 242.656 349.518C242.938 349.939 243.344 350.15 243.875 350.15C244.371 350.15 244.75 349.938 245.012 349.512C245.277 349.086 245.41 348.471 245.41 347.666ZM246.488 350.578C246.488 351.562 246.256 352.309 245.791 352.816C245.326 353.324 244.643 353.578 243.74 353.578C243.443 353.578 243.133 353.551 242.809 353.496C242.484 353.441 242.16 353.361 241.836 353.256V352.189C242.219 352.369 242.566 352.502 242.879 352.588C243.191 352.674 243.479 352.717 243.74 352.717C244.322 352.717 244.746 352.559 245.012 352.242C245.277 351.926 245.41 351.424 245.41 350.736V350.689V349.957C245.238 350.324 245.004 350.598 244.707 350.777C244.41 350.957 244.049 351.047 243.623 351.047C242.857 351.047 242.246 350.74 241.789 350.127C241.332 349.514 241.104 348.693 241.104 347.666C241.104 346.635 241.332 345.812 241.789 345.199C242.246 344.586 242.857 344.279 243.623 344.279C244.045 344.279 244.402 344.363 244.695 344.531C244.988 344.699 245.227 344.959 245.41 345.311V344.461H246.488V350.578ZM254.176 347.18V347.707H249.506V347.742C249.475 348.637 249.645 349.279 250.016 349.67C250.391 350.061 250.918 350.256 251.598 350.256C251.941 350.256 252.301 350.201 252.676 350.092C253.051 349.982 253.451 349.816 253.877 349.594V350.666C253.467 350.834 253.07 350.959 252.688 351.041C252.309 351.127 251.941 351.17 251.586 351.17C250.566 351.17 249.77 350.865 249.195 350.256C248.621 349.643 248.334 348.799 248.334 347.725C248.334 346.678 248.615 345.842 249.178 345.217C249.74 344.592 250.49 344.279 251.428 344.279C252.264 344.279 252.922 344.562 253.402 345.129C253.887 345.695 254.145 346.379 254.176 347.18ZM253.098 346.863C253.051 346.41 252.885 346.02 252.6 345.691C252.318 345.359 251.912 345.193 251.381 345.193C250.861 345.193 250.434 345.365 250.098 345.709C249.762 346.053 249.578 346.439 249.547 346.869L253.098 346.863ZM268.291 350.666C268.002 350.834 267.703 350.959 267.395 351.041C267.09 351.127 266.777 351.17 266.457 351.17C265.441 351.17 264.646 350.865 264.072 350.256C263.502 349.646 263.217 348.803 263.217 347.725C263.217 346.646 263.502 345.803 264.072 345.193C264.646 344.584 265.441 344.279 266.457 344.279C266.773 344.279 267.082 344.32 267.383 344.402C267.684 344.484 267.986 344.611 268.291 344.783V345.914C268.006 345.66 267.719 345.477 267.43 345.363C267.145 345.25 266.82 345.193 266.457 345.193C265.781 345.193 265.262 345.412 264.898 345.85C264.535 346.287 264.354 346.912 264.354 347.725C264.354 348.533 264.535 349.158 264.898 349.6C265.266 350.037 265.785 350.256 266.457 350.256C266.832 350.256 267.168 350.199 267.465 350.086C267.762 349.969 268.037 349.789 268.291 349.547V350.666ZM272.914 345.193C272.367 345.193 271.953 345.406 271.672 345.832C271.391 346.258 271.25 346.889 271.25 347.725C271.25 348.557 271.391 349.188 271.672 349.617C271.953 350.043 272.367 350.256 272.914 350.256C273.465 350.256 273.881 350.043 274.162 349.617C274.443 349.188 274.584 348.557 274.584 347.725C274.584 346.889 274.443 346.258 274.162 345.832C273.881 345.406 273.465 345.193 272.914 345.193ZM272.914 344.279C273.824 344.279 274.52 344.574 275 345.164C275.484 345.754 275.727 346.607 275.727 347.725C275.727 348.846 275.486 349.701 275.006 350.291C274.525 350.877 273.828 351.17 272.914 351.17C272.004 351.17 271.309 350.877 270.828 350.291C270.348 349.701 270.107 348.846 270.107 347.725C270.107 346.607 270.348 345.754 270.828 345.164C271.309 344.574 272.004 344.279 272.914 344.279ZM280.748 348.627C280.748 349.111 280.836 349.477 281.012 349.723C281.191 349.969 281.455 350.092 281.803 350.092H283.062V351H281.697C281.053 351 280.553 350.795 280.197 350.385C279.846 349.971 279.67 349.385 279.67 348.627V342.691H277.941V341.848H280.748V348.627ZM284.908 348.516V344.449H285.986V348.516C285.986 349.105 286.09 349.539 286.297 349.816C286.508 350.094 286.832 350.232 287.27 350.232C287.777 350.232 288.166 350.055 288.436 349.699C288.705 349.34 288.84 348.826 288.84 348.158V344.449H289.924V351H288.84V350.016C288.648 350.395 288.387 350.682 288.055 350.877C287.727 351.072 287.342 351.17 286.9 351.17C286.229 351.17 285.729 350.951 285.4 350.514C285.072 350.072 284.908 349.406 284.908 348.516ZM294.957 345.105C295.09 344.824 295.258 344.617 295.461 344.484C295.668 344.348 295.916 344.279 296.205 344.279C296.732 344.279 297.104 344.484 297.318 344.895C297.537 345.301 297.646 346.068 297.646 347.197V351H296.662V347.244C296.662 346.318 296.609 345.744 296.504 345.521C296.402 345.295 296.215 345.182 295.941 345.182C295.629 345.182 295.414 345.303 295.297 345.545C295.184 345.783 295.127 346.35 295.127 347.244V351H294.143V347.244C294.143 346.307 294.086 345.729 293.973 345.51C293.863 345.291 293.664 345.182 293.375 345.182C293.09 345.182 292.891 345.303 292.777 345.545C292.668 345.783 292.613 346.35 292.613 347.244V351H291.635V344.438H292.613V345C292.742 344.766 292.902 344.588 293.094 344.467C293.289 344.342 293.51 344.279 293.756 344.279C294.053 344.279 294.299 344.348 294.494 344.484C294.693 344.621 294.848 344.828 294.957 345.105ZM304.385 346.934V351H303.301V346.934C303.301 346.344 303.197 345.91 302.99 345.633C302.783 345.355 302.459 345.217 302.018 345.217C301.514 345.217 301.125 345.396 300.852 345.756C300.582 346.111 300.447 346.623 300.447 347.291V351H299.369V344.438H300.447V345.422C300.639 345.047 300.898 344.764 301.227 344.572C301.555 344.377 301.943 344.279 302.393 344.279C303.061 344.279 303.559 344.5 303.887 344.941C304.219 345.379 304.385 346.043 304.385 346.934ZM316.285 342.574V344.438H318.734V345.275H316.285V348.838C316.285 349.322 316.377 349.66 316.561 349.852C316.744 350.043 317.064 350.139 317.521 350.139H318.734V351H317.416C316.607 351 316.037 350.838 315.705 350.514C315.373 350.189 315.207 349.631 315.207 348.838V345.275H313.455V344.438H315.207V342.574H316.285ZM324.945 348.891C324.766 349.348 324.537 349.949 324.26 350.695C323.873 351.727 323.613 352.355 323.48 352.582C323.301 352.887 323.076 353.115 322.807 353.268C322.537 353.42 322.223 353.496 321.863 353.496H320.996V352.594H321.635C321.951 352.594 322.199 352.502 322.379 352.318C322.559 352.135 322.787 351.66 323.064 350.895L320.527 344.438H321.67L323.615 349.57L325.531 344.438H326.674L324.945 348.891ZM329.346 350.174V353.496H328.262V344.438H329.346V345.275C329.525 344.951 329.764 344.705 330.061 344.537C330.361 344.365 330.707 344.279 331.098 344.279C331.891 344.279 332.512 344.586 332.961 345.199C333.414 345.812 333.641 346.662 333.641 347.748C333.641 348.814 333.414 349.652 332.961 350.262C332.508 350.867 331.887 351.17 331.098 351.17C330.699 351.17 330.35 351.086 330.049 350.918C329.752 350.746 329.518 350.498 329.346 350.174ZM332.51 347.725C332.51 346.889 332.377 346.258 332.111 345.832C331.85 345.406 331.459 345.193 330.939 345.193C330.416 345.193 330.02 345.408 329.75 345.838C329.48 346.264 329.346 346.893 329.346 347.725C329.346 348.553 329.48 349.182 329.75 349.611C330.02 350.041 330.416 350.256 330.939 350.256C331.459 350.256 331.85 350.043 332.111 349.617C332.377 349.191 332.51 348.561 332.51 347.725ZM340.941 347.18V347.707H336.271V347.742C336.24 348.637 336.41 349.279 336.781 349.67C337.156 350.061 337.684 350.256 338.363 350.256C338.707 350.256 339.066 350.201 339.441 350.092C339.816 349.982 340.217 349.816 340.643 349.594V350.666C340.232 350.834 339.836 350.959 339.453 351.041C339.074 351.127 338.707 351.17 338.352 351.17C337.332 351.17 336.535 350.865 335.961 350.256C335.387 349.643 335.1 348.799 335.1 347.725C335.1 346.678 335.381 345.842 335.943 345.217C336.506 344.592 337.256 344.279 338.193 344.279C339.029 344.279 339.688 344.562 340.168 345.129C340.652 345.695 340.91 346.379 340.941 347.18ZM339.863 346.863C339.816 346.41 339.65 346.02 339.365 345.691C339.084 345.359 338.678 345.193 338.146 345.193C337.627 345.193 337.199 345.365 336.863 345.709C336.527 346.053 336.344 346.439 336.312 346.869L339.863 346.863Z" fill="#327E36"/>
<path d="M202.027 363.275V359.883H203.105V369H202.027V368.174C201.848 368.498 201.607 368.746 201.307 368.918C201.01 369.086 200.666 369.17 200.275 369.17C199.482 369.17 198.857 368.863 198.4 368.25C197.947 367.633 197.721 366.783 197.721 365.701C197.721 364.635 197.949 363.799 198.406 363.193C198.863 362.584 199.486 362.279 200.275 362.279C200.67 362.279 201.018 362.365 201.318 362.537C201.619 362.705 201.855 362.951 202.027 363.275ZM198.857 365.725C198.857 366.561 198.99 367.191 199.256 367.617C199.521 368.043 199.914 368.256 200.434 368.256C200.953 368.256 201.348 368.041 201.617 367.611C201.891 367.182 202.027 366.553 202.027 365.725C202.027 364.893 201.891 364.264 201.617 363.838C201.348 363.408 200.953 363.193 200.434 363.193C199.914 363.193 199.521 363.406 199.256 363.832C198.99 364.258 198.857 364.889 198.857 365.725ZM210.459 359.883V360.779H209.234C208.848 360.779 208.578 360.859 208.426 361.02C208.277 361.176 208.203 361.455 208.203 361.857V362.438H210.459V363.275H208.203V369H207.125V363.275H205.373V362.438H207.125V361.98C207.125 361.262 207.289 360.732 207.617 360.393C207.949 360.053 208.465 359.883 209.164 359.883H210.459ZM219.207 366.07H225.4V367.061H219.207V366.07ZM219.207 363.311H225.4V364.301H219.207V363.311ZM238.18 363.275V359.883H239.258V369H238.18V368.174C238 368.498 237.76 368.746 237.459 368.918C237.162 369.086 236.818 369.17 236.428 369.17C235.635 369.17 235.01 368.863 234.553 368.25C234.1 367.633 233.873 366.783 233.873 365.701C233.873 364.635 234.102 363.799 234.559 363.193C235.016 362.584 235.639 362.279 236.428 362.279C236.822 362.279 237.17 362.365 237.471 362.537C237.771 362.705 238.008 362.951 238.18 363.275ZM235.01 365.725C235.01 366.561 235.143 367.191 235.408 367.617C235.674 368.043 236.066 368.256 236.586 368.256C237.105 368.256 237.5 368.041 237.77 367.611C238.043 367.182 238.18 366.553 238.18 365.725C238.18 364.893 238.043 364.264 237.77 363.838C237.5 363.408 237.105 363.193 236.586 363.193C236.066 363.193 235.674 363.406 235.408 363.832C235.143 364.258 235.01 364.889 235.01 365.725ZM246.611 359.883V360.779H245.387C245 360.779 244.73 360.859 244.578 361.02C244.43 361.176 244.355 361.455 244.355 361.857V362.438H246.611V363.275H244.355V369H243.277V363.275H241.525V362.438H243.277V361.98C243.277 361.262 243.441 360.732 243.77 360.393C244.102 360.053 244.617 359.883 245.316 359.883H246.611ZM249.893 366.633H251.955V369H249.893V366.633ZM258.957 365.701H258.6C257.971 365.701 257.496 365.812 257.176 366.035C256.859 366.254 256.701 366.582 256.701 367.02C256.701 367.414 256.82 367.721 257.059 367.939C257.297 368.158 257.627 368.268 258.049 368.268C258.643 368.268 259.109 368.062 259.449 367.652C259.789 367.238 259.961 366.668 259.965 365.941V365.701H258.957ZM261.049 365.256V369H259.965V368.027C259.734 368.418 259.443 368.707 259.092 368.895C258.744 369.078 258.32 369.17 257.82 369.17C257.152 369.17 256.619 368.982 256.221 368.607C255.822 368.229 255.623 367.723 255.623 367.09C255.623 366.359 255.867 365.805 256.355 365.426C256.848 365.047 257.568 364.857 258.518 364.857H259.965V364.688C259.961 364.164 259.828 363.785 259.566 363.551C259.305 363.312 258.887 363.193 258.312 363.193C257.945 363.193 257.574 363.246 257.199 363.352C256.824 363.457 256.459 363.611 256.104 363.814V362.736C256.502 362.584 256.883 362.471 257.246 362.396C257.613 362.318 257.969 362.279 258.312 362.279C258.855 362.279 259.318 362.359 259.701 362.52C260.088 362.68 260.4 362.92 260.639 363.24C260.787 363.436 260.893 363.678 260.955 363.967C261.018 364.252 261.049 364.682 261.049 365.256ZM267.775 362.666V363.721C267.467 363.541 267.156 363.406 266.844 363.316C266.531 363.227 266.213 363.182 265.889 363.182C265.4 363.182 265.035 363.262 264.793 363.422C264.555 363.578 264.436 363.818 264.436 364.143C264.436 364.436 264.525 364.654 264.705 364.799C264.885 364.943 265.332 365.084 266.047 365.221L266.48 365.303C267.016 365.404 267.42 365.607 267.693 365.912C267.971 366.217 268.109 366.613 268.109 367.102C268.109 367.75 267.879 368.258 267.418 368.625C266.957 368.988 266.316 369.17 265.496 369.17C265.172 369.17 264.832 369.135 264.477 369.064C264.121 368.998 263.736 368.896 263.322 368.76V367.646C263.725 367.854 264.109 368.01 264.477 368.115C264.844 368.217 265.191 368.268 265.52 368.268C265.996 368.268 266.365 368.172 266.627 367.98C266.889 367.785 267.02 367.514 267.02 367.166C267.02 366.666 266.541 366.32 265.584 366.129L265.537 366.117L265.133 366.035C264.512 365.914 264.059 365.711 263.773 365.426C263.488 365.137 263.346 364.744 263.346 364.248C263.346 363.619 263.559 363.135 263.984 362.795C264.41 362.451 265.018 362.279 265.807 362.279C266.158 362.279 266.496 362.312 266.82 362.379C267.145 362.441 267.463 362.537 267.775 362.666ZM272.902 360.574V362.438H275.352V363.275H272.902V366.838C272.902 367.322 272.994 367.66 273.178 367.852C273.361 368.043 273.682 368.139 274.139 368.139H275.352V369H274.033C273.225 369 272.654 368.838 272.322 368.514C271.99 368.189 271.824 367.631 271.824 366.838V363.275H270.072V362.438H271.824V360.574H272.902ZM281.562 366.891C281.383 367.348 281.154 367.949 280.877 368.695C280.49 369.727 280.23 370.355 280.098 370.582C279.918 370.887 279.693 371.115 279.424 371.268C279.154 371.42 278.84 371.496 278.48 371.496H277.613V370.594H278.252C278.568 370.594 278.816 370.502 278.996 370.318C279.176 370.135 279.404 369.66 279.682 368.895L277.145 362.438H278.287L280.232 367.57L282.148 362.438H283.291L281.562 366.891ZM285.963 368.174V371.496H284.879V362.438H285.963V363.275C286.143 362.951 286.381 362.705 286.678 362.537C286.979 362.365 287.324 362.279 287.715 362.279C288.508 362.279 289.129 362.586 289.578 363.199C290.031 363.812 290.258 364.662 290.258 365.748C290.258 366.814 290.031 367.652 289.578 368.262C289.125 368.867 288.504 369.17 287.715 369.17C287.316 369.17 286.967 369.086 286.666 368.918C286.369 368.746 286.135 368.498 285.963 368.174ZM289.127 365.725C289.127 364.889 288.994 364.258 288.729 363.832C288.467 363.406 288.076 363.193 287.557 363.193C287.033 363.193 286.637 363.408 286.367 363.838C286.098 364.264 285.963 364.893 285.963 365.725C285.963 366.553 286.098 367.182 286.367 367.611C286.637 368.041 287.033 368.256 287.557 368.256C288.076 368.256 288.467 368.043 288.729 367.617C288.994 367.191 289.127 366.561 289.127 365.725ZM297.559 365.18V365.707H292.889V365.742C292.857 366.637 293.027 367.279 293.398 367.67C293.773 368.061 294.301 368.256 294.98 368.256C295.324 368.256 295.684 368.201 296.059 368.092C296.434 367.982 296.834 367.816 297.26 367.594V368.666C296.85 368.834 296.453 368.959 296.07 369.041C295.691 369.127 295.324 369.17 294.969 369.17C293.949 369.17 293.152 368.865 292.578 368.256C292.004 367.643 291.717 366.799 291.717 365.725C291.717 364.678 291.998 363.842 292.561 363.217C293.123 362.592 293.873 362.279 294.811 362.279C295.646 362.279 296.305 362.562 296.785 363.129C297.27 363.695 297.527 364.379 297.559 365.18ZM296.48 364.863C296.434 364.41 296.268 364.02 295.982 363.691C295.701 363.359 295.295 363.193 294.764 363.193C294.244 363.193 293.816 363.365 293.48 363.709C293.145 364.053 292.961 364.439 292.93 364.869L296.48 364.863ZM303.236 359.309C302.717 360.199 302.328 361.088 302.07 361.975C301.816 362.857 301.689 363.748 301.689 364.646C301.689 365.541 301.816 366.432 302.07 367.318C302.328 368.205 302.717 369.098 303.236 369.996H302.299C301.709 369.066 301.27 368.162 300.98 367.283C300.691 366.4 300.547 365.521 300.547 364.646C300.547 363.775 300.691 362.898 300.98 362.016C301.27 361.133 301.709 360.23 302.299 359.309H303.236ZM311.504 369.299V370.143H311.129C310.156 370.143 309.504 369.998 309.172 369.709C308.844 369.42 308.68 368.844 308.68 367.98V366.809C308.68 366.383 308.559 366.016 308.316 365.707C308.078 365.398 307.707 365.244 307.203 365.244H306.488V364.406H307.203C307.754 364.406 308.137 364.275 308.352 364.014C308.57 363.752 308.68 363.367 308.68 362.859V361.336C308.68 360.473 308.844 359.898 309.172 359.613C309.504 359.324 310.156 359.18 311.129 359.18H311.504V360.018H311.094C310.547 360.018 310.189 360.104 310.021 360.275C309.857 360.443 309.775 360.805 309.775 361.359V362.93C309.775 363.617 309.641 364.08 309.371 364.318C309.102 364.553 308.576 364.723 307.795 364.828C308.553 364.918 309.072 365.092 309.354 365.35C309.635 365.604 309.775 366.064 309.775 366.732V367.957C309.775 368.516 309.857 368.879 310.021 369.047C310.189 369.215 310.547 369.299 311.094 369.299H311.504ZM437.299 369.299C437.846 369.299 438.201 369.215 438.365 369.047C438.533 368.879 438.617 368.516 438.617 367.957V366.732C438.617 366.064 438.758 365.604 439.039 365.35C439.32 365.092 439.84 364.918 440.598 364.828C439.816 364.723 439.291 364.553 439.021 364.318C438.752 364.08 438.617 363.617 438.617 362.93V361.359C438.617 360.805 438.533 360.443 438.365 360.275C438.201 360.104 437.846 360.018 437.299 360.018H436.889V359.18H437.264C438.236 359.18 438.887 359.324 439.215 359.613C439.547 359.898 439.713 360.473 439.713 361.336V362.859C439.713 363.367 439.82 363.752 440.035 364.014C440.254 364.275 440.639 364.406 441.189 364.406H441.904V365.244H441.189C440.686 365.244 440.312 365.398 440.07 365.707C439.832 366.016 439.713 366.383 439.713 366.809V367.98C439.713 368.844 439.547 369.42 439.215 369.709C438.887 369.998 438.236 370.143 437.264 370.143H436.889V369.299H437.299Z" fill="#E7E7E7"/>
<path d="M317.035 359.871V363.521H315.723V359.871H317.035ZM324.945 363.275V359.883H326.023V369H324.945V368.174C324.766 368.498 324.525 368.746 324.225 368.918C323.928 369.086 323.584 369.17 323.193 369.17C322.4 369.17 321.775 368.863 321.318 368.25C320.865 367.633 320.639 366.783 320.639 365.701C320.639 364.635 320.867 363.799 321.324 363.193C321.781 362.584 322.404 362.279 323.193 362.279C323.588 362.279 323.936 362.365 324.236 362.537C324.537 362.705 324.773 362.951 324.945 363.275ZM321.775 365.725C321.775 366.561 321.908 367.191 322.174 367.617C322.439 368.043 322.832 368.256 323.352 368.256C323.871 368.256 324.266 368.041 324.535 367.611C324.809 367.182 324.945 366.553 324.945 365.725C324.945 364.893 324.809 364.264 324.535 363.838C324.266 363.408 323.871 363.193 323.352 363.193C322.832 363.193 322.439 363.406 322.174 363.832C321.908 364.258 321.775 364.889 321.775 365.725ZM331.262 365.701H330.904C330.275 365.701 329.801 365.812 329.48 366.035C329.164 366.254 329.006 366.582 329.006 367.02C329.006 367.414 329.125 367.721 329.363 367.939C329.602 368.158 329.932 368.268 330.354 368.268C330.947 368.268 331.414 368.062 331.754 367.652C332.094 367.238 332.266 366.668 332.27 365.941V365.701H331.262ZM333.354 365.256V369H332.27V368.027C332.039 368.418 331.748 368.707 331.396 368.895C331.049 369.078 330.625 369.17 330.125 369.17C329.457 369.17 328.924 368.982 328.525 368.607C328.127 368.229 327.928 367.723 327.928 367.09C327.928 366.359 328.172 365.805 328.66 365.426C329.152 365.047 329.873 364.857 330.822 364.857H332.27V364.688C332.266 364.164 332.133 363.785 331.871 363.551C331.609 363.312 331.191 363.193 330.617 363.193C330.25 363.193 329.879 363.246 329.504 363.352C329.129 363.457 328.764 363.611 328.408 363.814V362.736C328.807 362.584 329.188 362.471 329.551 362.396C329.918 362.318 330.273 362.279 330.617 362.279C331.16 362.279 331.623 362.359 332.006 362.52C332.393 362.68 332.705 362.92 332.943 363.24C333.092 363.436 333.197 363.678 333.26 363.967C333.322 364.252 333.354 364.682 333.354 365.256ZM337.977 360.574V362.438H340.426V363.275H337.977V366.838C337.977 367.322 338.068 367.66 338.252 367.852C338.436 368.043 338.756 368.139 339.213 368.139H340.426V369H339.107C338.299 369 337.729 368.838 337.396 368.514C337.064 368.189 336.898 367.631 336.898 366.838V363.275H335.146V362.438H336.898V360.574H337.977ZM345.723 365.701H345.365C344.736 365.701 344.262 365.812 343.941 366.035C343.625 366.254 343.467 366.582 343.467 367.02C343.467 367.414 343.586 367.721 343.824 367.939C344.062 368.158 344.393 368.268 344.814 368.268C345.408 368.268 345.875 368.062 346.215 367.652C346.555 367.238 346.727 366.668 346.73 365.941V365.701H345.723ZM347.814 365.256V369H346.73V368.027C346.5 368.418 346.209 368.707 345.857 368.895C345.51 369.078 345.086 369.17 344.586 369.17C343.918 369.17 343.385 368.982 342.986 368.607C342.588 368.229 342.389 367.723 342.389 367.09C342.389 366.359 342.633 365.805 343.121 365.426C343.613 365.047 344.334 364.857 345.283 364.857H346.73V364.688C346.727 364.164 346.594 363.785 346.332 363.551C346.07 363.312 345.652 363.193 345.078 363.193C344.711 363.193 344.34 363.246 343.965 363.352C343.59 363.457 343.225 363.611 342.869 363.814V362.736C343.268 362.584 343.648 362.471 344.012 362.396C344.379 362.318 344.734 362.279 345.078 362.279C345.621 362.279 346.084 362.359 346.467 362.52C346.854 362.68 347.166 362.92 347.404 363.24C347.553 363.436 347.658 363.678 347.721 363.967C347.783 364.252 347.814 364.682 347.814 365.256ZM356.012 370.113V371.109H348.84V370.113H356.012ZM357.652 368.01H359.492V361.4L357.289 362.461V361.324L359.48 360.281H360.664V368.01H362.48V369H357.652V368.01ZM367.648 359.871V363.521H366.336V359.871H367.648ZM382.109 359.871V363.521H380.797V359.871H382.109ZM388.602 363.193C388.055 363.193 387.641 363.406 387.359 363.832C387.078 364.258 386.938 364.889 386.938 365.725C386.938 366.557 387.078 367.188 387.359 367.617C387.641 368.043 388.055 368.256 388.602 368.256C389.152 368.256 389.568 368.043 389.85 367.617C390.131 367.188 390.271 366.557 390.271 365.725C390.271 364.889 390.131 364.258 389.85 363.832C389.568 363.406 389.152 363.193 388.602 363.193ZM388.602 362.279C389.512 362.279 390.207 362.574 390.688 363.164C391.172 363.754 391.414 364.607 391.414 365.725C391.414 366.846 391.174 367.701 390.693 368.291C390.213 368.877 389.516 369.17 388.602 369.17C387.691 369.17 386.996 368.877 386.516 368.291C386.035 367.701 385.795 366.846 385.795 365.725C385.795 364.607 386.035 363.754 386.516 363.164C386.996 362.574 387.691 362.279 388.602 362.279ZM397.602 365.725C397.602 364.889 397.469 364.258 397.203 363.832C396.938 363.406 396.545 363.193 396.025 363.193C395.502 363.193 395.105 363.408 394.836 363.838C394.566 364.264 394.432 364.893 394.432 365.725C394.432 366.553 394.566 367.182 394.836 367.611C395.105 368.041 395.502 368.256 396.025 368.256C396.545 368.256 396.938 368.043 397.203 367.617C397.469 367.191 397.602 366.561 397.602 365.725ZM394.432 363.275C394.604 362.955 394.84 362.709 395.141 362.537C395.445 362.365 395.797 362.279 396.195 362.279C396.984 362.279 397.605 362.584 398.059 363.193C398.512 363.799 398.738 364.635 398.738 365.701C398.738 366.783 398.51 367.633 398.053 368.25C397.6 368.863 396.977 369.17 396.184 369.17C395.793 369.17 395.447 369.086 395.146 368.918C394.85 368.746 394.611 368.498 394.432 368.174V369H393.354V359.883H394.432V363.275ZM402.969 369.117V363.275H401.111V362.438H404.047V369.117C404.047 369.879 403.871 370.465 403.52 370.875C403.172 371.289 402.676 371.496 402.031 371.496H400.543V370.582H401.914C402.266 370.582 402.529 370.459 402.705 370.213C402.881 369.971 402.969 369.605 402.969 369.117ZM402.969 359.883H404.047V361.248H402.969V359.883ZM413.246 365.18V365.707H408.576V365.742C408.545 366.637 408.715 367.279 409.086 367.67C409.461 368.061 409.988 368.256 410.668 368.256C411.012 368.256 411.371 368.201 411.746 368.092C412.121 367.982 412.521 367.816 412.947 367.594V368.666C412.537 368.834 412.141 368.959 411.758 369.041C411.379 369.127 411.012 369.17 410.656 369.17C409.637 369.17 408.84 368.865 408.266 368.256C407.691 367.643 407.404 366.799 407.404 365.725C407.404 364.678 407.686 363.842 408.248 363.217C408.811 362.592 409.561 362.279 410.498 362.279C411.334 362.279 411.992 362.562 412.473 363.129C412.957 363.695 413.215 364.379 413.246 365.18ZM412.168 364.863C412.121 364.41 411.955 364.02 411.67 363.691C411.389 363.359 410.982 363.193 410.451 363.193C409.932 363.193 409.504 363.365 409.168 363.709C408.832 364.053 408.648 364.439 408.617 364.869L412.168 364.863ZM420.131 368.666C419.842 368.834 419.543 368.959 419.234 369.041C418.93 369.127 418.617 369.17 418.297 369.17C417.281 369.17 416.486 368.865 415.912 368.256C415.342 367.646 415.057 366.803 415.057 365.725C415.057 364.646 415.342 363.803 415.912 363.193C416.486 362.584 417.281 362.279 418.297 362.279C418.613 362.279 418.922 362.32 419.223 362.402C419.523 362.484 419.826 362.611 420.131 362.783V363.914C419.846 363.66 419.559 363.477 419.27 363.363C418.984 363.25 418.66 363.193 418.297 363.193C417.621 363.193 417.102 363.412 416.738 363.85C416.375 364.287 416.193 364.912 416.193 365.725C416.193 366.533 416.375 367.158 416.738 367.6C417.105 368.037 417.625 368.256 418.297 368.256C418.672 368.256 419.008 368.199 419.305 368.086C419.602 367.969 419.877 367.789 420.131 367.547V368.666ZM424.742 360.574V362.438H427.191V363.275H424.742V366.838C424.742 367.322 424.834 367.66 425.018 367.852C425.201 368.043 425.521 368.139 425.979 368.139H427.191V369H425.873C425.064 369 424.494 368.838 424.162 368.514C423.83 368.189 423.664 367.631 423.664 366.838V363.275H421.912V362.438H423.664V360.574H424.742ZM432.723 359.871V363.521H431.41V359.871H432.723Z" fill="#E8825D"/>
<path d="M373.045 362.443H374.873V364.559H373.045V362.443ZM373.045 366.867H374.873V369H373.045V366.867Z" fill="#606060"/>
<path d="M444.875 359.309H445.812C446.402 360.23 446.842 361.133 447.131 362.016C447.42 362.898 447.564 363.775 447.564 364.646C447.564 365.525 447.42 366.406 447.131 367.289C446.842 368.172 446.402 369.074 445.812 369.996H444.875C445.395 369.09 445.781 368.193 446.035 367.307C446.293 366.42 446.422 365.533 446.422 364.646C446.422 363.756 446.293 362.867 446.035 361.98C445.781 361.094 445.395 360.203 444.875 359.309Z" fill="white"/>
<path d="M174 369.227C171.76 369.227 169.707 368.698 167.84 367.64C165.973 366.52 164.48 365.027 163.36 363.16C162.302 361.293 161.773 359.24 161.773 357C161.773 354.76 162.302 352.707 163.36 350.84C164.48 348.973 165.973 347.511 167.84 346.453C169.707 345.333 171.76 344.773 174 344.773C176.24 344.773 178.293 345.333 180.16 346.453C182.027 347.511 183.489 348.973 184.547 350.84C185.667 352.707 186.227 354.76 186.227 357C186.227 359.24 185.667 361.293 184.547 363.16C183.489 365.027 182.027 366.52 180.16 367.64C178.293 368.698 176.24 369.227 174 369.227ZM172.227 362.04L180.16 354.013L178.947 352.8L171.573 360.173L168.213 356.813L167 358.027L171.013 362.04H172.227Z" fill="#73C991"/>
<defs>
<filter id="filter0_d_1202_420095" x="0" y="20" width="208" height="353" filterUnits="userSpaceOnUse" color-interpolation-filters="sRGB">
<feFlood flood-opacity="0" result="BackgroundImageFix"/>
<feColorMatrix in="SourceAlpha" type="matrix" values="0 0 0 0 0 0 0 0 0 0 0 0 0 0 0 0 0 0 127 0" result="hardAlpha"/>
<feOffset dy="2"/>
<feGaussianBlur stdDeviation="4"/>
<feColorMatrix type="matrix" values="0 0 0 0 0 0 0 0 0 0 0 0 0 0 0 0 0 0 0.4 0"/>
<feBlend mode="normal" in2="BackgroundImageFix" result="effect1_dropShadow_1202_420095"/>
<feBlend mode="normal" in="SourceGraphic" in2="effect1_dropShadow_1202_420095" result="shape"/>
</filter>
<filter id="filter1_d_1202_420095" x="136" y="0" width="411" height="350" filterUnits="userSpaceOnUse" color-interpolation-filters="sRGB">
<feFlood flood-opacity="0" result="BackgroundImageFix"/>
<feColorMatrix in="SourceAlpha" type="matrix" values="0 0 0 0 0 0 0 0 0 0 0 0 0 0 0 0 0 0 127 0" result="hardAlpha"/>
<feOffset dy="2"/>
<feGaussianBlur stdDeviation="8"/>
<feColorMatrix type="matrix" values="0 0 0 0 0 0 0 0 0 0 0 0 0 0 0 0 0 0 0.36 0"/>
<feBlend mode="normal" in2="BackgroundImageFix" result="effect1_dropShadow_1202_420095"/>
<feBlend mode="normal" in="SourceGraphic" in2="effect1_dropShadow_1202_420095" result="shape"/>
</filter>
<clipPath id="clip0_1202_420095">
<rect width="210" height="35" fill="white" transform="translate(152 14)"/>
</clipPath>
<clipPath id="clip1_1202_420095">
<rect width="87" height="35" fill="white" transform="translate(152 14)"/>
</clipPath>
<clipPath id="clip2_1202_420095">
<rect width="16" height="16" fill="white" transform="translate(252 23.5)"/>
</clipPath>
<clipPath id="clip3_1202_420095">
<rect width="16" height="16" fill="white" transform="translate(252 23.4355)"/>
</clipPath>
</defs>
</svg>
