<svg width="553" height="389" viewBox="0 0 553 389" fill="none" xmlns="http://www.w3.org/2000/svg">
<g filter="url(#filter0_d_1202_421444)">
<rect width="192" height="337" transform="translate(8 26)" fill="white"/>
<path d="M24.8053 48.1875H27.1232C29.0274 48.1875 30.1441 49.362 30.1441 51.3819C30.1441 53.424 29.0363 54.6074 27.1232 54.6074H24.8053V48.1875ZM25.8019 49.0461V53.7488H27.012C28.3556 53.7488 29.1297 52.8901 29.1297 51.3952C29.1297 49.9137 28.3423 49.0461 27.012 49.0461H25.8019ZM35.3495 54.6074L34.7622 52.8723H32.3152L31.7235 54.6074H30.7002L33.0182 48.1875H34.0904L36.4084 54.6074H35.3495ZM33.5031 49.322L32.5688 52.0715H34.5086L33.5788 49.322H33.5031ZM39.4159 54.6074H38.4193V49.0461H36.3995V48.1875H41.4313V49.0461H39.4159V54.6074ZM46.0717 54.6074L45.4844 52.8723H43.0374L42.4457 54.6074H41.4224L43.7404 48.1875H44.8126L47.1305 54.6074H46.0717ZM44.2253 49.322L43.291 52.0715H45.2308L44.301 49.322H44.2253ZM54.3825 49.8069L53.0077 54.6074H52.0645L50.3338 48.1875H51.3705L52.5495 53.1793H52.6118L53.9509 48.1875H54.8763L56.2244 53.1793H56.2867L57.4612 48.1875H58.4978L56.7627 54.6074H55.824L54.4448 49.8069H54.3825ZM60.7001 52.1382V54.6074H59.7035V48.1875H62.2439C63.5386 48.1875 64.3706 48.9527 64.3706 50.1495C64.3706 51.017 63.9079 51.72 63.1248 51.9825L64.5663 54.6074H63.414L62.106 52.1382H60.7001ZM60.7001 49.0239V51.3196H62.1327C62.9024 51.3196 63.3473 50.9058 63.3473 50.1717C63.3473 49.4554 62.8757 49.0239 62.106 49.0239H60.7001ZM69.9452 54.6074L69.3579 52.8723H66.911L66.3192 54.6074H65.296L67.6139 48.1875H68.6861L71.0041 54.6074H69.9452ZM68.0988 49.322L67.1645 52.0715H69.1043L68.1745 49.322H68.0988ZM73.0951 54.6074H72.1252V48.1875H73.0239L76.3207 52.859H76.3918V48.1875H77.3617V54.6074H76.463L73.1663 49.9448H73.0951V54.6074ZM84.4535 52.0804C84.4535 53.7087 83.3635 54.7631 81.6818 54.7631C79.8621 54.7631 78.7142 53.464 78.7142 51.3952C78.7142 49.3531 79.8754 48.0317 81.6729 48.0317C83.1321 48.0317 84.191 48.8504 84.409 50.145H83.408C83.1588 49.3487 82.5493 48.9171 81.6729 48.9171C80.485 48.9171 79.7331 49.8736 79.7331 51.3908C79.7331 52.9301 80.4894 53.8778 81.6951 53.8778C82.7451 53.8778 83.4658 53.2149 83.4747 52.2316V52.0893H81.8197V51.284H84.4535V52.0804ZM89.8324 53.7399V54.6074H85.8283V48.1875H86.8248V53.7399H89.8324ZM95.1712 53.7488V54.6074H91.0959V48.1875H95.1712V49.0461H92.0925V50.9236H95.0066V51.7511H92.0925V53.7488H95.1712ZM97.6093 52.1382V54.6074H96.6127V48.1875H99.1531C100.448 48.1875 101.28 48.9527 101.28 50.1495C101.28 51.017 100.817 51.72 100.034 51.9825L101.476 54.6074H100.323L99.0152 52.1382H97.6093ZM97.6093 49.0239V51.3196H99.0419C99.8116 51.3196 100.256 50.9058 100.256 50.1717C100.256 49.4554 99.7849 49.0239 99.0152 49.0239H97.6093Z" fill="#CCCCCC"/>
<path d="M30 79.08L34.32 74.7067L34.96 75.3467L30.2667 79.9867H29.68L24.9867 75.3467L25.6267 74.7067L30 79.08Z" fill="#808080"/>
<path d="M49.542 73.4961C51.4097 73.4961 52.5918 74.7749 52.5918 76.8271C52.5918 78.8794 51.4141 80.1626 49.542 80.1626C47.6567 80.1626 46.4878 78.8794 46.4878 76.8271C46.4878 74.7705 47.6743 73.4961 49.542 73.4961ZM49.542 74.6211C48.5093 74.6211 47.8457 75.478 47.8457 76.8271C47.8457 78.1719 48.4961 79.0376 49.542 79.0376C50.5747 79.0376 51.2339 78.1719 51.2339 76.8271C51.2339 75.478 50.5703 74.6211 49.542 74.6211ZM53.853 73.6587H56.4985C57.8037 73.6587 58.6958 74.5288 58.6958 75.8384C58.6958 77.1304 57.7686 78.0005 56.4326 78.0005H55.1802V80H53.853V73.6587ZM55.1802 74.7134V76.959H56.1426C56.9028 76.959 57.3467 76.5635 57.3467 75.8428C57.3467 75.1045 56.9116 74.7134 56.147 74.7134H55.1802ZM64.1187 78.9058V80H59.9175V73.6587H64.1187V74.7529H61.2446V76.2822H63.9561V77.3018H61.2446V78.9058H64.1187ZM66.8433 77.6797V80H65.5161V73.6587H68.1792C69.5723 73.6587 70.4292 74.4277 70.4292 75.6802C70.4292 76.4932 70.0073 77.1963 69.2778 77.4819L70.6138 80H69.1108L67.9287 77.6797H66.8433ZM66.8433 74.6958V76.6909H68.0078C68.6758 76.6909 69.0669 76.3262 69.0669 75.6978C69.0669 75.0825 68.6538 74.6958 67.9946 74.6958H66.8433ZM75.8389 80L75.3599 78.4619H73.1318L72.644 80H71.3125L73.5142 73.6587H75.0742L77.2759 80H75.8389ZM74.2129 74.9463L73.4175 77.4688H75.0786L74.292 74.9463H74.2129ZM80.5366 80H79.2095V74.7529H77.3066V73.6587H82.4395V74.7529H80.5366V80ZM84.9399 80H83.6128V73.6587H84.9399V80ZM89.251 73.4961C91.1187 73.4961 92.3008 74.7749 92.3008 76.8271C92.3008 78.8794 91.123 80.1626 89.251 80.1626C87.3657 80.1626 86.1968 78.8794 86.1968 76.8271C86.1968 74.7705 87.3833 73.4961 89.251 73.4961ZM89.251 74.6211C88.2183 74.6211 87.5547 75.478 87.5547 76.8271C87.5547 78.1719 88.2051 79.0376 89.251 79.0376C90.2837 79.0376 90.9429 78.1719 90.9429 76.8271C90.9429 75.478 90.2793 74.6211 89.251 74.6211ZM94.832 80H93.562V73.6587H94.6694L97.5874 77.6973H97.6665V73.6587H98.9365V80H97.8379L94.9111 75.9438H94.832V80ZM100.193 78.2466H101.477C101.538 78.7739 102.057 79.1123 102.804 79.1123C103.494 79.1123 103.981 78.7651 103.981 78.2729C103.981 77.8555 103.665 77.6138 102.887 77.4424L102.061 77.2622C100.905 77.0161 100.338 76.4229 100.338 75.4604C100.338 74.2783 101.301 73.4961 102.764 73.4961C104.162 73.4961 105.15 74.2739 105.19 75.3945H103.942C103.88 74.876 103.415 74.5376 102.773 74.5376C102.109 74.5376 101.67 74.8584 101.67 75.355C101.67 75.7549 101.973 75.9878 102.716 76.1504L103.48 76.313C104.755 76.5854 105.304 77.1348 105.304 78.1147C105.304 79.3804 104.324 80.1626 102.733 80.1626C101.222 80.1626 100.242 79.4199 100.193 78.2466Z" fill="#A0A0A0"/>
<path d="M25 96C22.7909 96 21 97.7909 21 100C21 102.209 22.7909 104 25 104C25.9242 104 26.7751 103.687 27.4524 103.16L30.1455 105.853C30.3408 106.049 30.6574 106.049 30.8526 105.853C31.0479 105.658 31.0479 105.342 30.8526 105.146L28.1596 102.453C28.6863 101.776 29 100.925 29 100C29 97.7909 27.2091 96 25 96ZM22 100C22 98.3431 23.3431 97 25 97C26.6569 97 28 98.3431 28 100C28 101.657 26.6569 103 25 103C23.3431 103 22 101.657 22 100Z" fill="#3794FF"/>
<rect x="38.5" y="91.5" width="124" height="19" rx="3.5" stroke="#3794FF"/>
<rect x="20" y="121.5" width="98" height="7" rx="3.5" fill="#BBBBBB"/>
<rect x="20" y="145.5" width="70" height="7" rx="3.5" fill="#BBBBBB"/>
<path d="M30 175.08L34.32 170.707L34.96 171.347L30.2667 175.987H29.68L24.9867 171.347L25.6267 170.707L30 175.08Z" fill="#808080"/>
<path d="M46.4834 174.247H47.7666C47.8281 174.774 48.3467 175.112 49.0938 175.112C49.7837 175.112 50.2715 174.765 50.2715 174.273C50.2715 173.855 49.9551 173.614 49.1772 173.442L48.3511 173.262C47.1953 173.016 46.6284 172.423 46.6284 171.46C46.6284 170.278 47.5908 169.496 49.0542 169.496C50.4517 169.496 51.4404 170.274 51.48 171.395H50.2319C50.1704 170.876 49.7046 170.538 49.063 170.538C48.3994 170.538 47.96 170.858 47.96 171.355C47.96 171.755 48.2632 171.988 49.0059 172.15L49.7705 172.313C51.0449 172.585 51.5942 173.135 51.5942 174.115C51.5942 175.38 50.6143 176.163 49.0234 176.163C47.5117 176.163 46.5317 175.42 46.4834 174.247ZM54.1738 169.659V173.684C54.1738 174.497 54.6572 175.024 55.5054 175.024C56.3535 175.024 56.8325 174.497 56.8325 173.684V169.659H58.1597V173.812C58.1597 175.213 57.127 176.163 55.5054 176.163C53.8838 176.163 52.8467 175.213 52.8467 173.812V169.659H54.1738ZM66.4126 176H65.1821V171.707H65.1118L63.499 175.688H62.6157L60.9985 171.707H60.9282V176H59.6978V169.659H61.2622L63.0156 174.031H63.0947L64.8525 169.659H66.4126V176ZM74.6655 176H73.4351V171.707H73.3647L71.752 175.688H70.8687L69.2515 171.707H69.1812V176H67.9507V169.659H69.5151L71.2686 174.031H71.3477L73.1055 169.659H74.6655V176ZM80.2773 176L79.7983 174.462H77.5703L77.0825 176H75.751L77.9526 169.659H79.5127L81.7144 176H80.2773ZM78.6514 170.946L77.856 173.469H79.5171L78.7305 170.946H78.6514ZM84.1226 173.68V176H82.7954V169.659H85.4585C86.8516 169.659 87.7085 170.428 87.7085 171.68C87.7085 172.493 87.2866 173.196 86.5571 173.482L87.8931 176H86.3901L85.208 173.68H84.1226ZM84.1226 170.696V172.691H85.2871C85.9551 172.691 86.3462 172.326 86.3462 171.698C86.3462 171.083 85.9331 170.696 85.2739 170.696H84.1226ZM91.9272 176H90.6001V173.631L88.3896 169.659H89.8267L91.2241 172.326H91.3032L92.6963 169.659H94.1333L91.9272 173.631V176Z" fill="#A0A0A0"/>
<rect x="20" y="193.5" width="59" height="7" rx="3.5" fill="#BBBBBB"/>
<rect x="108" y="193.5" width="46" height="7" rx="3.5" fill="#BBBBBB"/>
<rect x="20" y="217.5" width="52" height="7" rx="3.5" fill="#BBBBBB"/>
<rect x="93" y="217.5" width="61" height="7" rx="3.5" fill="#BBBBBB"/>
<rect x="20" y="241.5" width="47" height="7" rx="3.5" fill="#BBBBBB"/>
<rect x="120" y="241.5" width="34" height="7" rx="3.5" fill="#BBBBBB"/>
<path d="M32.08 269L27.7067 264.68L28.3467 264.04L32.9867 268.733V269.32L28.3467 274.013L27.7067 273.373L32.08 269Z" fill="#808080"/>
<path d="M49.4629 272.163C47.626 272.163 46.4878 270.888 46.4878 268.827C46.4878 266.766 47.6216 265.496 49.4629 265.496C50.9658 265.496 52.1172 266.48 52.2139 267.843H50.9219C50.7944 267.109 50.2188 266.625 49.4629 266.625C48.4653 266.625 47.8457 267.469 47.8457 268.827C47.8457 270.185 48.4653 271.029 49.4673 271.029C50.2275 271.029 50.7988 270.581 50.9263 269.882H52.2183C52.1084 271.235 50.9922 272.163 49.4629 272.163ZM57.5884 270.884V272H53.4399V265.659H54.7671V270.884H57.5884ZM62.9937 270.906V272H58.7925V265.659H62.9937V266.753H60.1196V268.282H62.8311V269.302H60.1196V270.906H62.9937ZM68.4648 272L67.9858 270.462H65.7578L65.27 272H63.9385L66.1401 265.659H67.7002L69.9019 272H68.4648ZM66.8389 266.946L66.0435 269.469H67.7046L66.918 266.946H66.8389ZM72.2529 272H70.9829V265.659H72.0903L75.0083 269.697H75.0874V265.659H76.3574V272H75.2588L72.332 267.944H72.2529V272ZM79.2271 272H77.8999V265.659H79.2271V272ZM82.0352 272H80.7651V265.659H81.8726L84.7905 269.697H84.8696V265.659H86.1396V272H85.041L82.1143 267.944H82.0352V272ZM93.2544 269.425C93.2544 271.108 92.1733 272.163 90.4419 272.163C88.5566 272.163 87.4009 270.893 87.4009 268.823C87.4009 266.784 88.5654 265.496 90.4111 265.496C91.9097 265.496 93.0127 266.353 93.1973 267.667H91.8789C91.6812 267.003 91.1494 266.625 90.4111 266.625C89.3872 266.625 88.7588 267.456 88.7588 268.81C88.7588 270.189 89.418 271.029 90.4639 271.029C91.334 271.029 91.936 270.497 91.9624 269.706L91.9668 269.587H90.5913V268.621H93.2544V269.425ZM96.5635 270.247H97.8467C97.9082 270.774 98.4268 271.112 99.1738 271.112C99.8638 271.112 100.352 270.765 100.352 270.273C100.352 269.855 100.035 269.614 99.2573 269.442L98.4312 269.262C97.2754 269.016 96.7085 268.423 96.7085 267.46C96.7085 266.278 97.6709 265.496 99.1343 265.496C100.532 265.496 101.521 266.274 101.56 267.395H100.312C100.25 266.876 99.7847 266.538 99.1431 266.538C98.4795 266.538 98.04 266.858 98.04 267.355C98.04 267.755 98.3433 267.988 99.0859 268.15L99.8506 268.313C101.125 268.585 101.674 269.135 101.674 270.115C101.674 271.38 100.694 272.163 99.1035 272.163C97.5918 272.163 96.6118 271.42 96.5635 270.247ZM105.796 272H104.469V266.753H102.566V265.659H107.699V266.753H105.796V272ZM113.074 270.906V272H108.873V265.659H113.074V266.753H110.2V268.282H112.911V269.302H110.2V270.906H113.074ZM114.471 265.659H117.117C118.422 265.659 119.314 266.529 119.314 267.838C119.314 269.13 118.387 270 117.051 270H115.798V272H114.471V265.659ZM115.798 266.713V268.959H116.761C117.521 268.959 117.965 268.563 117.965 267.843C117.965 267.104 117.53 266.713 116.765 266.713H115.798ZM120.25 270.247H121.533C121.595 270.774 122.113 271.112 122.86 271.112C123.55 271.112 124.038 270.765 124.038 270.273C124.038 269.855 123.722 269.614 122.944 269.442L122.118 269.262C120.962 269.016 120.395 268.423 120.395 267.46C120.395 266.278 121.357 265.496 122.821 265.496C124.218 265.496 125.207 266.274 125.247 267.395H123.999C123.937 266.876 123.471 266.538 122.83 266.538C122.166 266.538 121.727 266.858 121.727 267.355C121.727 267.755 122.03 267.988 122.772 268.15L123.537 268.313C124.812 268.585 125.361 269.135 125.361 270.115C125.361 271.38 124.381 272.163 122.79 272.163C121.278 272.163 120.298 271.42 120.25 270.247Z" fill="#A0A0A0"/>
</g>
<g filter="url(#filter1_d_1202_421444)">
<rect width="379" height="318" transform="translate(152 14)" fill="white"/>
<rect width="379" height="35" transform="translate(152 14)" fill="#F0F0F0"/>
<g clip-path="url(#clip0_1202_421444)">
<g clip-path="url(#clip1_1202_421444)">
<rect width="87" height="35" transform="translate(152 14)" fill="#F0F0F0"/>
<path fill-rule="evenodd" clip-rule="evenodd" d="M166 25.5L167 24.5H176L177 25.5V37.5L176 38.5H167L166 37.5V25.5ZM167 25.5V37.5H176V25.5H167ZM168 27.5L169 26.5H174L175 27.5V28.5L174 29.5H169L168 28.5V27.5ZM169 27.5V28.5H174V27.5H169ZM179 28.5H178V30.5H179V28.5ZM178 31.5H179V33.5H178V31.5ZM179 34.5H178V36.5H179V34.5Z" fill="#CCCCCC"/>
<rect x="184" y="28" width="43" height="7" rx="3.5" fill="#CCCCCC"/>
</g>
<rect width="122" height="35" transform="translate(240 14)" fill="white"/>
<g clip-path="url(#clip2_1202_421444)">
<g clip-path="url(#clip3_1202_421444)">
<path d="M265.5 39.4358C265.372 39.4358 265.244 39.3868 265.146 39.2898C264.951 39.0947 264.951 38.7778 265.146 38.5828L266.792 36.9368L265.146 35.2907C264.951 35.0957 264.951 34.7788 265.146 34.5837C265.341 34.3888 265.658 34.3888 265.853 34.5837L267.853 36.5838C268.048 36.7787 268.048 37.0957 267.853 37.2907L265.853 39.2907C265.755 39.3887 265.627 39.4367 265.499 39.4367L265.5 39.4358Z" fill="#0078D4"/>
<path d="M262.5 39.4358C262.372 39.4358 262.244 39.3868 262.146 39.2898C261.951 39.0947 261.951 38.7778 262.146 38.5828L263.792 36.9368L262.146 35.2907C261.951 35.0957 261.951 34.7788 262.146 34.5837C262.341 34.3888 262.658 34.3888 262.853 34.5837L264.853 36.5838C265.048 36.7787 265.048 37.0957 264.853 37.2907L262.853 39.2907C262.755 39.3887 262.627 39.4367 262.499 39.4367L262.5 39.4358Z" fill="#0078D4"/>
<path d="M259.5 39.4358C259.372 39.4358 259.244 39.3868 259.146 39.2898C258.951 39.0947 258.951 38.7778 259.146 38.5828L260.792 36.9368L259.146 35.2907C258.951 35.0957 258.951 34.7788 259.146 34.5837C259.341 34.3888 259.658 34.3888 259.853 34.5837L261.853 36.5838C262.048 36.7787 262.048 37.0957 261.853 37.2907L259.853 39.2907C259.755 39.3887 259.627 39.4367 259.499 39.4367L259.5 39.4358Z" fill="#0078D4"/>
<path d="M258 34.9355C258 34.7615 258.035 34.5945 258.091 34.4355H256.694L256.254 36.3955C256.254 36.4005 256.251 36.4085 256.249 36.4155C256.247 36.4235 256.244 36.4305 256.244 36.4355H258.878L258.439 35.9965C258.156 35.7135 258 35.3365 258 34.9355ZM253.204 31.4355L252.764 33.3955C252.764 33.4005 252.761 33.4085 252.759 33.4155C252.756 33.4235 252.754 33.4305 252.754 33.4355H255.894L256.344 31.4355H253.204ZM266.695 27.3705C266.218 26.7765 265.507 26.4355 264.746 26.4355H256.342C255.161 26.4355 254.157 27.2405 253.902 28.3925L253.447 30.4355H257.615L256.948 33.4355H265.5C265.772 33.4355 266.031 33.5125 266.259 33.6475L267.186 29.4775C267.351 28.7335 267.172 27.9655 266.695 27.3705ZM254.695 29.4355L254.879 28.6095C255.032 27.9185 255.634 27.4355 256.343 27.4355H258.282L257.837 29.4355H254.695ZM261.337 32.4355H258.194L258.639 30.4355H261.781L261.337 32.4355ZM262.005 29.4355H258.863L259.308 27.4355H262.449L262.005 29.4355ZM265.503 32.4355H262.361L262.806 30.4355H265.949L265.503 32.4355ZM266.208 29.2615L266.17 29.4355H263.027L263.471 27.4355H264.743C265.2 27.4355 265.627 27.6405 265.913 27.9965C266.199 28.3535 266.307 28.8145 266.207 29.2615H266.208ZM253.255 35.4955C253.735 36.0955 254.445 36.4355 255.205 36.4355H255.225L255.455 35.4355L255.675 34.4355H252.765C252.835 34.8255 253.005 35.1855 253.255 35.4955Z" fill="#0078D4"/>
</g>
</g>
<rect x="272" y="28" width="78" height="7" rx="3.5" fill="#CCCCCC"/>
</g>
<rect x="201" y="108" width="24" height="8" rx="4" transform="rotate(-90 201 108)" fill="#3794FF"/>
<rect x="213" y="108" width="21" height="8" rx="4" transform="rotate(-90 213 108)" fill="#3794FF"/>
<rect x="225" y="108" width="18" height="8" rx="4" transform="rotate(-90 225 108)" fill="#3794FF"/>
<rect x="177" y="108" width="11" height="8" rx="4" transform="rotate(-90 177 108)" fill="#3794FF"/>
<rect x="189" y="108" width="16" height="8" rx="4" transform="rotate(-90 189 108)" fill="#3794FF"/>
<rect x="337" y="108" width="20" height="8" rx="4" transform="rotate(-90 337 108)" fill="#3794FF"/>
<rect x="349" y="108" width="24" height="8" rx="4" transform="rotate(-90 349 108)" fill="#3794FF"/>
<rect x="361" y="108" width="8" height="8" rx="4" transform="rotate(-90 361 108)" fill="#3794FF"/>
<rect x="313" y="108" width="8" height="8" rx="4" transform="rotate(-90 313 108)" fill="#3794FF"/>
<rect x="325" y="108" width="8" height="8" rx="4" transform="rotate(-90 325 108)" fill="#3794FF"/>
<rect x="397" y="92" width="24" height="8" rx="4" fill="#3794FF"/>
<rect x="473" y="108" width="20" height="8" rx="4" transform="rotate(-90 473 108)" fill="#3794FF"/>
<rect x="485" y="108" width="18" height="8" rx="4" transform="rotate(-90 485 108)" fill="#3794FF"/>
<rect x="497" y="108" width="16" height="8" rx="4" transform="rotate(-90 497 108)" fill="#3794FF"/>
<rect x="449" y="108" width="22" height="8" rx="4" transform="rotate(-90 449 108)" fill="#3794FF"/>
<rect x="461" y="108" width="24" height="8" rx="4" transform="rotate(-90 461 108)" fill="#3794FF"/>
<rect x="176" y="66" width="58" height="8" rx="4" fill="#A0A0A0"/>
<rect x="244" y="66" width="58" height="8" rx="4" fill="#A0A0A0"/>
<rect x="312" y="66" width="58" height="8" rx="4" fill="#A0A0A0"/>
<rect x="380" y="66" width="58" height="8" rx="4" fill="#A0A0A0"/>
<rect x="448" y="66" width="58" height="8" rx="4" fill="#A0A0A0"/>
<rect x="176" y="118" width="58" height="8" rx="4" fill="#CCCCCC"/>
<rect x="244" y="118" width="58" height="8" rx="4" fill="#CCCCCC"/>
<rect x="312" y="118" width="58" height="8" rx="4" fill="#CCCCCC"/>
<rect x="380" y="118" width="58" height="8" rx="4" fill="#CCCCCC"/>
<rect x="448" y="118" width="58" height="8" rx="4" fill="#CCCCCC"/>
<rect x="176" y="136" width="58" height="8" rx="4" fill="#CCCCCC"/>
<rect x="244" y="136" width="58" height="8" rx="4" fill="#CCCCCC"/>
<rect x="312" y="136" width="58" height="8" rx="4" fill="#CCCCCC"/>
<rect x="380" y="136" width="58" height="8" rx="4" fill="#CCCCCC"/>
<rect x="448" y="136" width="58" height="8" rx="4" fill="#CCCCCC"/>
<rect x="176" y="154" width="58" height="8" rx="4" fill="#CCCCCC"/>
<rect x="244" y="154" width="58" height="8" rx="4" fill="#CCCCCC"/>
<rect x="312" y="154" width="58" height="8" rx="4" fill="#CCCCCC"/>
<rect x="380" y="154" width="58" height="8" rx="4" fill="#CCCCCC"/>
<rect x="448" y="154" width="58" height="8" rx="4" fill="#CCCCCC"/>
<rect x="176" y="208" width="58" height="8" rx="4" fill="#CCCCCC"/>
<rect x="244" y="208" width="58" height="8" rx="4" fill="#CCCCCC"/>
<rect x="312" y="208" width="58" height="8" rx="4" fill="#CCCCCC"/>
<rect x="380" y="208" width="58" height="8" rx="4" fill="#CCCCCC"/>
<rect x="448" y="208" width="58" height="8" rx="4" fill="#CCCCCC"/>
<rect x="176" y="262" width="58" height="8" rx="4" fill="#CCCCCC"/>
<rect x="244" y="262" width="58" height="8" rx="4" fill="#CCCCCC"/>
<rect x="312" y="262" width="58" height="8" rx="4" fill="#CCCCCC"/>
<rect x="380" y="262" width="58" height="8" rx="4" fill="#CCCCCC"/>
<rect x="448" y="262" width="58" height="8" rx="4" fill="#CCCCCC"/>
<rect x="176" y="172" width="58" height="8" rx="4" fill="#CCCCCC"/>
<rect x="244" y="172" width="58" height="8" rx="4" fill="#CCCCCC"/>
<rect x="312" y="172" width="58" height="8" rx="4" fill="#CCCCCC"/>
<rect x="380" y="172" width="58" height="8" rx="4" fill="#CCCCCC"/>
<rect x="448" y="172" width="58" height="8" rx="4" fill="#CCCCCC"/>
<rect x="176" y="226" width="58" height="8" rx="4" fill="#CCCCCC"/>
<rect x="244" y="226" width="58" height="8" rx="4" fill="#CCCCCC"/>
<rect x="312" y="226" width="58" height="8" rx="4" fill="#CCCCCC"/>
<rect x="380" y="226" width="58" height="8" rx="4" fill="#CCCCCC"/>
<rect x="448" y="226" width="58" height="8" rx="4" fill="#CCCCCC"/>
<rect x="176" y="280" width="58" height="8" rx="4" fill="#CCCCCC"/>
<rect x="244" y="280" width="58" height="8" rx="4" fill="#CCCCCC"/>
<rect x="312" y="280" width="58" height="8" rx="4" fill="#CCCCCC"/>
<rect x="380" y="280" width="58" height="8" rx="4" fill="#CCCCCC"/>
<rect x="448" y="280" width="58" height="8" rx="4" fill="#CCCCCC"/>
<rect x="176" y="190" width="58" height="8" rx="4" fill="#CCCCCC"/>
<rect x="244" y="190" width="58" height="8" rx="4" fill="#CCCCCC"/>
<rect x="312" y="190" width="58" height="8" rx="4" fill="#CCCCCC"/>
<rect x="380" y="190" width="58" height="8" rx="4" fill="#CCCCCC"/>
<rect x="448" y="190" width="58" height="8" rx="4" fill="#CCCCCC"/>
<rect x="176" y="244" width="58" height="8" rx="4" fill="#CCCCCC"/>
<rect x="244" y="244" width="58" height="8" rx="4" fill="#CCCCCC"/>
<rect x="312" y="244" width="58" height="8" rx="4" fill="#CCCCCC"/>
<rect x="380" y="244" width="58" height="8" rx="4" fill="#CCCCCC"/>
<rect x="448" y="244" width="58" height="8" rx="4" fill="#CCCCCC"/>
<rect x="176" y="298" width="58" height="8" rx="4" fill="#CCCCCC"/>
<rect x="244" y="298" width="58" height="8" rx="4" fill="#CCCCCC"/>
<rect x="312" y="298" width="58" height="8" rx="4" fill="#CCCCCC"/>
<rect x="380" y="298" width="58" height="8" rx="4" fill="#CCCCCC"/>
<rect x="448" y="298" width="58" height="8" rx="4" fill="#CCCCCC"/>
<circle cx="273" cy="95.5" r="12" fill="#3794FF"/>
</g>
<rect x="181.5" y="324.5" width="371" height="64" rx="3.5" fill="white"/>
<rect x="181.5" y="324.5" width="371" height="64" rx="3.5" stroke="#D4D4D4"/>
<path d="M201.008 342.416L200.48 344.49H201.916L202.449 342.416H203.387L202.854 344.49H204.283V345.387H202.637L202.062 347.689H203.527V348.586H201.834L201.225 351H200.287L200.902 348.586H199.461L198.846 351H197.914L198.523 348.586H197.012V347.689H198.752L199.326 345.387H197.768V344.49H199.543L200.07 342.416H201.008ZM201.699 345.387H200.264L199.689 347.689H201.131L201.699 345.387ZM211.461 342.252H212.615L213.453 349.354L214.449 344.654H215.686L216.693 349.365L217.531 342.252H218.686L217.379 351H216.26L215.07 345.803L213.887 351H212.768L211.461 342.252ZM225.459 345.791C225.229 345.611 224.994 345.48 224.756 345.398C224.518 345.316 224.256 345.275 223.971 345.275C223.299 345.275 222.785 345.486 222.43 345.908C222.074 346.33 221.896 346.939 221.896 347.736V351H220.812V344.438H221.896V345.721C222.076 345.256 222.352 344.9 222.723 344.654C223.098 344.404 223.541 344.279 224.053 344.279C224.318 344.279 224.566 344.312 224.797 344.379C225.027 344.445 225.248 344.549 225.459 344.689V345.791ZM227.773 344.461H230.533V350.162H232.672V351H227.316V350.162H229.455V345.299H227.773V344.461ZM229.455 341.912H230.533V343.271H229.455V341.912ZM236.75 342.574V344.438H239.199V345.275H236.75V348.838C236.75 349.322 236.842 349.66 237.025 349.852C237.209 350.043 237.529 350.139 237.986 350.139H239.199V351H237.881C237.072 351 236.502 350.838 236.17 350.514C235.838 350.189 235.672 349.631 235.672 348.838V345.275H233.92V344.438H235.672V342.574H236.75ZM246.945 347.18V347.707H242.275V347.742C242.244 348.637 242.414 349.279 242.785 349.67C243.16 350.061 243.688 350.256 244.367 350.256C244.711 350.256 245.07 350.201 245.445 350.092C245.82 349.982 246.221 349.816 246.646 349.594V350.666C246.236 350.834 245.84 350.959 245.457 351.041C245.078 351.127 244.711 351.17 244.355 351.17C243.336 351.17 242.539 350.865 241.965 350.256C241.391 349.643 241.104 348.799 241.104 347.725C241.104 346.678 241.385 345.842 241.947 345.217C242.51 344.592 243.26 344.279 244.197 344.279C245.033 344.279 245.691 344.562 246.172 345.129C246.656 345.695 246.914 346.379 246.945 347.18ZM245.867 346.863C245.82 346.41 245.654 346.02 245.369 345.691C245.088 345.359 244.682 345.193 244.15 345.193C243.631 345.193 243.203 345.365 242.867 345.709C242.531 346.053 242.348 346.439 242.316 346.869L245.867 346.863ZM258.957 347.701H258.6C257.971 347.701 257.496 347.812 257.176 348.035C256.859 348.254 256.701 348.582 256.701 349.02C256.701 349.414 256.82 349.721 257.059 349.939C257.297 350.158 257.627 350.268 258.049 350.268C258.643 350.268 259.109 350.062 259.449 349.652C259.789 349.238 259.961 348.668 259.965 347.941V347.701H258.957ZM261.049 347.256V351H259.965V350.027C259.734 350.418 259.443 350.707 259.092 350.895C258.744 351.078 258.32 351.17 257.82 351.17C257.152 351.17 256.619 350.982 256.221 350.607C255.822 350.229 255.623 349.723 255.623 349.09C255.623 348.359 255.867 347.805 256.355 347.426C256.848 347.047 257.568 346.857 258.518 346.857H259.965V346.688C259.961 346.164 259.828 345.785 259.566 345.551C259.305 345.312 258.887 345.193 258.312 345.193C257.945 345.193 257.574 345.246 257.199 345.352C256.824 345.457 256.459 345.611 256.104 345.814V344.736C256.502 344.584 256.883 344.471 257.246 344.396C257.613 344.318 257.969 344.279 258.312 344.279C258.855 344.279 259.318 344.359 259.701 344.52C260.088 344.68 260.4 344.92 260.639 345.24C260.787 345.436 260.893 345.678 260.955 345.967C261.018 346.252 261.049 346.682 261.049 347.256ZM268.232 346.934V351H267.148V346.934C267.148 346.344 267.045 345.91 266.838 345.633C266.631 345.355 266.307 345.217 265.865 345.217C265.361 345.217 264.973 345.396 264.699 345.756C264.43 346.111 264.295 346.623 264.295 347.291V351H263.217V344.438H264.295V345.422C264.486 345.047 264.746 344.764 265.074 344.572C265.402 344.377 265.791 344.279 266.24 344.279C266.908 344.279 267.406 344.5 267.734 344.941C268.066 345.379 268.232 346.043 268.232 346.934ZM280.145 345.193C279.598 345.193 279.184 345.406 278.902 345.832C278.621 346.258 278.48 346.889 278.48 347.725C278.48 348.557 278.621 349.188 278.902 349.617C279.184 350.043 279.598 350.256 280.145 350.256C280.695 350.256 281.111 350.043 281.393 349.617C281.674 349.188 281.814 348.557 281.814 347.725C281.814 346.889 281.674 346.258 281.393 345.832C281.111 345.406 280.695 345.193 280.145 345.193ZM280.145 344.279C281.055 344.279 281.75 344.574 282.23 345.164C282.715 345.754 282.957 346.607 282.957 347.725C282.957 348.846 282.717 349.701 282.236 350.291C281.756 350.877 281.059 351.17 280.145 351.17C279.234 351.17 278.539 350.877 278.059 350.291C277.578 349.701 277.338 348.846 277.338 347.725C277.338 346.607 277.578 345.754 278.059 345.164C278.539 344.574 279.234 344.279 280.145 344.279ZM285.963 350.174V353.496H284.879V344.438H285.963V345.275C286.143 344.951 286.381 344.705 286.678 344.537C286.979 344.365 287.324 344.279 287.715 344.279C288.508 344.279 289.129 344.586 289.578 345.199C290.031 345.812 290.258 346.662 290.258 347.748C290.258 348.814 290.031 349.652 289.578 350.262C289.125 350.867 288.504 351.17 287.715 351.17C287.316 351.17 286.967 351.086 286.666 350.918C286.369 350.746 286.135 350.498 285.963 350.174ZM289.127 347.725C289.127 346.889 288.994 346.258 288.729 345.832C288.467 345.406 288.076 345.193 287.557 345.193C287.033 345.193 286.637 345.408 286.367 345.838C286.098 346.264 285.963 346.893 285.963 347.725C285.963 348.553 286.098 349.182 286.367 349.611C286.637 350.041 287.033 350.256 287.557 350.256C288.076 350.256 288.467 350.043 288.729 349.617C288.994 349.191 289.127 348.561 289.127 347.725ZM297.559 347.18V347.707H292.889V347.742C292.857 348.637 293.027 349.279 293.398 349.67C293.773 350.061 294.301 350.256 294.98 350.256C295.324 350.256 295.684 350.201 296.059 350.092C296.434 349.982 296.834 349.816 297.26 349.594V350.666C296.85 350.834 296.453 350.959 296.07 351.041C295.691 351.127 295.324 351.17 294.969 351.17C293.949 351.17 293.152 350.865 292.578 350.256C292.004 349.643 291.717 348.799 291.717 347.725C291.717 346.678 291.998 345.842 292.561 345.217C293.123 344.592 293.873 344.279 294.811 344.279C295.646 344.279 296.305 344.562 296.785 345.129C297.27 345.695 297.527 346.379 297.559 347.18ZM296.48 346.863C296.434 346.41 296.268 346.02 295.982 345.691C295.701 345.359 295.295 345.193 294.764 345.193C294.244 345.193 293.816 345.365 293.48 345.709C293.145 346.053 292.961 346.439 292.93 346.869L296.48 346.863ZM304.994 345.791C304.764 345.611 304.529 345.48 304.291 345.398C304.053 345.316 303.791 345.275 303.506 345.275C302.834 345.275 302.32 345.486 301.965 345.908C301.609 346.33 301.432 346.939 301.432 347.736V351H300.348V344.438H301.432V345.721C301.611 345.256 301.887 344.9 302.258 344.654C302.633 344.404 303.076 344.279 303.588 344.279C303.854 344.279 304.102 344.312 304.332 344.379C304.562 344.445 304.783 344.549 304.994 344.689V345.791ZM309.57 347.701H309.213C308.584 347.701 308.109 347.812 307.789 348.035C307.473 348.254 307.314 348.582 307.314 349.02C307.314 349.414 307.434 349.721 307.672 349.939C307.91 350.158 308.24 350.268 308.662 350.268C309.256 350.268 309.723 350.062 310.062 349.652C310.402 349.238 310.574 348.668 310.578 347.941V347.701H309.57ZM311.662 347.256V351H310.578V350.027C310.348 350.418 310.057 350.707 309.705 350.895C309.357 351.078 308.934 351.17 308.434 351.17C307.766 351.17 307.232 350.982 306.834 350.607C306.436 350.229 306.236 349.723 306.236 349.09C306.236 348.359 306.48 347.805 306.969 347.426C307.461 347.047 308.182 346.857 309.131 346.857H310.578V346.688C310.574 346.164 310.441 345.785 310.18 345.551C309.918 345.312 309.5 345.193 308.926 345.193C308.559 345.193 308.188 345.246 307.812 345.352C307.438 345.457 307.072 345.611 306.717 345.814V344.736C307.115 344.584 307.496 344.471 307.859 344.396C308.227 344.318 308.582 344.279 308.926 344.279C309.469 344.279 309.932 344.359 310.314 344.52C310.701 344.68 311.014 344.92 311.252 345.24C311.4 345.436 311.506 345.678 311.568 345.967C311.631 346.252 311.662 346.682 311.662 347.256ZM316.285 342.574V344.438H318.734V345.275H316.285V348.838C316.285 349.322 316.377 349.66 316.561 349.852C316.744 350.043 317.064 350.139 317.521 350.139H318.734V351H317.416C316.607 351 316.037 350.838 315.705 350.514C315.373 350.189 315.207 349.631 315.207 348.838V345.275H313.455V344.438H315.207V342.574H316.285ZM321.77 344.461H324.529V350.162H326.668V351H321.312V350.162H323.451V345.299H321.77V344.461ZM323.451 341.912H324.529V343.271H323.451V341.912ZM330.758 345.193C330.211 345.193 329.797 345.406 329.516 345.832C329.234 346.258 329.094 346.889 329.094 347.725C329.094 348.557 329.234 349.188 329.516 349.617C329.797 350.043 330.211 350.256 330.758 350.256C331.309 350.256 331.725 350.043 332.006 349.617C332.287 349.188 332.428 348.557 332.428 347.725C332.428 346.889 332.287 346.258 332.006 345.832C331.725 345.406 331.309 345.193 330.758 345.193ZM330.758 344.279C331.668 344.279 332.363 344.574 332.844 345.164C333.328 345.754 333.57 346.607 333.57 347.725C333.57 348.846 333.33 349.701 332.85 350.291C332.369 350.877 331.672 351.17 330.758 351.17C329.848 351.17 329.152 350.877 328.672 350.291C328.191 349.701 327.951 348.846 327.951 347.725C327.951 346.607 328.191 345.754 328.672 345.164C329.152 344.574 329.848 344.279 330.758 344.279ZM340.537 346.934V351H339.453V346.934C339.453 346.344 339.35 345.91 339.143 345.633C338.936 345.355 338.611 345.217 338.17 345.217C337.666 345.217 337.277 345.396 337.004 345.756C336.734 346.111 336.6 346.623 336.6 347.291V351H335.521V344.438H336.6V345.422C336.791 345.047 337.051 344.764 337.379 344.572C337.707 344.377 338.096 344.279 338.545 344.279C339.213 344.279 339.711 344.5 340.039 344.941C340.371 345.379 340.537 346.043 340.537 346.934Z" fill="#327E36"/>
<circle cx="53" cy="106" r="11.5" fill="#E8825D" fill-opacity="0.4" stroke="#E8825D"/>
<defs>
<filter id="filter0_d_1202_421444" x="0" y="20" width="208" height="353" filterUnits="userSpaceOnUse" color-interpolation-filters="sRGB">
<feFlood flood-opacity="0" result="BackgroundImageFix"/>
<feColorMatrix in="SourceAlpha" type="matrix" values="0 0 0 0 0 0 0 0 0 0 0 0 0 0 0 0 0 0 127 0" result="hardAlpha"/>
<feOffset dy="2"/>
<feGaussianBlur stdDeviation="4"/>
<feColorMatrix type="matrix" values="0 0 0 0 0 0 0 0 0 0 0 0 0 0 0 0 0 0 0.4 0"/>
<feBlend mode="normal" in2="BackgroundImageFix" result="effect1_dropShadow_1202_421444"/>
<feBlend mode="normal" in="SourceGraphic" in2="effect1_dropShadow_1202_421444" result="shape"/>
</filter>
<filter id="filter1_d_1202_421444" x="136" y="0" width="411" height="350" filterUnits="userSpaceOnUse" color-interpolation-filters="sRGB">
<feFlood flood-opacity="0" result="BackgroundImageFix"/>
<feColorMatrix in="SourceAlpha" type="matrix" values="0 0 0 0 0 0 0 0 0 0 0 0 0 0 0 0 0 0 127 0" result="hardAlpha"/>
<feOffset dy="2"/>
<feGaussianBlur stdDeviation="8"/>
<feColorMatrix type="matrix" values="0 0 0 0 0 0 0 0 0 0 0 0 0 0 0 0 0 0 0.36 0"/>
<feBlend mode="normal" in2="BackgroundImageFix" result="effect1_dropShadow_1202_421444"/>
<feBlend mode="normal" in="SourceGraphic" in2="effect1_dropShadow_1202_421444" result="shape"/>
</filter>
<clipPath id="clip0_1202_421444">
<rect width="210" height="35" fill="white" transform="translate(152 14)"/>
</clipPath>
<clipPath id="clip1_1202_421444">
<rect width="87" height="35" fill="white" transform="translate(152 14)"/>
</clipPath>
<clipPath id="clip2_1202_421444">
<rect width="16" height="16" fill="white" transform="translate(252 23.5)"/>
</clipPath>
<clipPath id="clip3_1202_421444">
<rect width="16" height="16" fill="white" transform="translate(252 23.4355)"/>
</clipPath>
</defs>
</svg>
