<svg width="553" height="389" viewBox="0 0 553 389" fill="none" xmlns="http://www.w3.org/2000/svg">
<g filter="url(#filter0_d_1202_422068)">
<rect width="192" height="337" transform="translate(8 26)" fill="white"/>
<path d="M24.8053 48.1875H27.1232C29.0274 48.1875 30.1441 49.362 30.1441 51.3819C30.1441 53.424 29.0363 54.6074 27.1232 54.6074H24.8053V48.1875ZM25.8019 49.0461V53.7488H27.012C28.3556 53.7488 29.1297 52.8901 29.1297 51.3952C29.1297 49.9137 28.3423 49.0461 27.012 49.0461H25.8019ZM35.3495 54.6074L34.7622 52.8723H32.3152L31.7235 54.6074H30.7002L33.0182 48.1875H34.0904L36.4084 54.6074H35.3495ZM33.5031 49.322L32.5688 52.0715H34.5086L33.5788 49.322H33.5031ZM39.4159 54.6074H38.4193V49.0461H36.3995V48.1875H41.4313V49.0461H39.4159V54.6074ZM46.0717 54.6074L45.4844 52.8723H43.0374L42.4457 54.6074H41.4224L43.7404 48.1875H44.8126L47.1305 54.6074H46.0717ZM44.2253 49.322L43.291 52.0715H45.2308L44.301 49.322H44.2253ZM54.3825 49.8069L53.0077 54.6074H52.0645L50.3338 48.1875H51.3705L52.5495 53.1793H52.6118L53.9509 48.1875H54.8763L56.2244 53.1793H56.2867L57.4612 48.1875H58.4978L56.7627 54.6074H55.824L54.4448 49.8069H54.3825ZM60.7001 52.1382V54.6074H59.7035V48.1875H62.2439C63.5386 48.1875 64.3706 48.9527 64.3706 50.1495C64.3706 51.017 63.9079 51.72 63.1248 51.9825L64.5663 54.6074H63.414L62.106 52.1382H60.7001ZM60.7001 49.0239V51.3196H62.1327C62.9024 51.3196 63.3473 50.9058 63.3473 50.1717C63.3473 49.4554 62.8757 49.0239 62.106 49.0239H60.7001ZM69.9452 54.6074L69.3579 52.8723H66.911L66.3192 54.6074H65.296L67.6139 48.1875H68.6861L71.0041 54.6074H69.9452ZM68.0988 49.322L67.1645 52.0715H69.1043L68.1745 49.322H68.0988ZM73.0951 54.6074H72.1252V48.1875H73.0239L76.3207 52.859H76.3918V48.1875H77.3617V54.6074H76.463L73.1663 49.9448H73.0951V54.6074ZM84.4535 52.0804C84.4535 53.7087 83.3635 54.7631 81.6818 54.7631C79.8621 54.7631 78.7142 53.464 78.7142 51.3952C78.7142 49.3531 79.8754 48.0317 81.6729 48.0317C83.1321 48.0317 84.191 48.8504 84.409 50.145H83.408C83.1588 49.3487 82.5493 48.9171 81.6729 48.9171C80.485 48.9171 79.7331 49.8736 79.7331 51.3908C79.7331 52.9301 80.4894 53.8778 81.6951 53.8778C82.7451 53.8778 83.4658 53.2149 83.4747 52.2316V52.0893H81.8197V51.284H84.4535V52.0804ZM89.8324 53.7399V54.6074H85.8283V48.1875H86.8248V53.7399H89.8324ZM95.1712 53.7488V54.6074H91.0959V48.1875H95.1712V49.0461H92.0925V50.9236H95.0066V51.7511H92.0925V53.7488H95.1712ZM97.6093 52.1382V54.6074H96.6127V48.1875H99.1531C100.448 48.1875 101.28 48.9527 101.28 50.1495C101.28 51.017 100.817 51.72 100.034 51.9825L101.476 54.6074H100.323L99.0152 52.1382H97.6093ZM97.6093 49.0239V51.3196H99.0419C99.8116 51.3196 100.256 50.9058 100.256 50.1717C100.256 49.4554 99.7849 49.0239 99.0152 49.0239H97.6093Z" fill="#CCCCCC"/>
<path d="M30 79.08L34.32 74.7067L34.96 75.3467L30.2667 79.9867H29.68L24.9867 75.3467L25.6267 74.7067L30 79.08Z" fill="#808080"/>
<path d="M49.542 73.4961C51.4097 73.4961 52.5918 74.7749 52.5918 76.8271C52.5918 78.8794 51.4141 80.1626 49.542 80.1626C47.6567 80.1626 46.4878 78.8794 46.4878 76.8271C46.4878 74.7705 47.6743 73.4961 49.542 73.4961ZM49.542 74.6211C48.5093 74.6211 47.8457 75.478 47.8457 76.8271C47.8457 78.1719 48.4961 79.0376 49.542 79.0376C50.5747 79.0376 51.2339 78.1719 51.2339 76.8271C51.2339 75.478 50.5703 74.6211 49.542 74.6211ZM53.853 73.6587H56.4985C57.8037 73.6587 58.6958 74.5288 58.6958 75.8384C58.6958 77.1304 57.7686 78.0005 56.4326 78.0005H55.1802V80H53.853V73.6587ZM55.1802 74.7134V76.959H56.1426C56.9028 76.959 57.3467 76.5635 57.3467 75.8428C57.3467 75.1045 56.9116 74.7134 56.147 74.7134H55.1802ZM64.1187 78.9058V80H59.9175V73.6587H64.1187V74.7529H61.2446V76.2822H63.9561V77.3018H61.2446V78.9058H64.1187ZM66.8433 77.6797V80H65.5161V73.6587H68.1792C69.5723 73.6587 70.4292 74.4277 70.4292 75.6802C70.4292 76.4932 70.0073 77.1963 69.2778 77.4819L70.6138 80H69.1108L67.9287 77.6797H66.8433ZM66.8433 74.6958V76.6909H68.0078C68.6758 76.6909 69.0669 76.3262 69.0669 75.6978C69.0669 75.0825 68.6538 74.6958 67.9946 74.6958H66.8433ZM75.8389 80L75.3599 78.4619H73.1318L72.644 80H71.3125L73.5142 73.6587H75.0742L77.2759 80H75.8389ZM74.2129 74.9463L73.4175 77.4688H75.0786L74.292 74.9463H74.2129ZM80.5366 80H79.2095V74.7529H77.3066V73.6587H82.4395V74.7529H80.5366V80ZM84.9399 80H83.6128V73.6587H84.9399V80ZM89.251 73.4961C91.1187 73.4961 92.3008 74.7749 92.3008 76.8271C92.3008 78.8794 91.123 80.1626 89.251 80.1626C87.3657 80.1626 86.1968 78.8794 86.1968 76.8271C86.1968 74.7705 87.3833 73.4961 89.251 73.4961ZM89.251 74.6211C88.2183 74.6211 87.5547 75.478 87.5547 76.8271C87.5547 78.1719 88.2051 79.0376 89.251 79.0376C90.2837 79.0376 90.9429 78.1719 90.9429 76.8271C90.9429 75.478 90.2793 74.6211 89.251 74.6211ZM94.832 80H93.562V73.6587H94.6694L97.5874 77.6973H97.6665V73.6587H98.9365V80H97.8379L94.9111 75.9438H94.832V80ZM100.193 78.2466H101.477C101.538 78.7739 102.057 79.1123 102.804 79.1123C103.494 79.1123 103.981 78.7651 103.981 78.2729C103.981 77.8555 103.665 77.6138 102.887 77.4424L102.061 77.2622C100.905 77.0161 100.338 76.4229 100.338 75.4604C100.338 74.2783 101.301 73.4961 102.764 73.4961C104.162 73.4961 105.15 74.2739 105.19 75.3945H103.942C103.88 74.876 103.415 74.5376 102.773 74.5376C102.109 74.5376 101.67 74.8584 101.67 75.355C101.67 75.7549 101.973 75.9878 102.716 76.1504L103.48 76.313C104.755 76.5854 105.304 77.1348 105.304 78.1147C105.304 79.3804 104.324 80.1626 102.733 80.1626C101.222 80.1626 100.242 79.4199 100.193 78.2466Z" fill="#A0A0A0"/>
<rect x="20" y="97.5" width="80" height="7" rx="3.5" fill="#BBBBBB"/>
<rect x="20" y="121.5" width="98" height="7" rx="3.5" fill="#BBBBBB"/>
<rect x="20" y="145.5" width="70" height="7" rx="3.5" fill="#BBBBBB"/>
<path d="M30 175.08L34.32 170.707L34.96 171.347L30.2667 175.987H29.68L24.9867 171.347L25.6267 170.707L30 175.08Z" fill="#808080"/>
<path d="M46.4834 174.247H47.7666C47.8281 174.774 48.3467 175.112 49.0938 175.112C49.7837 175.112 50.2715 174.765 50.2715 174.273C50.2715 173.855 49.9551 173.614 49.1772 173.442L48.3511 173.262C47.1953 173.016 46.6284 172.423 46.6284 171.46C46.6284 170.278 47.5908 169.496 49.0542 169.496C50.4517 169.496 51.4404 170.274 51.48 171.395H50.2319C50.1704 170.876 49.7046 170.538 49.063 170.538C48.3994 170.538 47.96 170.858 47.96 171.355C47.96 171.755 48.2632 171.988 49.0059 172.15L49.7705 172.313C51.0449 172.585 51.5942 173.135 51.5942 174.115C51.5942 175.38 50.6143 176.163 49.0234 176.163C47.5117 176.163 46.5317 175.42 46.4834 174.247ZM54.1738 169.659V173.684C54.1738 174.497 54.6572 175.024 55.5054 175.024C56.3535 175.024 56.8325 174.497 56.8325 173.684V169.659H58.1597V173.812C58.1597 175.213 57.127 176.163 55.5054 176.163C53.8838 176.163 52.8467 175.213 52.8467 173.812V169.659H54.1738ZM66.4126 176H65.1821V171.707H65.1118L63.499 175.688H62.6157L60.9985 171.707H60.9282V176H59.6978V169.659H61.2622L63.0156 174.031H63.0947L64.8525 169.659H66.4126V176ZM74.6655 176H73.4351V171.707H73.3647L71.752 175.688H70.8687L69.2515 171.707H69.1812V176H67.9507V169.659H69.5151L71.2686 174.031H71.3477L73.1055 169.659H74.6655V176ZM80.2773 176L79.7983 174.462H77.5703L77.0825 176H75.751L77.9526 169.659H79.5127L81.7144 176H80.2773ZM78.6514 170.946L77.856 173.469H79.5171L78.7305 170.946H78.6514ZM84.1226 173.68V176H82.7954V169.659H85.4585C86.8516 169.659 87.7085 170.428 87.7085 171.68C87.7085 172.493 87.2866 173.196 86.5571 173.482L87.8931 176H86.3901L85.208 173.68H84.1226ZM84.1226 170.696V172.691H85.2871C85.9551 172.691 86.3462 172.326 86.3462 171.698C86.3462 171.083 85.9331 170.696 85.2739 170.696H84.1226ZM91.9272 176H90.6001V173.631L88.3896 169.659H89.8267L91.2241 172.326H91.3032L92.6963 169.659H94.1333L91.9272 173.631V176Z" fill="#A0A0A0"/>
<rect x="20" y="193.5" width="59" height="7" rx="3.5" fill="#BBBBBB"/>
<rect x="108" y="193.5" width="46" height="7" rx="3.5" fill="#BBBBBB"/>
<rect x="20" y="217.5" width="52" height="7" rx="3.5" fill="#BBBBBB"/>
<rect x="93" y="217.5" width="61" height="7" rx="3.5" fill="#BBBBBB"/>
<rect x="20" y="241.5" width="47" height="7" rx="3.5" fill="#BBBBBB"/>
<rect x="120" y="241.5" width="34" height="7" rx="3.5" fill="#BBBBBB"/>
<path d="M32.08 269L27.7067 264.68L28.3467 264.04L32.9867 268.733V269.32L28.3467 274.013L27.7067 273.373L32.08 269Z" fill="#808080"/>
<path d="M49.4629 272.163C47.626 272.163 46.4878 270.888 46.4878 268.827C46.4878 266.766 47.6216 265.496 49.4629 265.496C50.9658 265.496 52.1172 266.48 52.2139 267.843H50.9219C50.7944 267.109 50.2188 266.625 49.4629 266.625C48.4653 266.625 47.8457 267.469 47.8457 268.827C47.8457 270.185 48.4653 271.029 49.4673 271.029C50.2275 271.029 50.7988 270.581 50.9263 269.882H52.2183C52.1084 271.235 50.9922 272.163 49.4629 272.163ZM57.5884 270.884V272H53.4399V265.659H54.7671V270.884H57.5884ZM62.9937 270.906V272H58.7925V265.659H62.9937V266.753H60.1196V268.282H62.8311V269.302H60.1196V270.906H62.9937ZM68.4648 272L67.9858 270.462H65.7578L65.27 272H63.9385L66.1401 265.659H67.7002L69.9019 272H68.4648ZM66.8389 266.946L66.0435 269.469H67.7046L66.918 266.946H66.8389ZM72.2529 272H70.9829V265.659H72.0903L75.0083 269.697H75.0874V265.659H76.3574V272H75.2588L72.332 267.944H72.2529V272ZM79.2271 272H77.8999V265.659H79.2271V272ZM82.0352 272H80.7651V265.659H81.8726L84.7905 269.697H84.8696V265.659H86.1396V272H85.041L82.1143 267.944H82.0352V272ZM93.2544 269.425C93.2544 271.108 92.1733 272.163 90.4419 272.163C88.5566 272.163 87.4009 270.893 87.4009 268.823C87.4009 266.784 88.5654 265.496 90.4111 265.496C91.9097 265.496 93.0127 266.353 93.1973 267.667H91.8789C91.6812 267.003 91.1494 266.625 90.4111 266.625C89.3872 266.625 88.7588 267.456 88.7588 268.81C88.7588 270.189 89.418 271.029 90.4639 271.029C91.334 271.029 91.936 270.497 91.9624 269.706L91.9668 269.587H90.5913V268.621H93.2544V269.425ZM96.5635 270.247H97.8467C97.9082 270.774 98.4268 271.112 99.1738 271.112C99.8638 271.112 100.352 270.765 100.352 270.273C100.352 269.855 100.035 269.614 99.2573 269.442L98.4312 269.262C97.2754 269.016 96.7085 268.423 96.7085 267.46C96.7085 266.278 97.6709 265.496 99.1343 265.496C100.532 265.496 101.521 266.274 101.56 267.395H100.312C100.25 266.876 99.7847 266.538 99.1431 266.538C98.4795 266.538 98.04 266.858 98.04 267.355C98.04 267.755 98.3433 267.988 99.0859 268.15L99.8506 268.313C101.125 268.585 101.674 269.135 101.674 270.115C101.674 271.38 100.694 272.163 99.1035 272.163C97.5918 272.163 96.6118 271.42 96.5635 270.247ZM105.796 272H104.469V266.753H102.566V265.659H107.699V266.753H105.796V272ZM113.074 270.906V272H108.873V265.659H113.074V266.753H110.2V268.282H112.911V269.302H110.2V270.906H113.074ZM114.471 265.659H117.117C118.422 265.659 119.314 266.529 119.314 267.838C119.314 269.13 118.387 270 117.051 270H115.798V272H114.471V265.659ZM115.798 266.713V268.959H116.761C117.521 268.959 117.965 268.563 117.965 267.843C117.965 267.104 117.53 266.713 116.765 266.713H115.798ZM120.25 270.247H121.533C121.595 270.774 122.113 271.112 122.86 271.112C123.55 271.112 124.038 270.765 124.038 270.273C124.038 269.855 123.722 269.614 122.944 269.442L122.118 269.262C120.962 269.016 120.395 268.423 120.395 267.46C120.395 266.278 121.357 265.496 122.821 265.496C124.218 265.496 125.207 266.274 125.247 267.395H123.999C123.937 266.876 123.471 266.538 122.83 266.538C122.166 266.538 121.727 266.858 121.727 267.355C121.727 267.755 122.03 267.988 122.772 268.15L123.537 268.313C124.812 268.585 125.361 269.135 125.361 270.115C125.361 271.38 124.381 272.163 122.79 272.163C121.278 272.163 120.298 271.42 120.25 270.247Z" fill="#A0A0A0"/>
<path d="M27 299.113C25.88 299.113 24.8533 298.849 23.92 298.32C22.9867 297.76 22.24 297.013 21.68 296.08C21.1511 295.147 20.8867 294.12 20.8867 293C20.8867 291.88 21.1511 290.853 21.68 289.92C22.24 288.987 22.9867 288.256 23.92 287.727C24.8533 287.167 25.88 286.887 27 286.887C28.12 286.887 29.1467 287.167 30.08 287.727C31.0133 288.256 31.7444 288.987 32.2733 289.92C32.8333 290.853 33.1133 291.88 33.1133 293C33.1133 294.12 32.8333 295.147 32.2733 296.08C31.7444 297.013 31.0133 297.76 30.08 298.32C29.1467 298.849 28.12 299.113 27 299.113ZM26.1133 295.52L30.08 291.507L29.4733 290.9L25.7867 294.587L24.1067 292.907L23.5 293.513L25.5067 295.52H26.1133Z" fill="#73C991"/>
<rect x="40" y="289.5" width="98" height="7" rx="3.5" fill="#BBBBBB"/>
<path d="M27 323.113C25.88 323.113 24.8533 322.849 23.92 322.32C22.9867 321.76 22.24 321.013 21.68 320.08C21.1511 319.147 20.8867 318.12 20.8867 317C20.8867 315.88 21.1511 314.853 21.68 313.92C22.24 312.987 22.9867 312.256 23.92 311.727C24.8533 311.167 25.88 310.887 27 310.887C28.12 310.887 29.1467 311.167 30.08 311.727C31.0133 312.256 31.7444 312.987 32.2733 313.92C32.8333 314.853 33.1133 315.88 33.1133 317C33.1133 318.12 32.8333 319.147 32.2733 320.08C31.7444 321.013 31.0133 321.76 30.08 322.32C29.1467 322.849 28.12 323.113 27 323.113ZM26.1133 319.52L30.08 315.507L29.4733 314.9L25.7867 318.587L24.1067 316.907L23.5 317.513L25.5067 319.52H26.1133Z" fill="#73C991"/>
<rect x="40" y="313.5" width="98" height="7" rx="3.5" fill="#BBBBBB"/>
<path d="M27 347.113C25.88 347.113 24.8533 346.849 23.92 346.32C22.9867 345.76 22.24 345.013 21.68 344.08C21.1511 343.147 20.8867 342.12 20.8867 341C20.8867 339.88 21.1511 338.853 21.68 337.92C22.24 336.987 22.9867 336.256 23.92 335.727C24.8533 335.167 25.88 334.887 27 334.887C28.12 334.887 29.1467 335.167 30.08 335.727C31.0133 336.256 31.7444 336.987 32.2733 337.92C32.8333 338.853 33.1133 339.88 33.1133 341C33.1133 342.12 32.8333 343.147 32.2733 344.08C31.7444 345.013 31.0133 345.76 30.08 346.32C29.1467 346.849 28.12 347.113 27 347.113ZM26.1133 343.52L30.08 339.507L29.4733 338.9L25.7867 342.587L24.1067 340.907L23.5 341.513L25.5067 343.52H26.1133Z" fill="#73C991"/>
<rect x="40" y="337.5" width="98" height="7" rx="3.5" fill="#BBBBBB"/>
</g>
<g filter="url(#filter1_d_1202_422068)">
<rect width="379" height="318" transform="translate(152 14)" fill="white"/>
<rect width="379" height="35" transform="translate(152 14)" fill="#F0F0F0"/>
<g clip-path="url(#clip0_1202_422068)">
<g clip-path="url(#clip1_1202_422068)">
<rect width="87" height="35" transform="translate(152 14)" fill="#F0F0F0"/>
<path fill-rule="evenodd" clip-rule="evenodd" d="M166 25.5L167 24.5H176L177 25.5V37.5L176 38.5H167L166 37.5V25.5ZM167 25.5V37.5H176V25.5H167ZM168 27.5L169 26.5H174L175 27.5V28.5L174 29.5H169L168 28.5V27.5ZM169 27.5V28.5H174V27.5H169ZM179 28.5H178V30.5H179V28.5ZM178 31.5H179V33.5H178V31.5ZM179 34.5H178V36.5H179V34.5Z" fill="#CCCCCC"/>
<rect x="184" y="28" width="43" height="7" rx="3.5" fill="#CCCCCC"/>
</g>
<rect width="122" height="35" transform="translate(240 14)" fill="white"/>
<g clip-path="url(#clip2_1202_422068)">
<g clip-path="url(#clip3_1202_422068)">
<path d="M265.5 39.4358C265.372 39.4358 265.244 39.3868 265.146 39.2898C264.951 39.0947 264.951 38.7778 265.146 38.5828L266.792 36.9368L265.146 35.2907C264.951 35.0957 264.951 34.7788 265.146 34.5837C265.341 34.3888 265.658 34.3888 265.853 34.5837L267.853 36.5838C268.048 36.7787 268.048 37.0957 267.853 37.2907L265.853 39.2907C265.755 39.3887 265.627 39.4367 265.499 39.4367L265.5 39.4358Z" fill="#0078D4"/>
<path d="M262.5 39.4358C262.372 39.4358 262.244 39.3868 262.146 39.2898C261.951 39.0947 261.951 38.7778 262.146 38.5828L263.792 36.9368L262.146 35.2907C261.951 35.0957 261.951 34.7788 262.146 34.5837C262.341 34.3888 262.658 34.3888 262.853 34.5837L264.853 36.5838C265.048 36.7787 265.048 37.0957 264.853 37.2907L262.853 39.2907C262.755 39.3887 262.627 39.4367 262.499 39.4367L262.5 39.4358Z" fill="#0078D4"/>
<path d="M259.5 39.4358C259.372 39.4358 259.244 39.3868 259.146 39.2898C258.951 39.0947 258.951 38.7778 259.146 38.5828L260.792 36.9368L259.146 35.2907C258.951 35.0957 258.951 34.7788 259.146 34.5837C259.341 34.3888 259.658 34.3888 259.853 34.5837L261.853 36.5838C262.048 36.7787 262.048 37.0957 261.853 37.2907L259.853 39.2907C259.755 39.3887 259.627 39.4367 259.499 39.4367L259.5 39.4358Z" fill="#0078D4"/>
<path d="M258 34.9355C258 34.7615 258.035 34.5945 258.091 34.4355H256.694L256.254 36.3955C256.254 36.4005 256.251 36.4085 256.249 36.4155C256.247 36.4235 256.244 36.4305 256.244 36.4355H258.878L258.439 35.9965C258.156 35.7135 258 35.3365 258 34.9355ZM253.204 31.4355L252.764 33.3955C252.764 33.4005 252.761 33.4085 252.759 33.4155C252.756 33.4235 252.754 33.4305 252.754 33.4355H255.894L256.344 31.4355H253.204ZM266.695 27.3705C266.218 26.7765 265.507 26.4355 264.746 26.4355H256.342C255.161 26.4355 254.157 27.2405 253.902 28.3925L253.447 30.4355H257.615L256.948 33.4355H265.5C265.772 33.4355 266.031 33.5125 266.259 33.6475L267.186 29.4775C267.351 28.7335 267.172 27.9655 266.695 27.3705ZM254.695 29.4355L254.879 28.6095C255.032 27.9185 255.634 27.4355 256.343 27.4355H258.282L257.837 29.4355H254.695ZM261.337 32.4355H258.194L258.639 30.4355H261.781L261.337 32.4355ZM262.005 29.4355H258.863L259.308 27.4355H262.449L262.005 29.4355ZM265.503 32.4355H262.361L262.806 30.4355H265.949L265.503 32.4355ZM266.208 29.2615L266.17 29.4355H263.027L263.471 27.4355H264.743C265.2 27.4355 265.627 27.6405 265.913 27.9965C266.199 28.3535 266.307 28.8145 266.207 29.2615H266.208ZM253.255 35.4955C253.735 36.0955 254.445 36.4355 255.205 36.4355H255.225L255.455 35.4355L255.675 34.4355H252.765C252.835 34.8255 253.005 35.1855 253.255 35.4955Z" fill="#0078D4"/>
</g>
</g>
<rect x="272" y="28" width="78" height="7" rx="3.5" fill="#CCCCCC"/>
</g>
<rect x="201" y="131" width="24" height="8" rx="4" transform="rotate(-90 201 131)" fill="#3794FF"/>
<rect x="213" y="131" width="21" height="8" rx="4" transform="rotate(-90 213 131)" fill="#3794FF"/>
<rect x="225" y="131" width="18" height="8" rx="4" transform="rotate(-90 225 131)" fill="#3794FF"/>
<rect x="177" y="131" width="11" height="8" rx="4" transform="rotate(-90 177 131)" fill="#3794FF"/>
<rect x="189" y="131" width="16" height="8" rx="4" transform="rotate(-90 189 131)" fill="#3794FF"/>
<rect x="337" y="131" width="20" height="8" rx="4" transform="rotate(-90 337 131)" fill="#3794FF"/>
<rect x="349" y="131" width="24" height="8" rx="4" transform="rotate(-90 349 131)" fill="#3794FF"/>
<rect x="361" y="131" width="8" height="8" rx="4" transform="rotate(-90 361 131)" fill="#3794FF"/>
<rect x="313" y="131" width="8" height="8" rx="4" transform="rotate(-90 313 131)" fill="#3794FF"/>
<rect x="325" y="131" width="8" height="8" rx="4" transform="rotate(-90 325 131)" fill="#3794FF"/>
<rect x="397" y="115" width="24" height="8" rx="4" fill="#3794FF"/>
<rect x="473" y="131" width="20" height="8" rx="4" transform="rotate(-90 473 131)" fill="#3794FF"/>
<rect x="485" y="131" width="18" height="8" rx="4" transform="rotate(-90 485 131)" fill="#3794FF"/>
<rect x="497" y="131" width="16" height="8" rx="4" transform="rotate(-90 497 131)" fill="#3794FF"/>
<rect x="449" y="131" width="22" height="8" rx="4" transform="rotate(-90 449 131)" fill="#3794FF"/>
<rect x="461" y="131" width="24" height="8" rx="4" transform="rotate(-90 461 131)" fill="#3794FF"/>
<rect x="176" y="89" width="58" height="8" rx="4" fill="#A0A0A0"/>
<rect x="244" y="89" width="58" height="8" rx="4" fill="#A0A0A0"/>
<rect x="312" y="89" width="58" height="8" rx="4" fill="#A0A0A0"/>
<rect x="380" y="89" width="58" height="8" rx="4" fill="#A0A0A0"/>
<rect x="448" y="89" width="58" height="8" rx="4" fill="#A0A0A0"/>
<rect x="176" y="141" width="58" height="8" rx="4" fill="#CCCCCC"/>
<rect x="244" y="141" width="58" height="8" rx="4" fill="#CCCCCC"/>
<rect x="312" y="141" width="58" height="8" rx="4" fill="#CCCCCC"/>
<rect x="380" y="141" width="58" height="8" rx="4" fill="#CCCCCC"/>
<rect x="448" y="141" width="58" height="8" rx="4" fill="#CCCCCC"/>
<rect x="176" y="159" width="58" height="8" rx="4" fill="#CCCCCC"/>
<rect x="244" y="159" width="58" height="8" rx="4" fill="#CCCCCC"/>
<rect x="312" y="159" width="58" height="8" rx="4" fill="#CCCCCC"/>
<rect x="380" y="159" width="58" height="8" rx="4" fill="#CCCCCC"/>
<rect x="448" y="159" width="58" height="8" rx="4" fill="#CCCCCC"/>
<rect x="176" y="177" width="58" height="8" rx="4" fill="#CCCCCC"/>
<rect x="244" y="177" width="58" height="8" rx="4" fill="#CCCCCC"/>
<rect x="312" y="177" width="58" height="8" rx="4" fill="#CCCCCC"/>
<rect x="380" y="177" width="58" height="8" rx="4" fill="#CCCCCC"/>
<rect x="448" y="177" width="58" height="8" rx="4" fill="#CCCCCC"/>
<rect x="176" y="231" width="58" height="8" rx="4" fill="#CCCCCC"/>
<rect x="244" y="231" width="58" height="8" rx="4" fill="#CCCCCC"/>
<rect x="312" y="231" width="58" height="8" rx="4" fill="#CCCCCC"/>
<rect x="380" y="231" width="58" height="8" rx="4" fill="#CCCCCC"/>
<rect x="448" y="231" width="58" height="8" rx="4" fill="#CCCCCC"/>
<rect x="176" y="285" width="58" height="8" rx="4" fill="#CCCCCC"/>
<rect x="244" y="285" width="58" height="8" rx="4" fill="#CCCCCC"/>
<rect x="312" y="285" width="58" height="8" rx="4" fill="#CCCCCC"/>
<rect x="380" y="285" width="58" height="8" rx="4" fill="#CCCCCC"/>
<rect x="448" y="285" width="58" height="8" rx="4" fill="#CCCCCC"/>
<rect x="176" y="195" width="58" height="8" rx="4" fill="#CCCCCC"/>
<rect x="244" y="195" width="58" height="8" rx="4" fill="#CCCCCC"/>
<rect x="312" y="195" width="58" height="8" rx="4" fill="#CCCCCC"/>
<rect x="380" y="195" width="58" height="8" rx="4" fill="#CCCCCC"/>
<rect x="448" y="195" width="58" height="8" rx="4" fill="#CCCCCC"/>
<rect x="176" y="249" width="58" height="8" rx="4" fill="#CCCCCC"/>
<rect x="244" y="249" width="58" height="8" rx="4" fill="#CCCCCC"/>
<rect x="312" y="249" width="58" height="8" rx="4" fill="#CCCCCC"/>
<rect x="380" y="249" width="58" height="8" rx="4" fill="#CCCCCC"/>
<rect x="448" y="249" width="58" height="8" rx="4" fill="#CCCCCC"/>
<rect x="176" y="303" width="58" height="8" rx="4" fill="#CCCCCC"/>
<rect x="244" y="303" width="58" height="8" rx="4" fill="#CCCCCC"/>
<rect x="312" y="303" width="58" height="8" rx="4" fill="#CCCCCC"/>
<rect x="380" y="303" width="58" height="8" rx="4" fill="#CCCCCC"/>
<rect x="448" y="303" width="58" height="8" rx="4" fill="#CCCCCC"/>
<rect x="176" y="213" width="58" height="8" rx="4" fill="#CCCCCC"/>
<rect x="244" y="213" width="58" height="8" rx="4" fill="#CCCCCC"/>
<rect x="312" y="213" width="58" height="8" rx="4" fill="#CCCCCC"/>
<rect x="380" y="213" width="58" height="8" rx="4" fill="#CCCCCC"/>
<rect x="448" y="213" width="58" height="8" rx="4" fill="#CCCCCC"/>
<rect x="176" y="267" width="58" height="8" rx="4" fill="#CCCCCC"/>
<rect x="244" y="267" width="58" height="8" rx="4" fill="#CCCCCC"/>
<rect x="312" y="267" width="58" height="8" rx="4" fill="#CCCCCC"/>
<rect x="380" y="267" width="58" height="8" rx="4" fill="#CCCCCC"/>
<rect x="448" y="267" width="58" height="8" rx="4" fill="#CCCCCC"/>
<circle cx="273" cy="118.5" r="12" fill="#3794FF"/>
<path fill-rule="evenodd" clip-rule="evenodd" d="M178 65L179 64H188L189 65V77L188 78H179L178 77V65ZM179 65V77H188V65H179ZM180 67L181 66H186L187 67V68L186 69H181L180 68V67ZM181 67V68H186V67H181ZM191 68H190V70H191V68ZM190 71H191V73H190V71ZM191 74H190V76H191V74Z" fill="#3794FF"/>
<path fill-rule="evenodd" clip-rule="evenodd" d="M219.5 65H207.5L207 65.5V76.5L207.5 77H219.5L220 76.5V74V73V71V70V65.5L219.5 65ZM219 68V70H216V68H219ZM215 68V70H212V68H215ZM215 71H212V73H215V71ZM215 74H212V76H215V74ZM216 76H219V74H216V76ZM216 73V71H219V73H216ZM211 68V70H208V68H211ZM208 73L208 71H211V73H208ZM208 74L208 76H211V74H208ZM219 67H208V66H219V67Z" fill="#3794FF"/>
<path d="M219.5 65H207.5L207 65.5V76.5L207.5 77H219.5L220 76.5V74V73V71V70V65.5L219.5 65ZM208 66H219V67H208V66ZM215 70H212V68H215V70ZM215 71V73H212V71H215ZM208 68H211V70H208V68ZM208 71H211V73H208V71ZM208 76V74H211V76H208ZM212 76V74H215V76H212ZM219 76H216V74H219V76ZM219 73H216V71H219V73ZM216 70V68H219V70H216Z" fill="#BBBBBB"/>
</g>
<circle cx="191" cy="75" r="7.5" fill="#E8825D" fill-opacity="0.4" stroke="#E8825D"/>
<defs>
<filter id="filter0_d_1202_422068" x="0" y="20" width="208" height="353" filterUnits="userSpaceOnUse" color-interpolation-filters="sRGB">
<feFlood flood-opacity="0" result="BackgroundImageFix"/>
<feColorMatrix in="SourceAlpha" type="matrix" values="0 0 0 0 0 0 0 0 0 0 0 0 0 0 0 0 0 0 127 0" result="hardAlpha"/>
<feOffset dy="2"/>
<feGaussianBlur stdDeviation="4"/>
<feColorMatrix type="matrix" values="0 0 0 0 0 0 0 0 0 0 0 0 0 0 0 0 0 0 0.4 0"/>
<feBlend mode="normal" in2="BackgroundImageFix" result="effect1_dropShadow_1202_422068"/>
<feBlend mode="normal" in="SourceGraphic" in2="effect1_dropShadow_1202_422068" result="shape"/>
</filter>
<filter id="filter1_d_1202_422068" x="136" y="0" width="411" height="350" filterUnits="userSpaceOnUse" color-interpolation-filters="sRGB">
<feFlood flood-opacity="0" result="BackgroundImageFix"/>
<feColorMatrix in="SourceAlpha" type="matrix" values="0 0 0 0 0 0 0 0 0 0 0 0 0 0 0 0 0 0 127 0" result="hardAlpha"/>
<feOffset dy="2"/>
<feGaussianBlur stdDeviation="8"/>
<feColorMatrix type="matrix" values="0 0 0 0 0 0 0 0 0 0 0 0 0 0 0 0 0 0 0.36 0"/>
<feBlend mode="normal" in2="BackgroundImageFix" result="effect1_dropShadow_1202_422068"/>
<feBlend mode="normal" in="SourceGraphic" in2="effect1_dropShadow_1202_422068" result="shape"/>
</filter>
<clipPath id="clip0_1202_422068">
<rect width="210" height="35" fill="white" transform="translate(152 14)"/>
</clipPath>
<clipPath id="clip1_1202_422068">
<rect width="87" height="35" fill="white" transform="translate(152 14)"/>
</clipPath>
<clipPath id="clip2_1202_422068">
<rect width="16" height="16" fill="white" transform="translate(252 23.5)"/>
</clipPath>
<clipPath id="clip3_1202_422068">
<rect width="16" height="16" fill="white" transform="translate(252 23.4355)"/>
</clipPath>
</defs>
</svg>
