<svg width="548" height="373" viewBox="0 0 548 373" fill="none" xmlns="http://www.w3.org/2000/svg">
<g filter="url(#filter0_d_1202_420836)">
<rect width="192" height="337" transform="translate(8.5 26)" fill="white"/>
<path d="M26.3019 54.6074H25.3053V48.1875H29.3139V49.0461H26.3019V51.0793H29.0603V51.9202H26.3019V54.6074ZM31.6051 54.6074H30.6085V48.1875H31.6051V54.6074ZM37.2198 53.7399V54.6074H33.2157V48.1875H34.2122V53.7399H37.2198ZM42.5586 53.7488V54.6074H38.4833V48.1875H42.5586V49.0461H39.4799V50.9236H42.394V51.7511H39.4799V53.7488H42.5586ZM50.5669 53.7488V54.6074H46.4916V48.1875H50.5669V49.0461H47.4882V50.9236H50.4023V51.7511H47.4882V53.7488H50.5669ZM51.5991 54.6074L53.7435 51.3774L51.6213 48.1875H52.8092L54.3708 50.6389H54.4465L56.0348 48.1875H57.1559L54.9759 51.4086L57.1159 54.6074H55.9502L54.3753 52.1916H54.2996L52.7024 54.6074H51.5991ZM58.3616 48.1875H60.8753C62.1299 48.1875 62.9931 49.0506 62.9931 50.3141C62.9931 51.5509 62.1033 52.414 60.8442 52.414H59.3582V54.6074H58.3616V48.1875ZM59.3582 49.0283V51.5776H60.6128C61.4715 51.5776 61.9742 51.1194 61.9742 50.3141C61.9742 49.4821 61.4893 49.0283 60.6128 49.0283H59.3582ZM68.283 53.7399V54.6074H64.2788V48.1875H65.2754V53.7399H68.283ZM72.0424 48.0317C73.8887 48.0317 75.0366 49.3309 75.0366 51.3952C75.0366 53.4551 73.8976 54.7631 72.0424 54.7631C70.1738 54.7631 69.0437 53.4596 69.0437 51.3952C69.0437 49.3264 70.2005 48.0317 72.0424 48.0317ZM72.0424 48.9127C70.8278 48.9127 70.0626 49.8736 70.0626 51.3952C70.0626 52.9034 70.8056 53.8822 72.0424 53.8822C73.2614 53.8822 74.0178 52.9034 74.0178 51.3952C74.0178 49.8736 73.257 48.9127 72.0424 48.9127ZM77.3857 52.1382V54.6074H76.3891V48.1875H78.9295C80.2242 48.1875 81.0561 48.9527 81.0561 50.1495C81.0561 51.017 80.5934 51.72 79.8104 51.9825L81.2519 54.6074H80.0996L78.7916 52.1382H77.3857ZM77.3857 49.0239V51.3196H78.8183C79.588 51.3196 80.0329 50.9058 80.0329 50.1717C80.0329 49.4554 79.5613 49.0239 78.7916 49.0239H77.3857ZM86.5507 53.7488V54.6074H82.4754V48.1875H86.5507V49.0461H83.472V50.9236H86.3861V51.7511H83.472V53.7488H86.5507ZM88.9888 52.1382V54.6074H87.9922V48.1875H90.5326C91.8273 48.1875 92.6592 48.9527 92.6592 50.1495C92.6592 51.017 92.1965 51.72 91.4135 51.9825L92.855 54.6074H91.7027L90.3947 52.1382H88.9888ZM88.9888 49.0239V51.3196H90.4214C91.191 51.3196 91.636 50.9058 91.636 50.1717C91.636 49.4554 91.1644 49.0239 90.3947 49.0239H88.9888Z" fill="#CCCCCC"/>
<path d="M30.5 79.08L34.82 74.7067L35.46 75.3467L30.7667 79.9867H30.18L25.4867 75.3467L26.1267 74.7067L30.5 79.08Z" fill="#808080"/>
<path d="M47.269 73.6587H49.7651C51.6504 73.6587 52.7402 74.7969 52.7402 76.7876C52.7402 78.8398 51.6636 80 49.7651 80H47.269V73.6587ZM48.5962 74.7529V78.9058H49.5542C50.7275 78.9058 51.3867 78.1675 51.3867 76.8096C51.3867 75.5 50.7056 74.7529 49.5542 74.7529H48.5962ZM57.7852 80L57.3062 78.4619H55.0781L54.5903 80H53.2588L55.4604 73.6587H57.0205L59.2222 80H57.7852ZM56.1592 74.9463L55.3638 77.4688H57.0249L56.2383 74.9463H56.1592ZM62.4829 80H61.1558V74.7529H59.2529V73.6587H64.3857V74.7529H62.4829V80ZM68.9473 80L68.4683 78.4619H66.2402L65.7524 80H64.4209L66.6226 73.6587H68.1826L70.3843 80H68.9473ZM67.3213 74.9463L66.5259 77.4688H68.187L67.4004 74.9463H67.3213Z" fill="#A0A0A0"/>
<path fill-rule="evenodd" clip-rule="evenodd" d="M34 95H22L21.5 95.5V106.5L22 107H34L34.5 106.5V104V103V101V100V95.5L34 95ZM33.5 98V100H30.5V98H33.5ZM29.5 98V100H26.5V98H29.5ZM29.5 101H26.5V103H29.5V101ZM29.5 104H26.5V106H29.5V104ZM30.5 106H33.5V104H30.5V106ZM30.5 103V101H33.5V103H30.5ZM25.5 98V100H22.5V98H25.5ZM22.5 103L22.5 101H25.5V103H22.5ZM22.5 104L22.5 106H25.5V104H22.5ZM33.5 97H22.5V96H33.5V97Z" fill="#C4C4C4"/>
<path d="M34 95H22L21.5 95.5V106.5L22 107H34L34.5 106.5V104V103V101V100V95.5L34 95ZM22.5 96H33.5V97H22.5V96ZM29.5 100H26.5V98H29.5V100ZM29.5 101V103H26.5V101H29.5ZM22.5 98H25.5V100H22.5V98ZM22.5 101H25.5V103H22.5V101ZM22.5 106V104H25.5V106H22.5ZM26.5 106V104H29.5V106H26.5ZM33.5 106H30.5V104H33.5V106ZM33.5 103H30.5V101H33.5V103ZM30.5 100V98H33.5V100H30.5Z" fill="#808080"/>
<path d="M44.8774 104.075C43.6558 104.075 42.9043 103.117 42.9043 101.574C42.9043 100.036 43.6602 99.0825 44.8774 99.0825C45.5322 99.0825 46.0728 99.3989 46.3232 99.9351H46.3979V97.3115H47.6768V104H46.4375V103.24H46.3584C46.0991 103.763 45.5498 104.075 44.8774 104.075ZM45.3125 100.12C44.6313 100.12 44.2183 100.669 44.2183 101.579C44.2183 102.493 44.627 103.042 45.3125 103.042C45.998 103.042 46.4111 102.488 46.4111 101.583C46.4111 100.678 45.9937 100.12 45.3125 100.12ZM50.3311 104.075C49.3994 104.075 48.7446 103.503 48.7446 102.62C48.7446 101.746 49.417 101.236 50.6211 101.166L51.7944 101.095V100.695C51.7944 100.278 51.5044 100.036 50.9771 100.036C50.5156 100.036 50.208 100.199 50.1025 100.502H48.9248C49.0083 99.6143 49.8301 99.0562 51.0474 99.0562C52.3306 99.0562 53.0557 99.6626 53.0557 100.695V104H51.8164V103.358H51.7373C51.4868 103.807 50.9595 104.075 50.3311 104.075ZM50.7529 103.139C51.3462 103.139 51.7944 102.748 51.7944 102.238V101.877L50.8145 101.943C50.2651 101.979 49.9971 102.185 49.9971 102.541C49.9971 102.915 50.3091 103.139 50.7529 103.139ZM54.6772 98.0059H55.9561V99.2056H56.9624V100.177H55.9561V102.4C55.9561 102.835 56.1494 103.038 56.5845 103.038C56.7515 103.038 56.8394 103.029 56.9624 103.016V103.96C56.8042 103.991 56.5669 104.018 56.3208 104.018C55.1431 104.018 54.6772 103.635 54.6772 102.695V100.177H53.9214V99.2056H54.6772V98.0059ZM59.3574 104.075C58.4258 104.075 57.771 103.503 57.771 102.62C57.771 101.746 58.4434 101.236 59.6475 101.166L60.8208 101.095V100.695C60.8208 100.278 60.5308 100.036 60.0034 100.036C59.542 100.036 59.2344 100.199 59.1289 100.502H57.9512C58.0347 99.6143 58.8564 99.0562 60.0737 99.0562C61.3569 99.0562 62.082 99.6626 62.082 100.695V104H60.8428V103.358H60.7637C60.5132 103.807 59.9858 104.075 59.3574 104.075ZM59.7793 103.139C60.3726 103.139 60.8208 102.748 60.8208 102.238V101.877L59.8408 101.943C59.2915 101.979 59.0234 102.185 59.0234 102.541C59.0234 102.915 59.3354 103.139 59.7793 103.139ZM64.2617 104.11C63.7915 104.11 63.4839 103.793 63.4839 103.363C63.4839 102.932 63.7915 102.62 64.2617 102.62C64.7363 102.62 65.0396 102.932 65.0396 103.363C65.0396 103.793 64.7363 104.11 64.2617 104.11ZM70.5811 100.849H69.3857C69.2979 100.383 68.9683 100.076 68.4233 100.076C67.7334 100.076 67.3467 100.607 67.3467 101.57C67.3467 102.545 67.7378 103.086 68.4233 103.086C68.9463 103.086 69.2891 102.827 69.3857 102.343H70.5811C70.4756 103.407 69.6846 104.101 68.4233 104.101C66.9116 104.101 66.0547 103.183 66.0547 101.57C66.0547 99.9746 66.9072 99.0562 68.4233 99.0562C69.7065 99.0562 70.4756 99.7681 70.5811 100.849ZM71.4731 100.572C71.4731 99.667 72.2817 99.0562 73.4902 99.0562C74.7207 99.0562 75.4458 99.5703 75.5161 100.484H74.334C74.2681 100.164 73.9736 99.9658 73.499 99.9658C73.042 99.9658 72.7036 100.181 72.7036 100.498C72.7036 100.744 72.9102 100.897 73.3584 100.999L74.2681 101.196C75.2085 101.403 75.6304 101.798 75.6304 102.519C75.6304 103.477 74.7646 104.101 73.4946 104.101C72.2158 104.101 71.4424 103.578 71.3545 102.664H72.6025C72.6992 102.998 73.0112 103.196 73.521 103.196C74.0176 103.196 74.3604 102.976 74.3604 102.655C74.3604 102.409 74.1758 102.26 73.7495 102.163L72.8706 101.965C71.9302 101.759 71.4731 101.315 71.4731 100.572ZM80.9302 99.1616L79.2559 104H77.8145L76.1313 99.1616H77.5068L78.5088 102.8H78.5879L79.5811 99.1616H80.9302Z" fill="#808080"/>
<path fill-rule="evenodd" clip-rule="evenodd" d="M22.5 119L23.5 118H32.5L33.5 119V131L32.5 132H23.5L22.5 131V119ZM23.5 119V131H32.5V119H23.5ZM24.5 121L25.5 120H30.5L31.5 121V122L30.5 123H25.5L24.5 122V121ZM25.5 121V122H30.5V121H25.5ZM35.5 122H34.5V124H35.5V122ZM34.5 125H35.5V127H34.5V125ZM35.5 128H34.5V130H35.5V128Z" fill="#808080"/>
<rect x="42.5" y="121.5" width="98" height="7" rx="3.5" fill="#BBBBBB"/>
<path fill-rule="evenodd" clip-rule="evenodd" d="M22.5 143L23.5 142H32.5L33.5 143V155L32.5 156H23.5L22.5 155V143ZM23.5 143V155H32.5V143H23.5ZM24.5 145L25.5 144H30.5L31.5 145V146L30.5 147H25.5L24.5 146V145ZM25.5 145V146H30.5V145H25.5ZM35.5 146H34.5V148H35.5V146ZM34.5 149H35.5V151H34.5V149ZM35.5 152H34.5V154H35.5V152Z" fill="#808080"/>
<rect x="42.5" y="145.5" width="98" height="7" rx="3.5" fill="#BBBBBB"/>
</g>
<g filter="url(#filter1_d_1202_420836)">
<rect width="379" height="318" transform="translate(152.5 14)" fill="white"/>
<rect width="379" height="35" transform="translate(152.5 14)" fill="#F0F0F0"/>
<g clip-path="url(#clip0_1202_420836)">
<rect width="117" height="35" transform="translate(152.5 14)" fill="white"/>
<rect width="117" height="35" transform="translate(152.5 14)" fill="white"/>
<path fill-rule="evenodd" clip-rule="evenodd" d="M166.5 25.5L167.5 24.5H176.5L177.5 25.5V37.5L176.5 38.5H167.5L166.5 37.5V25.5ZM167.5 25.5V37.5H176.5V25.5H167.5ZM168.5 27.5L169.5 26.5H174.5L175.5 27.5V28.5L174.5 29.5H169.5L168.5 28.5V27.5ZM169.5 27.5V28.5H174.5V27.5H169.5ZM179.5 28.5H178.5V30.5H179.5V28.5ZM178.5 31.5H179.5V33.5H178.5V31.5ZM179.5 34.5H178.5V36.5H179.5V34.5Z" fill="#808080"/>
<path d="M186.539 34.5H185.269V28.1587H186.376L189.294 32.1973H189.374V28.1587H190.644V34.5H189.545L186.618 30.4438H186.539V34.5ZM194.208 34.6011C192.718 34.6011 191.821 33.6562 191.821 32.0786C191.821 30.5142 192.731 29.5562 194.208 29.5562C195.684 29.5562 196.594 30.5098 196.594 32.0786C196.594 33.6606 195.697 34.6011 194.208 34.6011ZM194.208 33.5903C194.889 33.5903 195.28 33.0366 195.28 32.0786C195.28 31.1294 194.884 30.5713 194.208 30.5713C193.526 30.5713 193.135 31.1294 193.135 32.0786C193.135 33.0366 193.522 33.5903 194.208 33.5903ZM198.004 28.5059H199.283V29.7056H200.29V30.6768H199.283V32.9004C199.283 33.3354 199.477 33.5376 199.912 33.5376C200.079 33.5376 200.167 33.5288 200.29 33.5156V34.4604C200.131 34.4912 199.894 34.5176 199.648 34.5176C198.47 34.5176 198.004 34.1353 198.004 33.1948V30.6768H197.249V29.7056H198.004V28.5059ZM204.456 33.1333H205.646C205.458 34.0342 204.618 34.6011 203.432 34.6011C201.955 34.6011 201.085 33.6694 201.085 32.105C201.085 30.5317 201.973 29.5562 203.414 29.5562C204.842 29.5562 205.686 30.4702 205.686 31.9995V32.3818H202.359V32.4478C202.377 33.186 202.799 33.6475 203.467 33.6475C203.972 33.6475 204.319 33.4629 204.456 33.1333ZM203.418 30.5098C202.825 30.5098 202.408 30.936 202.364 31.5864H204.429C204.403 30.9229 204.016 30.5098 203.418 30.5098ZM209.593 34.5747C208.907 34.5747 208.358 34.2671 208.099 33.7397H208.02V34.5H206.78V27.8115H208.059V30.4351H208.138C208.384 29.9033 208.929 29.5825 209.593 29.5825C210.819 29.5825 211.557 30.5186 211.557 32.0786C211.557 33.6299 210.81 34.5747 209.593 34.5747ZM209.149 30.6196C208.477 30.6196 208.05 31.1821 208.046 32.083C208.05 32.9839 208.472 33.542 209.149 33.542C209.83 33.542 210.243 32.9883 210.243 32.0786C210.243 31.1777 209.826 30.6196 209.149 30.6196ZM214.748 34.6011C213.258 34.6011 212.361 33.6562 212.361 32.0786C212.361 30.5142 213.271 29.5562 214.748 29.5562C216.224 29.5562 217.134 30.5098 217.134 32.0786C217.134 33.6606 216.237 34.6011 214.748 34.6011ZM214.748 33.5903C215.429 33.5903 215.82 33.0366 215.82 32.0786C215.82 31.1294 215.424 30.5713 214.748 30.5713C214.066 30.5713 213.675 31.1294 213.675 32.0786C213.675 33.0366 214.062 33.5903 214.748 33.5903ZM220.329 34.6011C218.839 34.6011 217.942 33.6562 217.942 32.0786C217.942 30.5142 218.852 29.5562 220.329 29.5562C221.805 29.5562 222.715 30.5098 222.715 32.0786C222.715 33.6606 221.818 34.6011 220.329 34.6011ZM220.329 33.5903C221.01 33.5903 221.401 33.0366 221.401 32.0786C221.401 31.1294 221.005 30.5713 220.329 30.5713C219.647 30.5713 219.256 31.1294 219.256 32.0786C219.256 33.0366 219.643 33.5903 220.329 33.5903ZM225.163 31.5732L226.784 29.6616H228.239L226.393 31.7358L228.366 34.5H226.85L225.435 32.5093L225.083 32.874V34.5H223.805V27.8115H225.083V31.5732H225.163ZM230.098 34.6099C229.627 34.6099 229.32 34.2935 229.32 33.8628C229.32 33.4321 229.627 33.1201 230.098 33.1201C230.572 33.1201 230.875 33.4321 230.875 33.8628C230.875 34.2935 230.572 34.6099 230.098 34.6099ZM232.954 28.9189C232.559 28.9189 232.229 28.6025 232.229 28.207C232.229 27.8071 232.559 27.4907 232.954 27.4907C233.35 27.4907 233.675 27.8071 233.675 28.207C233.675 28.6025 233.35 28.9189 232.954 28.9189ZM232.312 34.5V29.6616H233.591V34.5H232.312ZM237.687 29.5825C238.913 29.5825 239.665 30.5186 239.665 32.0786C239.665 33.6343 238.922 34.5747 237.709 34.5747C237.015 34.5747 236.483 34.2715 236.246 33.7617H236.167V36.104H234.888V29.6616H236.127V30.457H236.206C236.47 29.9121 237.019 29.5825 237.687 29.5825ZM237.252 33.542C237.942 33.542 238.351 32.9927 238.351 32.0786C238.351 31.1689 237.938 30.6196 237.256 30.6196C236.575 30.6196 236.153 31.1777 236.153 32.083C236.153 32.9883 236.575 33.542 237.252 33.542ZM241.106 36.2578C241.058 36.2578 240.671 36.2534 240.618 36.2446V35.2471C240.662 35.2559 240.855 35.2603 240.908 35.2603C241.387 35.2603 241.66 35.1021 241.765 34.7109L241.809 34.5264L240.108 29.6616H241.519L242.539 33.353H242.618L243.637 29.6616H244.991L243.321 34.5923C242.908 35.8271 242.314 36.2578 241.106 36.2578ZM245.883 34.5V29.6616H247.122V30.4395H247.201C247.425 29.8945 247.917 29.5562 248.634 29.5562C249.71 29.5562 250.291 30.2153 250.291 31.3711V34.5H249.012V31.6611C249.012 30.98 248.726 30.624 248.12 30.624C247.526 30.624 247.162 31.0459 247.162 31.7007V34.5H245.883ZM254.391 34.5747C253.705 34.5747 253.156 34.2671 252.896 33.7397H252.817V34.5H251.578V27.8115H252.857V30.4351H252.936C253.182 29.9033 253.727 29.5825 254.391 29.5825C255.617 29.5825 256.355 30.5186 256.355 32.0786C256.355 33.6299 255.608 34.5747 254.391 34.5747ZM253.947 30.6196C253.274 30.6196 252.848 31.1821 252.844 32.083C252.848 32.9839 253.27 33.542 253.947 33.542C254.628 33.542 255.041 32.9883 255.041 32.0786C255.041 31.1777 254.624 30.6196 253.947 30.6196Z" fill="#808080"/>
</g>
<rect x="188.5" y="124" width="159" height="8" rx="4" fill="#CCCCCC"/>
<rect x="188.5" y="72" width="159" height="8" rx="4" fill="#CCCCCC"/>
<rect x="188.5" y="90" width="196" height="8" rx="4" fill="#CCCCCC"/>
<rect x="176.5" y="115.5" width="42" height="8" rx="4" transform="rotate(90 176.5 115.5)" fill="#3794FF"/>
<rect x="181" y="116.5" width="330" height="41" rx="7.5" stroke="#007ACC"/>
<rect x="180.5" y="203" width="58" height="8" rx="4" fill="#CCCCCC"/>
<rect x="248.5" y="203" width="58" height="8" rx="4" fill="#CCCCCC"/>
<rect x="316.5" y="203" width="58" height="8" rx="4" fill="#CCCCCC"/>
<rect x="384.5" y="203" width="58" height="8" rx="4" fill="#CCCCCC"/>
<rect x="452.5" y="203" width="58" height="8" rx="4" fill="#CCCCCC"/>
<rect x="180.5" y="221" width="58" height="8" rx="4" fill="#CCCCCC"/>
<rect x="248.5" y="221" width="58" height="8" rx="4" fill="#CCCCCC"/>
<rect x="316.5" y="221" width="58" height="8" rx="4" fill="#CCCCCC"/>
<rect x="384.5" y="221" width="58" height="8" rx="4" fill="#CCCCCC"/>
<rect x="452.5" y="221" width="58" height="8" rx="4" fill="#CCCCCC"/>
<rect x="180.5" y="239" width="58" height="8" rx="4" fill="#CCCCCC"/>
<rect x="248.5" y="239" width="58" height="8" rx="4" fill="#CCCCCC"/>
<rect x="316.5" y="239" width="58" height="8" rx="4" fill="#CCCCCC"/>
<rect x="384.5" y="239" width="58" height="8" rx="4" fill="#CCCCCC"/>
<rect x="452.5" y="239" width="58" height="8" rx="4" fill="#CCCCCC"/>
<rect x="180.5" y="257" width="58" height="8" rx="4" fill="#CCCCCC"/>
<rect x="248.5" y="257" width="58" height="8" rx="4" fill="#CCCCCC"/>
<rect x="316.5" y="257" width="58" height="8" rx="4" fill="#CCCCCC"/>
<rect x="384.5" y="257" width="58" height="8" rx="4" fill="#CCCCCC"/>
<rect x="452.5" y="257" width="58" height="8" rx="4" fill="#CCCCCC"/>
<rect x="180.5" y="185" width="58" height="8" rx="4" fill="#CCCCCC"/>
<rect x="248.5" y="185" width="58" height="8" rx="4" fill="#CCCCCC"/>
<rect x="316.5" y="185" width="58" height="8" rx="4" fill="#CCCCCC"/>
<rect x="384.5" y="185" width="58" height="8" rx="4" fill="#CCCCCC"/>
<rect x="452.5" y="185" width="58" height="8" rx="4" fill="#CCCCCC"/>
<rect x="181" y="64.5" width="330" height="41" rx="7.5" stroke="#BBBBBB"/>
<g clip-path="url(#clip1_1202_420836)">
<g clip-path="url(#clip2_1202_420836)">
<path d="M202 180.936C201.872 180.936 201.744 180.887 201.646 180.79C201.451 180.595 201.451 180.278 201.646 180.083L203.292 178.437L201.646 176.791C201.451 176.596 201.451 176.279 201.646 176.084C201.841 175.889 202.158 175.889 202.353 176.084L204.353 178.084C204.548 178.279 204.548 178.596 204.353 178.791L202.353 180.791C202.255 180.889 202.127 180.937 201.999 180.937L202 180.936Z" fill="#0078D4"/>
<path d="M199 180.936C198.872 180.936 198.744 180.887 198.646 180.79C198.451 180.595 198.451 180.278 198.646 180.083L200.292 178.437L198.646 176.791C198.451 176.596 198.451 176.279 198.646 176.084C198.841 175.889 199.158 175.889 199.353 176.084L201.353 178.084C201.548 178.279 201.548 178.596 201.353 178.791L199.353 180.791C199.255 180.889 199.127 180.937 198.999 180.937L199 180.936Z" fill="#0078D4"/>
<path d="M196 180.936C195.872 180.936 195.744 180.887 195.646 180.79C195.451 180.595 195.451 180.278 195.646 180.083L197.292 178.437L195.646 176.791C195.451 176.596 195.451 176.279 195.646 176.084C195.841 175.889 196.158 175.889 196.353 176.084L198.353 178.084C198.548 178.279 198.548 178.596 198.353 178.791L196.353 180.791C196.255 180.889 196.127 180.937 195.999 180.937L196 180.936Z" fill="#0078D4"/>
<path d="M194.5 176.436C194.5 176.262 194.535 176.095 194.591 175.936H193.194L192.754 177.896C192.754 177.901 192.751 177.909 192.749 177.916C192.747 177.924 192.744 177.931 192.744 177.936H195.378L194.939 177.497C194.656 177.214 194.5 176.837 194.5 176.436ZM189.704 172.936L189.264 174.896C189.264 174.901 189.261 174.909 189.259 174.916C189.256 174.924 189.254 174.931 189.254 174.936H192.394L192.844 172.936H189.704ZM203.195 168.871C202.718 168.277 202.007 167.936 201.246 167.936H192.842C191.661 167.936 190.657 168.741 190.402 169.893L189.947 171.936H194.115L193.448 174.936H202C202.272 174.936 202.531 175.013 202.759 175.148L203.686 170.978C203.851 170.234 203.672 169.466 203.195 168.871ZM191.195 170.936L191.379 170.11C191.532 169.419 192.134 168.936 192.843 168.936H194.782L194.337 170.936H191.195ZM197.837 173.936H194.694L195.139 171.936H198.281L197.837 173.936ZM198.505 170.936H195.363L195.808 168.936H198.949L198.505 170.936ZM202.003 173.936H198.861L199.306 171.936H202.449L202.003 173.936ZM202.708 170.762L202.67 170.936H199.527L199.971 168.936H201.243C201.7 168.936 202.127 169.141 202.413 169.497C202.699 169.854 202.807 170.315 202.707 170.762H202.708ZM189.755 176.996C190.235 177.596 190.945 177.936 191.705 177.936H191.725L191.955 176.936L192.175 175.936H189.265C189.335 176.326 189.505 176.686 189.755 176.996Z" fill="#0078D4"/>
</g>
</g>
<path d="M194.527 143.275V139.883H195.605V149H194.527V148.174C194.348 148.498 194.107 148.746 193.807 148.918C193.51 149.086 193.166 149.17 192.775 149.17C191.982 149.17 191.357 148.863 190.9 148.25C190.447 147.633 190.221 146.783 190.221 145.701C190.221 144.635 190.449 143.799 190.906 143.193C191.363 142.584 191.986 142.279 192.775 142.279C193.17 142.279 193.518 142.365 193.818 142.537C194.119 142.705 194.355 142.951 194.527 143.275ZM191.357 145.725C191.357 146.561 191.49 147.191 191.756 147.617C192.021 148.043 192.414 148.256 192.934 148.256C193.453 148.256 193.848 148.041 194.117 147.611C194.391 147.182 194.527 146.553 194.527 145.725C194.527 144.893 194.391 144.264 194.117 143.838C193.848 143.408 193.453 143.193 192.934 143.193C192.414 143.193 192.021 143.406 191.756 143.832C191.49 144.258 191.357 144.889 191.357 145.725ZM202.959 139.883V140.779H201.734C201.348 140.779 201.078 140.859 200.926 141.02C200.777 141.176 200.703 141.455 200.703 141.857V142.438H202.959V143.275H200.703V149H199.625V143.275H197.873V142.438H199.625V141.98C199.625 141.262 199.789 140.732 200.117 140.393C200.449 140.053 200.965 139.883 201.664 139.883H202.959ZM206.24 146.633H208.303V149H206.24V146.633ZM217.35 144.934V149H216.266V144.934C216.266 144.344 216.162 143.91 215.955 143.633C215.748 143.355 215.424 143.217 214.982 143.217C214.479 143.217 214.09 143.396 213.816 143.756C213.547 144.111 213.412 144.623 213.412 145.291V149H212.334V139.883H213.412V143.422C213.604 143.047 213.863 142.764 214.191 142.572C214.52 142.377 214.908 142.279 215.357 142.279C216.025 142.279 216.523 142.5 216.852 142.941C217.184 143.379 217.35 144.043 217.35 144.934ZM224.984 145.18V145.707H220.314V145.742C220.283 146.637 220.453 147.279 220.824 147.67C221.199 148.061 221.727 148.256 222.406 148.256C222.75 148.256 223.109 148.201 223.484 148.092C223.859 147.982 224.26 147.816 224.686 147.594V148.666C224.275 148.834 223.879 148.959 223.496 149.041C223.117 149.127 222.75 149.17 222.395 149.17C221.375 149.17 220.578 148.865 220.004 148.256C219.43 147.643 219.143 146.799 219.143 145.725C219.143 144.678 219.424 143.842 219.986 143.217C220.549 142.592 221.299 142.279 222.236 142.279C223.072 142.279 223.73 142.562 224.211 143.129C224.695 143.695 224.953 144.379 224.984 145.18ZM223.906 144.863C223.859 144.41 223.693 144.02 223.408 143.691C223.127 143.359 222.721 143.193 222.189 143.193C221.67 143.193 221.242 143.365 220.906 143.709C220.57 144.053 220.387 144.439 220.355 144.869L223.906 144.863ZM229.766 145.701H229.408C228.779 145.701 228.305 145.812 227.984 146.035C227.668 146.254 227.51 146.582 227.51 147.02C227.51 147.414 227.629 147.721 227.867 147.939C228.105 148.158 228.436 148.268 228.857 148.268C229.451 148.268 229.918 148.062 230.258 147.652C230.598 147.238 230.77 146.668 230.773 145.941V145.701H229.766ZM231.857 145.256V149H230.773V148.027C230.543 148.418 230.252 148.707 229.9 148.895C229.553 149.078 229.129 149.17 228.629 149.17C227.961 149.17 227.428 148.982 227.029 148.607C226.631 148.229 226.432 147.723 226.432 147.09C226.432 146.359 226.676 145.805 227.164 145.426C227.656 145.047 228.377 144.857 229.326 144.857H230.773V144.688C230.77 144.164 230.637 143.785 230.375 143.551C230.113 143.312 229.695 143.193 229.121 143.193C228.754 143.193 228.383 143.246 228.008 143.352C227.633 143.457 227.268 143.611 226.912 143.814V142.736C227.311 142.584 227.691 142.471 228.055 142.396C228.422 142.318 228.777 142.279 229.121 142.279C229.664 142.279 230.127 142.359 230.51 142.52C230.896 142.68 231.209 142.92 231.447 143.24C231.596 143.436 231.701 143.678 231.764 143.967C231.826 144.252 231.857 144.682 231.857 145.256ZM237.91 143.275V139.883H238.988V149H237.91V148.174C237.73 148.498 237.49 148.746 237.189 148.918C236.893 149.086 236.549 149.17 236.158 149.17C235.365 149.17 234.74 148.863 234.283 148.25C233.83 147.633 233.604 146.783 233.604 145.701C233.604 144.635 233.832 143.799 234.289 143.193C234.746 142.584 235.369 142.279 236.158 142.279C236.553 142.279 236.9 142.365 237.201 142.537C237.502 142.705 237.738 142.951 237.91 143.275ZM234.74 145.725C234.74 146.561 234.873 147.191 235.139 147.617C235.404 148.043 235.797 148.256 236.316 148.256C236.836 148.256 237.23 148.041 237.5 147.611C237.773 147.182 237.91 146.553 237.91 145.725C237.91 144.893 237.773 144.264 237.5 143.838C237.23 143.408 236.836 143.193 236.316 143.193C235.797 143.193 235.404 143.406 235.139 143.832C234.873 144.258 234.74 144.889 234.74 145.725ZM245.123 139.309C244.604 140.199 244.215 141.088 243.957 141.975C243.703 142.857 243.576 143.748 243.576 144.646C243.576 145.541 243.703 146.432 243.957 147.318C244.215 148.205 244.604 149.098 245.123 149.996H244.186C243.596 149.066 243.156 148.162 242.867 147.283C242.578 146.4 242.434 145.521 242.434 144.646C242.434 143.775 242.578 142.898 242.867 142.016C243.156 141.133 243.596 140.23 244.186 139.309H245.123ZM249.383 139.309H250.32C250.91 140.23 251.35 141.133 251.639 142.016C251.928 142.898 252.072 143.775 252.072 144.646C252.072 145.525 251.928 146.406 251.639 147.289C251.35 148.172 250.91 149.074 250.32 149.996H249.383C249.902 149.09 250.289 148.193 250.543 147.307C250.801 146.42 250.93 145.533 250.93 144.646C250.93 143.756 250.801 142.867 250.543 141.98C250.289 141.094 249.902 140.203 249.383 139.309Z" fill="#BBBBBB"/>
</g>
<circle cx="35.5" cy="107" r="7.5" fill="#E8825D" fill-opacity="0.4" stroke="#E8825D"/>
<circle cx="203.5" cy="177" r="7.5" fill="#E8825D" fill-opacity="0.4" stroke="#E8825D"/>
<defs>
<filter id="filter0_d_1202_420836" x="0.5" y="20" width="208" height="353" filterUnits="userSpaceOnUse" color-interpolation-filters="sRGB">
<feFlood flood-opacity="0" result="BackgroundImageFix"/>
<feColorMatrix in="SourceAlpha" type="matrix" values="0 0 0 0 0 0 0 0 0 0 0 0 0 0 0 0 0 0 127 0" result="hardAlpha"/>
<feOffset dy="2"/>
<feGaussianBlur stdDeviation="4"/>
<feColorMatrix type="matrix" values="0 0 0 0 0 0 0 0 0 0 0 0 0 0 0 0 0 0 0.4 0"/>
<feBlend mode="normal" in2="BackgroundImageFix" result="effect1_dropShadow_1202_420836"/>
<feBlend mode="normal" in="SourceGraphic" in2="effect1_dropShadow_1202_420836" result="shape"/>
</filter>
<filter id="filter1_d_1202_420836" x="136.5" y="0" width="411" height="350" filterUnits="userSpaceOnUse" color-interpolation-filters="sRGB">
<feFlood flood-opacity="0" result="BackgroundImageFix"/>
<feColorMatrix in="SourceAlpha" type="matrix" values="0 0 0 0 0 0 0 0 0 0 0 0 0 0 0 0 0 0 127 0" result="hardAlpha"/>
<feOffset dy="2"/>
<feGaussianBlur stdDeviation="8"/>
<feColorMatrix type="matrix" values="0 0 0 0 0 0 0 0 0 0 0 0 0 0 0 0 0 0 0.36 0"/>
<feBlend mode="normal" in2="BackgroundImageFix" result="effect1_dropShadow_1202_420836"/>
<feBlend mode="normal" in="SourceGraphic" in2="effect1_dropShadow_1202_420836" result="shape"/>
</filter>
<clipPath id="clip0_1202_420836">
<rect width="117" height="35" fill="white" transform="translate(152.5 14)"/>
</clipPath>
<clipPath id="clip1_1202_420836">
<rect width="16" height="16" fill="white" transform="translate(188.5 165)"/>
</clipPath>
<clipPath id="clip2_1202_420836">
<rect width="16" height="16" fill="white" transform="translate(188.5 164.936)"/>
</clipPath>
</defs>
</svg>
