<svg width="548" height="373" viewBox="0 0 548 373" fill="none" xmlns="http://www.w3.org/2000/svg">
<g filter="url(#filter0_d_1202_419658)">
<rect width="192" height="337" transform="translate(8.5 26)" fill="#252526"/>
<path d="M26.3019 54.6074H25.3053V48.1875H29.3139V49.0461H26.3019V51.0793H29.0603V51.9202H26.3019V54.6074ZM31.6051 54.6074H30.6085V48.1875H31.6051V54.6074ZM37.2198 53.7399V54.6074H33.2157V48.1875H34.2122V53.7399H37.2198ZM42.5586 53.7488V54.6074H38.4833V48.1875H42.5586V49.0461H39.4799V50.9236H42.394V51.7511H39.4799V53.7488H42.5586ZM50.5669 53.7488V54.6074H46.4916V48.1875H50.5669V49.0461H47.4882V50.9236H50.4023V51.7511H47.4882V53.7488H50.5669ZM51.5991 54.6074L53.7435 51.3774L51.6213 48.1875H52.8092L54.3708 50.6389H54.4465L56.0348 48.1875H57.1559L54.9759 51.4086L57.1159 54.6074H55.9502L54.3753 52.1916H54.2996L52.7024 54.6074H51.5991ZM58.3616 48.1875H60.8753C62.1299 48.1875 62.9931 49.0506 62.9931 50.3141C62.9931 51.5509 62.1033 52.414 60.8442 52.414H59.3582V54.6074H58.3616V48.1875ZM59.3582 49.0283V51.5776H60.6128C61.4715 51.5776 61.9742 51.1194 61.9742 50.3141C61.9742 49.4821 61.4893 49.0283 60.6128 49.0283H59.3582ZM68.283 53.7399V54.6074H64.2788V48.1875H65.2754V53.7399H68.283ZM72.0424 48.0317C73.8887 48.0317 75.0366 49.3309 75.0366 51.3952C75.0366 53.4551 73.8976 54.7631 72.0424 54.7631C70.1738 54.7631 69.0437 53.4596 69.0437 51.3952C69.0437 49.3264 70.2005 48.0317 72.0424 48.0317ZM72.0424 48.9127C70.8278 48.9127 70.0626 49.8736 70.0626 51.3952C70.0626 52.9034 70.8056 53.8822 72.0424 53.8822C73.2614 53.8822 74.0178 52.9034 74.0178 51.3952C74.0178 49.8736 73.257 48.9127 72.0424 48.9127ZM77.3857 52.1382V54.6074H76.3891V48.1875H78.9295C80.2242 48.1875 81.0561 48.9527 81.0561 50.1495C81.0561 51.017 80.5934 51.72 79.8104 51.9825L81.2519 54.6074H80.0996L78.7916 52.1382H77.3857ZM77.3857 49.0239V51.3196H78.8183C79.588 51.3196 80.0329 50.9058 80.0329 50.1717C80.0329 49.4554 79.5613 49.0239 78.7916 49.0239H77.3857ZM86.5507 53.7488V54.6074H82.4754V48.1875H86.5507V49.0461H83.472V50.9236H86.3861V51.7511H83.472V53.7488H86.5507ZM88.9888 52.1382V54.6074H87.9922V48.1875H90.5326C91.8273 48.1875 92.6592 48.9527 92.6592 50.1495C92.6592 51.017 92.1965 51.72 91.4135 51.9825L92.855 54.6074H91.7027L90.3947 52.1382H88.9888ZM88.9888 49.0239V51.3196H90.4214C91.191 51.3196 91.636 50.9058 91.636 50.1717C91.636 49.4554 91.1644 49.0239 90.3947 49.0239H88.9888Z" fill="#CCCCCC"/>
<path d="M30.5 79.08L34.82 74.7067L35.46 75.3467L30.7667 79.9867H30.18L25.4867 75.3467L26.1267 74.7067L30.5 79.08Z" fill="#808080"/>
<path d="M47.269 73.6587H49.7651C51.6504 73.6587 52.7402 74.7969 52.7402 76.7876C52.7402 78.8398 51.6636 80 49.7651 80H47.269V73.6587ZM48.5962 74.7529V78.9058H49.5542C50.7275 78.9058 51.3867 78.1675 51.3867 76.8096C51.3867 75.5 50.7056 74.7529 49.5542 74.7529H48.5962ZM57.7852 80L57.3062 78.4619H55.0781L54.5903 80H53.2588L55.4604 73.6587H57.0205L59.2222 80H57.7852ZM56.1592 74.9463L55.3638 77.4688H57.0249L56.2383 74.9463H56.1592ZM62.4829 80H61.1558V74.7529H59.2529V73.6587H64.3857V74.7529H62.4829V80ZM68.9473 80L68.4683 78.4619H66.2402L65.7524 80H64.4209L66.6226 73.6587H68.1826L70.3843 80H68.9473ZM67.3213 74.9463L66.5259 77.4688H68.187L67.4004 74.9463H67.3213Z" fill="white"/>
<path fill-rule="evenodd" clip-rule="evenodd" d="M34 95H22L21.5 95.5V106.5L22 107H34L34.5 106.5V104V103V101V100V95.5L34 95ZM33.5 98V100H30.5V98H33.5ZM29.5 98V100H26.5V98H29.5ZM29.5 101H26.5V103H29.5V101ZM29.5 104H26.5V106H29.5V104ZM30.5 106H33.5V104H30.5V106ZM30.5 103V101H33.5V103H30.5ZM25.5 98V100H22.5V98H25.5ZM22.5 103L22.5 101H25.5V103H22.5ZM22.5 104L22.5 106H25.5V104H22.5ZM33.5 97H22.5V96H33.5V97Z" fill="#C4C4C4"/>
<path d="M34 95H22L21.5 95.5V106.5L22 107H34L34.5 106.5V104V103V101V100V95.5L34 95ZM22.5 96H33.5V97H22.5V96ZM29.5 100H26.5V98H29.5V100ZM29.5 101V103H26.5V101H29.5ZM22.5 98H25.5V100H22.5V98ZM22.5 101H25.5V103H22.5V101ZM22.5 106V104H25.5V106H22.5ZM26.5 106V104H29.5V106H26.5ZM33.5 106H30.5V104H33.5V106ZM33.5 103H30.5V101H33.5V103ZM30.5 100V98H33.5V100H30.5Z" fill="#C5C5C5"/>
<path d="M44.8774 104.075C43.6558 104.075 42.9043 103.117 42.9043 101.574C42.9043 100.036 43.6602 99.0825 44.8774 99.0825C45.5322 99.0825 46.0728 99.3989 46.3232 99.9351H46.3979V97.3115H47.6768V104H46.4375V103.24H46.3584C46.0991 103.763 45.5498 104.075 44.8774 104.075ZM45.3125 100.12C44.6313 100.12 44.2183 100.669 44.2183 101.579C44.2183 102.493 44.627 103.042 45.3125 103.042C45.998 103.042 46.4111 102.488 46.4111 101.583C46.4111 100.678 45.9937 100.12 45.3125 100.12ZM50.3311 104.075C49.3994 104.075 48.7446 103.503 48.7446 102.62C48.7446 101.746 49.417 101.236 50.6211 101.166L51.7944 101.095V100.695C51.7944 100.278 51.5044 100.036 50.9771 100.036C50.5156 100.036 50.208 100.199 50.1025 100.502H48.9248C49.0083 99.6143 49.8301 99.0562 51.0474 99.0562C52.3306 99.0562 53.0557 99.6626 53.0557 100.695V104H51.8164V103.358H51.7373C51.4868 103.807 50.9595 104.075 50.3311 104.075ZM50.7529 103.139C51.3462 103.139 51.7944 102.748 51.7944 102.238V101.877L50.8145 101.943C50.2651 101.979 49.9971 102.185 49.9971 102.541C49.9971 102.915 50.3091 103.139 50.7529 103.139ZM54.6772 98.0059H55.9561V99.2056H56.9624V100.177H55.9561V102.4C55.9561 102.835 56.1494 103.038 56.5845 103.038C56.7515 103.038 56.8394 103.029 56.9624 103.016V103.96C56.8042 103.991 56.5669 104.018 56.3208 104.018C55.1431 104.018 54.6772 103.635 54.6772 102.695V100.177H53.9214V99.2056H54.6772V98.0059ZM59.3574 104.075C58.4258 104.075 57.771 103.503 57.771 102.62C57.771 101.746 58.4434 101.236 59.6475 101.166L60.8208 101.095V100.695C60.8208 100.278 60.5308 100.036 60.0034 100.036C59.542 100.036 59.2344 100.199 59.1289 100.502H57.9512C58.0347 99.6143 58.8564 99.0562 60.0737 99.0562C61.3569 99.0562 62.082 99.6626 62.082 100.695V104H60.8428V103.358H60.7637C60.5132 103.807 59.9858 104.075 59.3574 104.075ZM59.7793 103.139C60.3726 103.139 60.8208 102.748 60.8208 102.238V101.877L59.8408 101.943C59.2915 101.979 59.0234 102.185 59.0234 102.541C59.0234 102.915 59.3354 103.139 59.7793 103.139ZM64.2617 104.11C63.7915 104.11 63.4839 103.793 63.4839 103.363C63.4839 102.932 63.7915 102.62 64.2617 102.62C64.7363 102.62 65.0396 102.932 65.0396 103.363C65.0396 103.793 64.7363 104.11 64.2617 104.11ZM70.5811 100.849H69.3857C69.2979 100.383 68.9683 100.076 68.4233 100.076C67.7334 100.076 67.3467 100.607 67.3467 101.57C67.3467 102.545 67.7378 103.086 68.4233 103.086C68.9463 103.086 69.2891 102.827 69.3857 102.343H70.5811C70.4756 103.407 69.6846 104.101 68.4233 104.101C66.9116 104.101 66.0547 103.183 66.0547 101.57C66.0547 99.9746 66.9072 99.0562 68.4233 99.0562C69.7065 99.0562 70.4756 99.7681 70.5811 100.849ZM71.4731 100.572C71.4731 99.667 72.2817 99.0562 73.4902 99.0562C74.7207 99.0562 75.4458 99.5703 75.5161 100.484H74.334C74.2681 100.164 73.9736 99.9658 73.499 99.9658C73.042 99.9658 72.7036 100.181 72.7036 100.498C72.7036 100.744 72.9102 100.897 73.3584 100.999L74.2681 101.196C75.2085 101.403 75.6304 101.798 75.6304 102.519C75.6304 103.477 74.7646 104.101 73.4946 104.101C72.2158 104.101 71.4424 103.578 71.3545 102.664H72.6025C72.6992 102.998 73.0112 103.196 73.521 103.196C74.0176 103.196 74.3604 102.976 74.3604 102.655C74.3604 102.409 74.1758 102.26 73.7495 102.163L72.8706 101.965C71.9302 101.759 71.4731 101.315 71.4731 100.572ZM80.9302 99.1616L79.2559 104H77.8145L76.1313 99.1616H77.5068L78.5088 102.8H78.5879L79.5811 99.1616H80.9302Z" fill="#BBBBBB"/>
<path fill-rule="evenodd" clip-rule="evenodd" d="M22.5 119L23.5 118H32.5L33.5 119V131L32.5 132H23.5L22.5 131V119ZM23.5 119V131H32.5V119H23.5ZM24.5 121L25.5 120H30.5L31.5 121V122L30.5 123H25.5L24.5 122V121ZM25.5 121V122H30.5V121H25.5ZM35.5 122H34.5V124H35.5V122ZM34.5 125H35.5V127H34.5V125ZM35.5 128H34.5V130H35.5V128Z" fill="#C5C5C5"/>
<rect x="42.5" y="121.5" width="98" height="7" rx="3.5" fill="white" fill-opacity="0.16"/>
<path fill-rule="evenodd" clip-rule="evenodd" d="M22.5 143L23.5 142H32.5L33.5 143V155L32.5 156H23.5L22.5 155V143ZM23.5 143V155H32.5V143H23.5ZM24.5 145L25.5 144H30.5L31.5 145V146L30.5 147H25.5L24.5 146V145ZM25.5 145V146H30.5V145H25.5ZM35.5 146H34.5V148H35.5V146ZM34.5 149H35.5V151H34.5V149ZM35.5 152H34.5V154H35.5V152Z" fill="#C5C5C5"/>
<rect x="42.5" y="145.5" width="98" height="7" rx="3.5" fill="white" fill-opacity="0.16"/>
</g>
<g filter="url(#filter1_d_1202_419658)">
<rect width="379" height="318" transform="translate(152.5 14)" fill="#252526"/>
<rect width="379" height="35" transform="translate(152.5 14)" fill="#1E1E1E"/>
<g clip-path="url(#clip0_1202_419658)">
<rect width="124" height="35" transform="translate(152.5 14)" fill="#252526"/>
<rect width="117" height="35" transform="translate(152.5 14)" fill="#252526"/>
<path fill-rule="evenodd" clip-rule="evenodd" d="M166.5 25.5L167.5 24.5H176.5L177.5 25.5V37.5L176.5 38.5H167.5L166.5 37.5V25.5ZM167.5 25.5V37.5H176.5V25.5H167.5ZM168.5 27.5L169.5 26.5H174.5L175.5 27.5V28.5L174.5 29.5H169.5L168.5 28.5V27.5ZM169.5 27.5V28.5H174.5V27.5H169.5ZM179.5 28.5H178.5V30.5H179.5V28.5ZM178.5 31.5H179.5V33.5H178.5V31.5ZM179.5 34.5H178.5V36.5H179.5V34.5Z" fill="#EDEBE9"/>
<path d="M186.539 34.5H185.269V28.1587H186.376L189.294 32.1973H189.374V28.1587H190.644V34.5H189.545L186.618 30.4438H186.539V34.5ZM194.208 34.6011C192.718 34.6011 191.821 33.6562 191.821 32.0786C191.821 30.5142 192.731 29.5562 194.208 29.5562C195.684 29.5562 196.594 30.5098 196.594 32.0786C196.594 33.6606 195.697 34.6011 194.208 34.6011ZM194.208 33.5903C194.889 33.5903 195.28 33.0366 195.28 32.0786C195.28 31.1294 194.884 30.5713 194.208 30.5713C193.526 30.5713 193.135 31.1294 193.135 32.0786C193.135 33.0366 193.522 33.5903 194.208 33.5903ZM198.004 28.5059H199.283V29.7056H200.29V30.6768H199.283V32.9004C199.283 33.3354 199.477 33.5376 199.912 33.5376C200.079 33.5376 200.167 33.5288 200.29 33.5156V34.4604C200.131 34.4912 199.894 34.5176 199.648 34.5176C198.47 34.5176 198.004 34.1353 198.004 33.1948V30.6768H197.249V29.7056H198.004V28.5059ZM204.456 33.1333H205.646C205.458 34.0342 204.618 34.6011 203.432 34.6011C201.955 34.6011 201.085 33.6694 201.085 32.105C201.085 30.5317 201.973 29.5562 203.414 29.5562C204.842 29.5562 205.686 30.4702 205.686 31.9995V32.3818H202.359V32.4478C202.377 33.186 202.799 33.6475 203.467 33.6475C203.972 33.6475 204.319 33.4629 204.456 33.1333ZM203.418 30.5098C202.825 30.5098 202.408 30.936 202.364 31.5864H204.429C204.403 30.9229 204.016 30.5098 203.418 30.5098ZM209.593 34.5747C208.907 34.5747 208.358 34.2671 208.099 33.7397H208.02V34.5H206.78V27.8115H208.059V30.4351H208.138C208.384 29.9033 208.929 29.5825 209.593 29.5825C210.819 29.5825 211.557 30.5186 211.557 32.0786C211.557 33.6299 210.81 34.5747 209.593 34.5747ZM209.149 30.6196C208.477 30.6196 208.05 31.1821 208.046 32.083C208.05 32.9839 208.472 33.542 209.149 33.542C209.83 33.542 210.243 32.9883 210.243 32.0786C210.243 31.1777 209.826 30.6196 209.149 30.6196ZM214.748 34.6011C213.258 34.6011 212.361 33.6562 212.361 32.0786C212.361 30.5142 213.271 29.5562 214.748 29.5562C216.224 29.5562 217.134 30.5098 217.134 32.0786C217.134 33.6606 216.237 34.6011 214.748 34.6011ZM214.748 33.5903C215.429 33.5903 215.82 33.0366 215.82 32.0786C215.82 31.1294 215.424 30.5713 214.748 30.5713C214.066 30.5713 213.675 31.1294 213.675 32.0786C213.675 33.0366 214.062 33.5903 214.748 33.5903ZM220.329 34.6011C218.839 34.6011 217.942 33.6562 217.942 32.0786C217.942 30.5142 218.852 29.5562 220.329 29.5562C221.805 29.5562 222.715 30.5098 222.715 32.0786C222.715 33.6606 221.818 34.6011 220.329 34.6011ZM220.329 33.5903C221.01 33.5903 221.401 33.0366 221.401 32.0786C221.401 31.1294 221.005 30.5713 220.329 30.5713C219.647 30.5713 219.256 31.1294 219.256 32.0786C219.256 33.0366 219.643 33.5903 220.329 33.5903ZM225.163 31.5732L226.784 29.6616H228.239L226.393 31.7358L228.366 34.5H226.85L225.435 32.5093L225.083 32.874V34.5H223.805V27.8115H225.083V31.5732H225.163ZM230.098 34.6099C229.627 34.6099 229.32 34.2935 229.32 33.8628C229.32 33.4321 229.627 33.1201 230.098 33.1201C230.572 33.1201 230.875 33.4321 230.875 33.8628C230.875 34.2935 230.572 34.6099 230.098 34.6099ZM232.954 28.9189C232.559 28.9189 232.229 28.6025 232.229 28.207C232.229 27.8071 232.559 27.4907 232.954 27.4907C233.35 27.4907 233.675 27.8071 233.675 28.207C233.675 28.6025 233.35 28.9189 232.954 28.9189ZM232.312 34.5V29.6616H233.591V34.5H232.312ZM237.687 29.5825C238.913 29.5825 239.665 30.5186 239.665 32.0786C239.665 33.6343 238.922 34.5747 237.709 34.5747C237.015 34.5747 236.483 34.2715 236.246 33.7617H236.167V36.104H234.888V29.6616H236.127V30.457H236.206C236.47 29.9121 237.019 29.5825 237.687 29.5825ZM237.252 33.542C237.942 33.542 238.351 32.9927 238.351 32.0786C238.351 31.1689 237.938 30.6196 237.256 30.6196C236.575 30.6196 236.153 31.1777 236.153 32.083C236.153 32.9883 236.575 33.542 237.252 33.542ZM241.106 36.2578C241.058 36.2578 240.671 36.2534 240.618 36.2446V35.2471C240.662 35.2559 240.855 35.2603 240.908 35.2603C241.387 35.2603 241.66 35.1021 241.765 34.7109L241.809 34.5264L240.108 29.6616H241.519L242.539 33.353H242.618L243.637 29.6616H244.991L243.321 34.5923C242.908 35.8271 242.314 36.2578 241.106 36.2578ZM245.883 34.5V29.6616H247.122V30.4395H247.201C247.425 29.8945 247.917 29.5562 248.634 29.5562C249.71 29.5562 250.291 30.2153 250.291 31.3711V34.5H249.012V31.6611C249.012 30.98 248.726 30.624 248.12 30.624C247.526 30.624 247.162 31.0459 247.162 31.7007V34.5H245.883ZM254.391 34.5747C253.705 34.5747 253.156 34.2671 252.896 33.7397H252.817V34.5H251.578V27.8115H252.857V30.4351H252.936C253.182 29.9033 253.727 29.5825 254.391 29.5825C255.617 29.5825 256.355 30.5186 256.355 32.0786C256.355 33.6299 255.608 34.5747 254.391 34.5747ZM253.947 30.6196C253.274 30.6196 252.848 31.1821 252.844 32.083C252.848 32.9839 253.27 33.542 253.947 33.542C254.628 33.542 255.041 32.9883 255.041 32.0786C255.041 31.1777 254.624 30.6196 253.947 30.6196Z" fill="white"/>
</g>
<circle cx="34.5" cy="107" r="7.5" fill="#F7DE6D" fill-opacity="0.4" stroke="#F7DE6D"/>
<rect x="188.5" y="124" width="159" height="8" rx="4" fill="#393939"/>
<rect x="188.5" y="72" width="159" height="8" rx="4" fill="#393939"/>
<rect x="188.5" y="90" width="196" height="8" rx="4" fill="#393939"/>
<rect x="176.5" y="116" width="42" height="8" rx="4" transform="rotate(90 176.5 116)" fill="#007ACC"/>
<rect x="181" y="116.5" width="330" height="41" rx="7.5" stroke="#007ACC"/>
<rect x="180.5" y="203" width="58" height="8" rx="4" fill="#393939"/>
<rect x="248.5" y="203" width="58" height="8" rx="4" fill="#393939"/>
<rect x="316.5" y="203" width="58" height="8" rx="4" fill="#393939"/>
<rect x="384.5" y="203" width="58" height="8" rx="4" fill="#393939"/>
<rect x="452.5" y="203" width="58" height="8" rx="4" fill="#393939"/>
<rect x="180.5" y="221" width="58" height="8" rx="4" fill="#393939"/>
<rect x="248.5" y="221" width="58" height="8" rx="4" fill="#393939"/>
<rect x="316.5" y="221" width="58" height="8" rx="4" fill="#393939"/>
<rect x="384.5" y="221" width="58" height="8" rx="4" fill="#393939"/>
<rect x="452.5" y="221" width="58" height="8" rx="4" fill="#393939"/>
<rect x="180.5" y="239" width="58" height="8" rx="4" fill="#393939"/>
<rect x="248.5" y="239" width="58" height="8" rx="4" fill="#393939"/>
<rect x="316.5" y="239" width="58" height="8" rx="4" fill="#393939"/>
<rect x="384.5" y="239" width="58" height="8" rx="4" fill="#393939"/>
<rect x="452.5" y="239" width="58" height="8" rx="4" fill="#393939"/>
<rect x="180.5" y="257" width="58" height="8" rx="4" fill="#393939"/>
<rect x="248.5" y="257" width="58" height="8" rx="4" fill="#393939"/>
<rect x="316.5" y="257" width="58" height="8" rx="4" fill="#393939"/>
<rect x="384.5" y="257" width="58" height="8" rx="4" fill="#393939"/>
<rect x="452.5" y="257" width="58" height="8" rx="4" fill="#393939"/>
<rect x="180.5" y="185" width="58" height="8" rx="4" fill="#606060"/>
<rect x="248.5" y="185" width="58" height="8" rx="4" fill="#606060"/>
<rect x="316.5" y="185" width="58" height="8" rx="4" fill="#606060"/>
<rect x="384.5" y="185" width="58" height="8" rx="4" fill="#606060"/>
<rect x="452.5" y="185" width="58" height="8" rx="4" fill="#606060"/>
<rect x="181" y="64.5" width="330" height="41" rx="7.5" stroke="#393939"/>
<g clip-path="url(#clip1_1202_419658)">
<g clip-path="url(#clip2_1202_419658)">
<path d="M202 180.936C201.872 180.936 201.744 180.887 201.646 180.79C201.451 180.595 201.451 180.278 201.646 180.083L203.292 178.437L201.646 176.791C201.451 176.596 201.451 176.279 201.646 176.084C201.841 175.889 202.158 175.889 202.353 176.084L204.353 178.084C204.548 178.279 204.548 178.596 204.353 178.791L202.353 180.791C202.255 180.889 202.127 180.937 201.999 180.937L202 180.936Z" fill="#0078D4"/>
<path d="M199 180.936C198.872 180.936 198.744 180.887 198.646 180.79C198.451 180.595 198.451 180.278 198.646 180.083L200.292 178.437L198.646 176.791C198.451 176.596 198.451 176.279 198.646 176.084C198.841 175.889 199.158 175.889 199.353 176.084L201.353 178.084C201.548 178.279 201.548 178.596 201.353 178.791L199.353 180.791C199.255 180.889 199.127 180.937 198.999 180.937L199 180.936Z" fill="#0078D4"/>
<path d="M196 180.936C195.872 180.936 195.744 180.887 195.646 180.79C195.451 180.595 195.451 180.278 195.646 180.083L197.292 178.437L195.646 176.791C195.451 176.596 195.451 176.279 195.646 176.084C195.841 175.889 196.158 175.889 196.353 176.084L198.353 178.084C198.548 178.279 198.548 178.596 198.353 178.791L196.353 180.791C196.255 180.889 196.127 180.937 195.999 180.937L196 180.936Z" fill="#0078D4"/>
<path d="M194.5 176.436C194.5 176.262 194.535 176.095 194.591 175.936H193.194L192.754 177.896C192.754 177.901 192.751 177.909 192.749 177.916C192.747 177.924 192.744 177.931 192.744 177.936H195.378L194.939 177.497C194.656 177.214 194.5 176.837 194.5 176.436ZM189.704 172.936L189.264 174.896C189.264 174.901 189.261 174.909 189.259 174.916C189.256 174.924 189.254 174.931 189.254 174.936H192.394L192.844 172.936H189.704ZM203.195 168.871C202.718 168.277 202.007 167.936 201.246 167.936H192.842C191.661 167.936 190.657 168.741 190.402 169.893L189.947 171.936H194.115L193.448 174.936H202C202.272 174.936 202.531 175.013 202.759 175.148L203.686 170.978C203.851 170.234 203.672 169.466 203.195 168.871ZM191.195 170.936L191.379 170.11C191.532 169.419 192.134 168.936 192.843 168.936H194.782L194.337 170.936H191.195ZM197.837 173.936H194.694L195.139 171.936H198.281L197.837 173.936ZM198.505 170.936H195.363L195.808 168.936H198.949L198.505 170.936ZM202.003 173.936H198.861L199.306 171.936H202.449L202.003 173.936ZM202.708 170.762L202.67 170.936H199.527L199.971 168.936H201.243C201.7 168.936 202.127 169.141 202.413 169.497C202.699 169.854 202.807 170.315 202.707 170.762H202.708ZM189.755 176.996C190.235 177.596 190.945 177.936 191.705 177.936H191.725L191.955 176.936L192.175 175.936H189.265C189.335 176.326 189.505 176.686 189.755 176.996Z" fill="#0078D4"/>
</g>
</g>
<circle cx="203.5" cy="179" r="7.5" fill="#F7DE6D" fill-opacity="0.4" stroke="#F7DE6D"/>
</g>
<path d="M195.527 142.275V138.883H196.605V148H195.527V147.174C195.348 147.498 195.107 147.746 194.807 147.918C194.51 148.086 194.166 148.17 193.775 148.17C192.982 148.17 192.357 147.863 191.9 147.25C191.447 146.633 191.221 145.783 191.221 144.701C191.221 143.635 191.449 142.799 191.906 142.193C192.363 141.584 192.986 141.279 193.775 141.279C194.17 141.279 194.518 141.365 194.818 141.537C195.119 141.705 195.355 141.951 195.527 142.275ZM192.357 144.725C192.357 145.561 192.49 146.191 192.756 146.617C193.021 147.043 193.414 147.256 193.934 147.256C194.453 147.256 194.848 147.041 195.117 146.611C195.391 146.182 195.527 145.553 195.527 144.725C195.527 143.893 195.391 143.264 195.117 142.838C194.848 142.408 194.453 142.193 193.934 142.193C193.414 142.193 193.021 142.406 192.756 142.832C192.49 143.258 192.357 143.889 192.357 144.725ZM203.959 138.883V139.779H202.734C202.348 139.779 202.078 139.859 201.926 140.02C201.777 140.176 201.703 140.455 201.703 140.857V141.438H203.959V142.275H201.703V148H200.625V142.275H198.873V141.438H200.625V140.98C200.625 140.262 200.789 139.732 201.117 139.393C201.449 139.053 201.965 138.883 202.664 138.883H203.959ZM207.24 145.633H209.303V148H207.24V145.633ZM218.35 143.934V148H217.266V143.934C217.266 143.344 217.162 142.91 216.955 142.633C216.748 142.355 216.424 142.217 215.982 142.217C215.479 142.217 215.09 142.396 214.816 142.756C214.547 143.111 214.412 143.623 214.412 144.291V148H213.334V138.883H214.412V142.422C214.604 142.047 214.863 141.764 215.191 141.572C215.52 141.377 215.908 141.279 216.357 141.279C217.025 141.279 217.523 141.5 217.852 141.941C218.184 142.379 218.35 143.043 218.35 143.934ZM225.984 144.18V144.707H221.314V144.742C221.283 145.637 221.453 146.279 221.824 146.67C222.199 147.061 222.727 147.256 223.406 147.256C223.75 147.256 224.109 147.201 224.484 147.092C224.859 146.982 225.26 146.816 225.686 146.594V147.666C225.275 147.834 224.879 147.959 224.496 148.041C224.117 148.127 223.75 148.17 223.395 148.17C222.375 148.17 221.578 147.865 221.004 147.256C220.43 146.643 220.143 145.799 220.143 144.725C220.143 143.678 220.424 142.842 220.986 142.217C221.549 141.592 222.299 141.279 223.236 141.279C224.072 141.279 224.73 141.562 225.211 142.129C225.695 142.695 225.953 143.379 225.984 144.18ZM224.906 143.863C224.859 143.41 224.693 143.02 224.408 142.691C224.127 142.359 223.721 142.193 223.189 142.193C222.67 142.193 222.242 142.365 221.906 142.709C221.57 143.053 221.387 143.439 221.355 143.869L224.906 143.863ZM230.766 144.701H230.408C229.779 144.701 229.305 144.812 228.984 145.035C228.668 145.254 228.51 145.582 228.51 146.02C228.51 146.414 228.629 146.721 228.867 146.939C229.105 147.158 229.436 147.268 229.857 147.268C230.451 147.268 230.918 147.062 231.258 146.652C231.598 146.238 231.77 145.668 231.773 144.941V144.701H230.766ZM232.857 144.256V148H231.773V147.027C231.543 147.418 231.252 147.707 230.9 147.895C230.553 148.078 230.129 148.17 229.629 148.17C228.961 148.17 228.428 147.982 228.029 147.607C227.631 147.229 227.432 146.723 227.432 146.09C227.432 145.359 227.676 144.805 228.164 144.426C228.656 144.047 229.377 143.857 230.326 143.857H231.773V143.688C231.77 143.164 231.637 142.785 231.375 142.551C231.113 142.312 230.695 142.193 230.121 142.193C229.754 142.193 229.383 142.246 229.008 142.352C228.633 142.457 228.268 142.611 227.912 142.814V141.736C228.311 141.584 228.691 141.471 229.055 141.396C229.422 141.318 229.777 141.279 230.121 141.279C230.664 141.279 231.127 141.359 231.51 141.52C231.896 141.68 232.209 141.92 232.447 142.24C232.596 142.436 232.701 142.678 232.764 142.967C232.826 143.252 232.857 143.682 232.857 144.256ZM238.91 142.275V138.883H239.988V148H238.91V147.174C238.73 147.498 238.49 147.746 238.189 147.918C237.893 148.086 237.549 148.17 237.158 148.17C236.365 148.17 235.74 147.863 235.283 147.25C234.83 146.633 234.604 145.783 234.604 144.701C234.604 143.635 234.832 142.799 235.289 142.193C235.746 141.584 236.369 141.279 237.158 141.279C237.553 141.279 237.9 141.365 238.201 141.537C238.502 141.705 238.738 141.951 238.91 142.275ZM235.74 144.725C235.74 145.561 235.873 146.191 236.139 146.617C236.404 147.043 236.797 147.256 237.316 147.256C237.836 147.256 238.23 147.041 238.5 146.611C238.773 146.182 238.91 145.553 238.91 144.725C238.91 143.893 238.773 143.264 238.5 142.838C238.23 142.408 237.836 142.193 237.316 142.193C236.797 142.193 236.404 142.406 236.139 142.832C235.873 143.258 235.74 143.889 235.74 144.725ZM246.123 138.309C245.604 139.199 245.215 140.088 244.957 140.975C244.703 141.857 244.576 142.748 244.576 143.646C244.576 144.541 244.703 145.432 244.957 146.318C245.215 147.205 245.604 148.098 246.123 148.996H245.186C244.596 148.066 244.156 147.162 243.867 146.283C243.578 145.4 243.434 144.521 243.434 143.646C243.434 142.775 243.578 141.898 243.867 141.016C244.156 140.133 244.596 139.23 245.186 138.309H246.123ZM250.383 138.309H251.32C251.91 139.23 252.35 140.133 252.639 141.016C252.928 141.898 253.072 142.775 253.072 143.646C253.072 144.525 252.928 145.406 252.639 146.289C252.35 147.172 251.91 148.074 251.32 148.996H250.383C250.902 148.09 251.289 147.193 251.543 146.307C251.801 145.42 251.93 144.533 251.93 143.646C251.93 142.756 251.801 141.867 251.543 140.98C251.289 140.094 250.902 139.203 250.383 138.309Z" fill="#EDEBE9"/>
<defs>
<filter id="filter0_d_1202_419658" x="0.5" y="20" width="208" height="353" filterUnits="userSpaceOnUse" color-interpolation-filters="sRGB">
<feFlood flood-opacity="0" result="BackgroundImageFix"/>
<feColorMatrix in="SourceAlpha" type="matrix" values="0 0 0 0 0 0 0 0 0 0 0 0 0 0 0 0 0 0 127 0" result="hardAlpha"/>
<feOffset dy="2"/>
<feGaussianBlur stdDeviation="4"/>
<feColorMatrix type="matrix" values="0 0 0 0 0 0 0 0 0 0 0 0 0 0 0 0 0 0 0.4 0"/>
<feBlend mode="normal" in2="BackgroundImageFix" result="effect1_dropShadow_1202_419658"/>
<feBlend mode="normal" in="SourceGraphic" in2="effect1_dropShadow_1202_419658" result="shape"/>
</filter>
<filter id="filter1_d_1202_419658" x="10.5" y="0" width="537" height="350" filterUnits="userSpaceOnUse" color-interpolation-filters="sRGB">
<feFlood flood-opacity="0" result="BackgroundImageFix"/>
<feColorMatrix in="SourceAlpha" type="matrix" values="0 0 0 0 0 0 0 0 0 0 0 0 0 0 0 0 0 0 127 0" result="hardAlpha"/>
<feOffset dy="2"/>
<feGaussianBlur stdDeviation="8"/>
<feColorMatrix type="matrix" values="0 0 0 0 0 0 0 0 0 0 0 0 0 0 0 0 0 0 0.36 0"/>
<feBlend mode="normal" in2="BackgroundImageFix" result="effect1_dropShadow_1202_419658"/>
<feBlend mode="normal" in="SourceGraphic" in2="effect1_dropShadow_1202_419658" result="shape"/>
</filter>
<clipPath id="clip0_1202_419658">
<rect width="124" height="35" fill="white" transform="translate(152.5 14)"/>
</clipPath>
<clipPath id="clip1_1202_419658">
<rect width="16" height="16" fill="white" transform="translate(188.5 165)"/>
</clipPath>
<clipPath id="clip2_1202_419658">
<rect width="16" height="16" fill="white" transform="translate(188.5 164.936)"/>
</clipPath>
</defs>
</svg>
