<svg width="16" height="16" viewBox="0 0 24 24" fill="none" xmlns="http://www.w3.org/2000/svg">
<path d="M1.80698 11.5L1.14698 14.44C1.14698 14.448 1.14298 14.459 1.13898 14.47C1.13498 14.481 1.13098 14.493 1.13098 14.5H5.84098L6.51598 11.5H1.80698Z" fill="#FFFFFF"/>
<path d="M7.423 14.5H9.66C9.762 14.482 9.865 14.47 9.97 14.47H19.97C20.438 14.47 20.877 14.652 21.207 14.983L21.325 15.101L22.778 8.563C23.025 7.447 22.757 6.295 22.041 5.402V5.404C21.325 4.511 20.259 4 19.117 4H6.514C4.743 4 3.237 5.207 2.854 6.935L2.172 10H8.424L7.423 14.5ZM17.207 5.5H19.115C19.8 5.5 20.441 5.807 20.87 6.341C21.299 6.877 21.461 7.568 21.311 8.239H21.313L21.256 8.5H16.541L17.207 5.5ZM20.924 10L20.255 13H15.542L16.209 10H20.924ZM10.961 5.5H15.672L15.006 8.5H10.293L10.961 5.5ZM14.672 10L14.006 13H9.292L9.959 10H14.672ZM4.043 8.5L4.319 7.261C4.548 6.225 5.451 5.5 6.515 5.5H9.424L8.756 8.5H4.043Z" fill="#FFFFFF"/>
<path d="M8.73197 17.457C8.33497 17.06 8.17597 16.518 8.24097 16H7.04097L6.38097 18.94C6.38097 18.948 6.37697 18.959 6.37397 18.97C6.36997 18.981 6.36597 18.993 6.36597 19H10.275L8.73197 17.457Z" fill="#FFFFFF"/>
<path d="M1.88197 17.59C2.60197 18.49 3.66697 19 4.80697 19H4.83697L5.18197 17.5L5.51197 16H1.14697C1.25197 16.585 1.50697 17.125 1.88197 17.59Z" fill="#FFFFFF"/>
<path d="M23.78 18.97L20.5 15.69C20.207 15.397 19.732 15.397 19.439 15.69C19.146 15.983 19.146 16.458 19.439 16.751L22.189 19.501L19.439 22.251C19.146 22.544 19.146 23.019 19.439 23.312C19.585 23.458 19.777 23.532 19.969 23.532C20.161 23.532 20.353 23.459 20.499 23.312L23.779 20.032C24.072 19.739 24.072 19.264 23.779 18.971L23.78 18.97ZM15.5 15.689C15.207 15.396 14.732 15.396 14.439 15.689C14.146 15.982 14.146 16.457 14.439 16.75L17.189 19.5L14.439 22.25C14.146 22.543 14.146 23.018 14.439 23.311C14.585 23.457 14.777 23.531 14.969 23.531C15.161 23.531 15.353 23.458 15.499 23.311L18.779 20.031C19.072 19.738 19.072 19.263 18.779 18.97L15.499 15.69L15.5 15.689ZM10.5 15.689C10.207 15.396 9.73199 15.396 9.43899 15.689C9.14599 15.982 9.14599 16.457 9.43899 16.75L12.189 19.5L9.43899 22.25C9.14599 22.543 9.14599 23.018 9.43899 23.311C9.58499 23.457 9.77699 23.531 9.96899 23.531C10.161 23.531 10.353 23.458 10.499 23.311L13.779 20.031C14.072 19.738 14.072 19.263 13.779 18.97L10.499 15.69L10.5 15.689Z" fill="#FFFFFF"/>
</svg>
